**ABCDEFGHIJKLMNOPQRSTUVWXYZabcdefghijklmnopqrstuvwxyz**************************
**PARASOLID !"#$%&'()*+,-./:;<=>?@[\]^_`{|}~0123456789**************************
**PART1;
MC=x64/Windows NT;
MC_MODEL=genuineintel family 6 model 14 stepping 10, intel(r) core(tm) i5-8300h cpu @ 2.30ghz;
MC_ID=desktop-goj3fk4;
OS=windows nt (x64);
OS_RELEASE=6.3 windows 10 home single language (build 17763) ;
FRU=mdc_ugii_v7.0_djl_can_vrh;
APPL=unigraphics;
SITE=unknown;
USER=Maktub;
FORMAT=text;
GUISE=transmit;
KEY=Base;
FILE=D:\Maktub\Desktop\Base.x_t;
DATE=12-feb-2020;
**PART2;
SCH=SCH_2700178_26105;
USFLD_SIZE=0;
**PART3;
**END_OF_HEADER*****************************************************************
T51 : TRANSMIT FILE created by modeller version 270017823 SCH_2700178_26105_1300
6196 0 12 30 CCCCCCCCCCCCCDI5 owner1040 0 CCCCCCCCCA13 boundary_mesh1006 0 A16 i
ndex_map_offset0 0 1 dA9 index_map82 0 A17 node_id_index_map82 0 A20 schema_embe
dding_map82 0 A5 child12 0 A14 lowest_node_id0 0 1 dZ1 783 2 3 0 0 0 0 1e3 1e-8
 0 0 0 1 0 1 1 4 5 6 7 8 9 10 0 0 0 0 0 0 0 81 255 1 2 783 11 1 12 0 0 0 13 70 1
1 CI9 list_type0 0 1 uI10 notransmit0 0 1 lCCCDCCDI12 finger_index0 0 1 dI12 fin
ger_block1012 0 CZ3 0 4 T1 0 0 5 20 1 14 14 13 255 4 4 0 1 0 15 0 0 16 0 50 255
 5 466 0 17 18 0 0 +.01 0 -.045 -1 0 0 0 0 -1 31 255 6 514 0 1 19 0 20 +.13 0 -.
003 0 0 1 -1 0 0 .0025 29 255 7 463 0 21 22 0 .01 -122464679914735e-33 -.046 19
 8 CCCCCCCA5 owner12 0 Z8 2 0 1 16 0 23 V0 16 255 9 7 24 ?25 0 26 27 0 0 1 18 25
5 10 9 0 28 0 29 30 ?1 17 255 28 0 31 32 33 10 34 26 0 25 -18 29 11 0 35 10 36 3
7 ?1 29 30 262 0 10 38 37 .003 .01 -.057 29 38 261 0 39 0 30 .135 .01 -.057 29 3
7 264 0 29 30 40 .003 .01 -.003 29 40 266 0 36 37 41 .135 .01 -.003 18 36 13 0 4
2 29 39 40 ?1 29 41 269 0 43 40 44 .12 .01 -.013 18 43 17 0 45 46 47 41 ?1 29 44
 270 0 48 41 49 .12 .01 -.047 18 48 18 0 50 39 51 44 ?1 29 49 272 0 51 44 52 .13
 .01 -.047 18 51 20 0 53 48 46 49 ?1 29 52 274 0 46 49 54 .13 .01 -.013 18 46 22
 0 55 51 43 52 ?1 29 54 277 0 56 52 57 .07 .01 -.013 18 56 26 0 58 59 60 54 ?1 2
9 57 278 0 47 54 61 .07 .01 -.047 18 47 27 0 62 43 63 57 ?1 29 61 280 0 63 57 64
 .08 .01 -.047 18 63 29 0 65 47 59 61 ?1 29 64 282 0 59 61 66 .08 .01 -.013 18 5
9 31 0 67 63 56 64 ?1 29 66 286 0 68 64 69 0 .007 -.06 18 68 36 0 70 71 72 66 ?1
 29 69 287 0 60 66 73 0 -.007 -.06 18 60 37 0 74 56 75 69 ?1 29 73 289 0 75 69 7
6 0 -.007 0 18 75 39 0 77 60 71 73 ?1 29 76 291 0 71 73 78 0 .007 0 18 71 41 0 7
9 75 68 76 ?1 29 78 294 0 72 76 80 0 0 -.044 18 72 45 0 81 68 82 78 ?1 29 80 295
 0 82 78 83 0 -122464679914735e-33 -.046 18 82 46 0 84 72 85 80 ?1 29 83 298 0 8
5 80 86 0 0 -.014 18 85 50 0 87 82 88 83 ?1 29 86 299 0 88 83 89 0 -122464679914
736e-33 -.016 18 88 51 0 90 85 91 86 ?1 29 89 303 0 92 86 93 .135 -.007 0 18 92
 56 0 94 95 96 89 ?1 29 93 304 0 91 89 97 .135 -.0022912878474779 0 18 91 57 0 9
8 88 99 93 5e-7 1 29 97 306 0 99 93 100 .135 .0022912878474779 0 18 99 59 0 101
 91 95 97 5e-7 1 29 100 308 0 95 97 102 .135 .007 0 18 95 61 0 103 99 92 100 ?1
 29 102 312 0 104 100 105 .0145 0 0 18 104 66 0 106 96 107 102 ?1 29 105 313 0 9
6 102 108 .0255 -673555739531045e-33 0 18 96 67 0 109 92 104 105 ?1 29 108 317 0
 110 105 111 .135 .007 -.06 18 110 72 0 112 113 114 108 ?1 29 111 318 0 107 108
 115 .135 .0022912878474779 -.06 18 107 73 0 116 104 117 111 5e-7 1 29 115 320 0
 117 111 118 .135 -.0022912878474779 -.06 18 117 75 0 119 107 113 115 5e-7 1 29
 118 322 0 113 115 120 .135 -.007 -.06 18 113 77 0 121 117 110 118 ?1 29 120 326
 0 122 118 123 .0255 0 -.06 18 122 82 0 124 114 125 120 ?1 29 123 327 0 114 120
 126 .0145 -673555739531044e-33 -.06 18 114 83 0 127 110 122 123 ?1 29 126 331 0
 128 123 129 .003 -.01 -.003 18 128 88 0 130 131 132 126 ?1 29 129 332 0 125 126
 133 .003 -.01 -.057 18 125 89 0 134 122 135 129 ?1 29 133 334 0 135 129 136 .13
5 -.01 -.057 18 135 91 0 137 125 131 133 ?1 29 136 336 0 131 133 138 .135 -.01 -
.003 18 131 93 0 139 135 128 136 ?1 29 138 345 0 140 136 141 .0225 0 -.057 18 14
0 104 0 142 143 144 138 ?1 29 141 346 0 132 138 145 .0175 -306161699786838e-33 -
.057 18 132 105 0 146 128 147 141 ?1 29 145 348 0 147 141 148 .0175 0 -.003 18 1
47 107 0 149 132 143 145 ?1 29 148 350 0 143 145 150 .0225 -306161699786838e-33
 -.003 18 143 109 0 151 147 140 148 ?1 29 150 355 0 152 148 153 .132272727272727
 .00104149447612633 -.057 18 152 115 0 154 155 156 150 5e-7 1 29 153 356 0 144 1
50 157 .132272727272727 -.00104149447612633 -.057 18 144 116 0 158 140 159 153 5
e-7 1 29 157 358 0 159 153 160 .1275 -306161699786838e-33 -.057 18 159 118 0 161
 144 162 157 ?1 29 160 360 0 162 157 163 .1275 -306161699786838e-33 -.003 18 162
 120 0 164 159 165 160 ?1 29 163 362 0 165 160 166 .132272727272727 -.0010414944
7612633 -.003 18 165 122 0 167 162 155 163 5e-7 1 29 166 364 0 155 163 168 .1322
72727272727 .00104149447612633 -.003 18 155 124 0 169 165 152 166 5e-7 1 29 168
 369 0 170 166 171 .13 .017197684822792 -.047 18 170 130 0 172 156 173 168 ?1 29
 171 371 0 156 168 174 .12 .017197684822792 -.047 18 156 132 0 175 152 170 171 ?
1 29 174 375 0 173 171 176 .13 .017197684822792 -.013 18 173 137 0 177 170 178 1
74 ?1 29 176 377 0 178 174 179 .12 .017197684822792 -.013 18 178 139 0 180 173 1
81 176 ?1 29 179 381 0 181 176 182 .13 .019683162644057 -.01768 18 181 144 0 183
 178 184 179 ?1 29 182 383 0 184 179 185 .12 .019683162644057 -.01768 18 184 146
 0 186 181 187 182 ?1 29 185 387 0 187 182 188 .13 .019683162644057 -.04232 18 1
87 151 0 189 184 190 185 ?1 29 188 389 0 190 185 191 .12 .019683162644057 -.0423
2 18 190 153 0 192 187 193 188 ?1 29 191 398 0 194 188 195 .08 .017197684822792
 -.047 18 194 166 0 196 193 197 191 ?1 29 195 400 0 193 191 198 .07 .01719768482
2792 -.047 18 193 168 0 199 190 194 195 ?1 29 198 404 0 197 195 200 .08 .0171976
84822792 -.013 18 197 173 0 201 194 202 198 ?1 29 200 406 0 202 198 203 .07 .017
197684822792 -.013 18 202 175 0 204 197 205 200 ?1 29 203 410 0 205 200 206 .08
 .019683162644057 -.01768 18 205 180 0 207 202 208 203 ?1 29 206 412 0 208 203 2
09 .07 .019683162644057 -.01768 18 208 182 0 210 205 211 206 ?1 29 209 416 0 211
 206 212 .08 .019683162644057 -.04232 18 211 187 0 213 208 214 209 ?1 29 212 418
 0 214 209 215 .07 .019683162644057 -.04232 18 214 189 0 216 211 217 212 ?1 29 2
15 455 0 217 212 218 .01 0 -.014 18 217 244 0 219 214 220 215 ?1 29 218 456 0 22
0 215 22 .01 -122464679914736e-33 -.016 18 220 245 0 221 217 222 218 ?1 29 22 46
2 0 222 218 7 .01 0 -.044 18 222 253 0 223 220 21 22 ?1 17 223 0 224 225 226 222
 227 228 0 229 -18 21 254 0 225 222 0 7 ?1 17 225 0 224 230 223 21 229 231 0 227
 -15 255 224 251 0 223 232 0 17 230 0 224 233 225 82 226 234 0 0 +17 229 0 235 2
27 227 222 225 231 0 0 +16 231 255 236 ?229 228 0 237 0 0 1 17 227 0 235 229 229
 21 223 228 0 226 +15 235 258 0 227 17 0 16 228 252 238 ?227 239 231 240 0 0 1 1
7 226 0 224 223 84 21 230 234 0 0 -17 84 0 224 226 233 82 81 239 0 241 +16 234 2
56 242 ?230 243 244 245 0 0 1 81 1 242 695 246 234 0 0 247 248 249 16 243 246 24
7 ?250 251 234 252 0 0 1 16 244 47 248 ?233 234 239 253 0 0 1 30 255 245 465 0 2
34 237 254 0 +.01 -122464679914735e-33 -.046 -1 0 0 31 237 464 0 231 240 245 0 +
.01 0 -.045 -1 0 0 0 0 1 .001 133 255 254 467 0 116 245 255 0 +255 .135 -.002291
2878474779 -.06 .135 .0022912878474779 -.06 0 1 17 116 0 256 257 258 107 119 259
 254 260 +137 255 255 468 0 1 254 261 262 +263 264 0 ?133 261 469 0 119 255 265
 0 +265 .135 .00229128784747793 -.06 .135 -.0022912878474779 -.06 0 1 141 255 26
2 254 262 262 255 51 255 263 338 0 266 267 268 269 +.135 .01 -.03 0 -1 0 .03 0 0
 1 134 255 264 0 0 0 0 0 0 +270 271 136 255 270 2 9 2 5 5 FFF1 272 273 274 135 2
55 271 2 0 45 255 18 272 3.141592653589795 .0122912878474779 3.15074157681498 .0
1175224398760266 3.155438147372 .011170985244285 3.160120558135555 .010591478950
68714 3.160108328374055 .00999786584250503 3.160096025720775 .00940071468373504
 3.155351968832275 .00881821479306919 3.150673137772 .00824372366762359 3.141592
653589795 .0077087121525221 127 255 5 273 3 2 2 2 3 128 255 5 274 0 .25 .5 .75 1
 14 255 266 95 275 ?276 277 256 4 263 +0 0 276 277 23 50 267 329 0 277 278 263 0
 +0 -.01 -.06 0 -1 0 0 0 1 51 268 343 0 276 263 279 0 +.02 0 -.06 0 0 1 .0025 -1
 0 0 141 269 255 280 280 263 141 280 281 269 269 263 137 281 483 0 1 282 283 284
 +263 285 0 ?133 282 482 0 98 286 281 0 +281 .135 .0022912878474779 0 .135 -.002
29128784747789 0 0 1 133 283 484 0 101 281 287 0 +287 .135 -.0022912878474779 0
 .135 .0022912878474779 0 0 1 141 284 282 284 284 281 134 285 0 0 0 0 0 0 +288 2
89 136 288 2 9 2 5 5 FFF1 290 291 292 135 289 2 0 45 18 290 6.28318530717959 .00
77087121525221 6.27410633397734 .0082436346424251 6.26942599193711 .008818214793
06917 6.26468627529156 .00940008404125671 6.26466963239533 .00999786584250503 6.
26465312307764 .01059084975142016 6.26933981339738 .01117098524428494 6.27403484
596923 .01175215337131504 6.28318530717959 .0122912878474779 127 5 291 3 2 2 2 3
 128 5 292 0 .25 .5 .75 1 17 101 0 293 294 295 99 98 296 283 297 -137 287 485 0
 1 283 298 299 +300 301 0 ?133 298 487 0 302 287 303 0 +303 .135 .00229128784747
79 0 .135 .007 0 -.0047087121525221 0 141 299 283 299 299 287 124 255 300 444 0
 304 305 306 307 +308 309 134 301 0 0 0 0 0 0 +310 311 136 310 1 2 2 2 5 FFF1 31
2 313 314 135 311 2 0 45 4 312 1 1 0 1 127 2 313 2 2 128 2 314 0 1 14 304 227 31
5 ?316 317 293 4 300 +0 0 316 317 23 54 255 305 441 0 317 318 300 0 +.13 0 -.003
 0 0 -1 .0055 .003 1 0 0 54 306 445 0 316 300 319 0 +.13 0 -.057 0 0 1 .0055 .00
3 1 -101064309961486e-29 0 141 307 287 320 320 300 126 255 308 FF3 2 9 3 6 5 7 2
 TFF2 4 321 322 323 324 325 125 255 309 0 1 0 1 0 1 0 1 2 BBBBBBBB????0 0 0 0 45
 108 321 .132272727272727 .00104149447612632 -.003 1 .0935309424205841 .00073644
7806637252 0 .707106781186548 .135 .0022912878474779 0 1 .132347923543741 .00087
7402759983379 -.00300000000109107 1 .0933258818909709 .0006134438990728 11815953
9102486e-19 .705137455393518 .135183813104671 .0019302860710318 0 1 .13243230999
8895 .000623973928094434 -.00300210877166822 1 .0930545639112486 .00043055679617
59815 2520342759048385e-20 .702643712664039 .135390091108919 .00137274264201612
 -2343079906793e-18 1 .132490256629756 .000270313069227566 -.00300421299903647 1
 .0928549131761093 .000185081856857476 344765678781509e-19 .7008407011479 .13553
1738428193 .000594688752263915 -468110998556269e-20 1 .132509589415797 -89734107
0631933e-19 -.00300505615222549 1 .0927854802966492 -614323741650405e-19 3758420
4773397e-18 .700219875826704 .135578996349806 -.000197415035527018 -561794697151
081e-20 1 .132471845969119 -.000443311647725806 -.00300331519239303 1 .092922943
0196652 -.000303589776017357 315071601416805e-19 .70144492402973 .13548673459100
9 -.000975285624933906 -368354694307298e-20 1 .132376260651767 -.000792388870472
407 -.00300074245501633 1 .0932341733253301 -.000552000625121278 163082130862029
5e-20 .704295745045108 .135253081593487 -.00174325551515232 -824950285089877e-21
 1 .132310325298028 -.000959448858545659 -.00300000000052849 1 .0934284124562007
 -.000674946033151274 590795966423217e-20 .706122121173969 .135091906283453 -.00
211078748854933 0 1 .132272727272727 -.00104149447612632 -.003 1 .09353094242058
41 -.000736447806637252 0 .707106781186548 .135 -.0022912878474779 0 1 127 7 322
 4 1 1 1 1 1 4 127 2 323 3 3 128 7 324 0 .25 .375 .5 .75 .875 1 128 2 325 0 1 14
1 320 326 307 307 300 137 326 509 0 1 327 328 329 +300 330 0 ?133 327 508 0 167
 331 326 0 +326 .132272727272727 .00104149447612632 -.003 .132272727272727 -.001
04149447612632 -.003 0 1 133 328 511 0 332 326 333 0 +333 .1275 -306161699786837
5e-34 -.003 .1322727272727272 -.00104149447612644 -.003 122464679914735e-30 2.71
189298743832 141 329 327 329 329 326 134 330 0 0 0 0 0 0 +334 335 136 334 1 2 2
 2 5 FFF1 336 337 338 135 335 2 0 45 4 336 0 0 1 0 127 2 337 2 2 128 2 338 0 1 1
6 332 121 339 ?340 341 342 328 0 0 1 31 333 512 0 1 328 19 343 +.13 0 -.003 0 0
 1 -1 0 0 .0025 133 19 513 0 344 333 6 0 +6 .1322727272727272 .00104149447612644
 -.003 .1275 -3061616997868375e-34 -.003 3.571292319741265 6.28318530717959 141
 343 328 343 343 333 16 344 125 345 ?346 342 347 19 0 0 1 81 1 345 642 246 344 0
 0 348 349 350 17 346 0 351 161 352 162 169 344 0 0 +16 342 123 348 5e-7 352 332
 344 0 0 0 1 16 347 126 349 ?154 344 353 354 0 0 1 81 1 349 643 246 347 0 0 345
 355 356 17 154 0 351 357 161 152 358 347 0 359 +16 353 131 355 ?360 347 361 362
 0 0 1 133 354 502 0 347 363 364 0 +364 .1275 -3061616997868375e-34 -.057 .13227
27272727272 .00104149447612644 -.057 3.141592653589795 5.85348564102811 137 363
 500 0 1 365 354 366 +319 367 0 ?31 364 503 0 1 354 368 369 +.13 0 -.057 0 0 -1
 1 0 0 .0025 133 368 504 0 370 364 371 0 +371 .1322727272727272 -.00104149447612
644 -.057 .1275 -3061616997868375e-34 -.057 .429699666151472 3.141592653589795 1
41 369 354 369 369 364 16 370 117 372 ?373 374 341 368 0 0 1 31 371 505 0 1 368
 375 376 +.13 0 -.057 0 0 -1 1 0 0 .0025 133 375 506 0 352 371 331 0 +331 .13227
27272727272 -.001041494476126436 -.003 .1322727272727272 .001041494476126434 -.0
03 0 1 141 376 368 376 376 371 17 352 0 351 346 340 155 167 342 375 294 +137 331
 507 0 1 375 327 377 +279 378 0 ?141 377 375 377 377 331 51 279 353 0 379 268 38
0 381 +.13 0 -.06 0 0 1 .0025 -1 0 0 134 378 0 0 0 0 0 0 +382 383 136 382 2 9 2
 5 5 FFF1 384 385 386 135 383 2 0 45 18 384 2.71189298743832 .057 2.767207861754
01 .057 2.92788639817854 .0569973973220184 3.05321509490248 .056995367242291 3.1
41917357470305 .0569953699787563 3.23059961107495 .0569953727146045 3.3569507210
14255 .0569974241095056 3.5156069713947 .057 3.571292319741265 .057 127 5 385 3
 2 2 2 3 128 5 386 0 .25 .5 .75 1 14 379 112 387 ?388 276 351 4 279 -0 0 388 276
 23 50 380 367 0 388 279 389 0 +.12 .01 -.047 0 0 -1 1 0 0 141 381 390 391 391 2
79 137 390 498 0 1 392 365 393 +279 394 0 ?141 391 331 381 381 279 133 392 497 0
 357 395 390 0 +390 .1322727272727272 .001041494476126434 -.057 .132272727272727
2 -.001041494476126452 -.057 0 1 133 365 499 0 359 390 363 0 +363 .1322727272727
27 -.00104149447612632 -.057 .132272727272727 .00104149447612633 -.057 0 1 141 3
93 392 393 393 390 134 394 0 0 0 0 0 0 +396 397 136 396 2 9 2 5 5 FFF1 398 399 4
00 135 397 2 0 45 18 398 3.571292319741265 .003 3.51559320518387 .003 3.35695072
1014255 .003002575890494395 3.23063532149315 .00300462688357248 3.14191735747030
5 .0030046300212436 3.0532506845135 .003004633157100715 2.92788639817854 .003002
602677981595 2.767193848006265 .003 2.711892987438315 .003 127 5 399 3 2 2 2 3 1
28 5 400 0 .25 .5 .75 1 17 359 0 401 402 403 152 357 374 365 404 -15 401 234 0 4
03 405 0 17 402 0 401 119 359 107 404 406 0 0 +17 403 0 401 359 119 144 407 408
 0 0 +17 357 0 351 373 154 144 359 374 392 403 +16 374 114 409 5e-7 357 410 370
 0 0 0 1 17 404 0 411 358 260 152 402 406 0 0 -15 411 230 0 404 316 0 17 358 0 4
11 158 404 159 154 347 0 0 -17 260 0 411 404 407 107 412 413 0 414 -16 406 231 4
15 ?402 408 416 417 0 0 1 81 1 415 687 246 406 0 0 418 419 420 16 408 232 418 ?4
03 421 406 422 0 0 1 16 416 237 419 ?423 406 424 425 0 0 1 133 417 480 0 406 426
 286 0 +286 .1322727272727272 .00104149447612632 -.057 .135 .002291287847477885
 -.06 3.141592653589795 4.71238898038469 30 426 479 0 1 427 417 428 +.135 .007 -
.06 0 -1 0 31 286 481 0 1 417 282 429 +.135 .00229128784747792 -.057 .4165977904
50533 -.909090909090908 108194814176551e-28 .909090909090908 .416597790450533 0
 .003 141 429 417 429 429 286 133 427 478 0 430 431 426 0 +426 .135 .007 -.06 .1
35 .0022912878474779 -.06 0 .0047087121525221 141 428 427 428 428 426 16 430 71
 432 ?414 433 413 427 0 0 1 31 431 477 0 1 422 427 434 +.135 -.0022912878474779
 -.057 .416597790450523 .909090909090913 0 -.909090909090913 .416597790450523 0
 .003 133 422 476 0 408 435 431 0 +431 .135 -.0022912878474779 -.06 .13227272727
27272 -.00104149447612633 -.057 4.71238898038469 6.28318530717959 141 434 422 43
4 434 431 31 435 475 0 1 436 422 437 +.13 0 -.06 0 0 1 1 0 0 .0055 133 436 474 0
 413 438 435 0 +435 .135 .0022912878474779 -.06 .135 -.0022912878474779 -.06 .42
96996661514205 5.85348564102817 141 437 436 437 437 435 16 413 74 439 ?412 430 4
40 436 0 0 1 30 438 473 0 1 441 436 442 +.135 -.0022912878474779 -.06 0 -1 0 133
 441 472 0 440 265 438 0 +438 .135 -.0022912878474779 -.06 .135 -.007 -.06 0 .00
47087121525221 141 442 441 442 442 438 16 440 76 443 ?444 413 445 441 0 0 1 137
 265 470 0 1 261 441 446 +319 447 0 ?141 446 261 446 446 265 124 319 448 0 405 3
06 448 449 +450 451 134 447 0 0 0 0 0 0 +452 453 136 452 1 2 2 2 5 FFF1 454 455
 456 135 453 2 0 45 4 454 0 0 1 0 127 2 455 2 2 128 2 456 0 1 14 405 233 457 ?45
8 316 401 4 319 +0 0 458 316 23 54 448 449 0 458 319 459 0 +.02 0 -.057 0 0 1 .0
055 .003 -1 0 0 141 449 265 460 460 319 126 450 FF3 2 9 3 6 5 7 2 TFF2 4 461 462
 463 464 465 125 451 0 1 0 1 0 1 0 1 2 BBBBBBBB????0 0 0 0 45 108 461 .135 .0022
9128784747793 -.06 1 .0935309424205841 .000736447806637259 -.0424264068711929 .7
07106781186548 .132272727272727 .00104149447612633 -.057 1 .135183813104671 .001
93028607103518 -.06 1 .0933258818909632 .000613443899074318 -.0423200632775216 .
705137455393518 .132347923543738 .000877402759991116 -.0569999999989088 1 .13539
0091108919 .00137274264201537 -.0599976569200932 1 .0930545639112507 .0004305567
961756405 -.04218382618743275 .702643712664039 .132432309998896 .000623973928092
693 -.0569978912283318 1 .135531738428193 .000594688752264143 -.0599953188900144
 1 .0928549131761093 .0001850818568575725 -.04208491863675215 .7008407011479 .13
2490256629755 .000270313069227936 -.0569957870009635 1 .135578996349806 -.000197
415035527399 -.0599943820530285 1 .0927854802966489 -614323741652041e-19 -.04205
077675437565 .700219875826702 .132509589415797 -89734107063567e-18 -.05699494384
77745 1 .135486734591008 -.000975285624931786 -.0599963164530569 1 .092922943019
6658 -.000303589776016484 -.0421182026019247 .701444924029729 .13247184596912 -.
000443311647724505 -.056996684807607 1 .135253081593487 -.00174325551515585 -.05
99991750497149 1 .0932341733253296 -.000552000625122736 -.04227405291579405 .704
295745045109 .132376260651766 -.00079238887047455 -.0569992575449836 1 .13509190
6283453 -.00211078748854145 -.06 1 .0934284124562035 -.000674946033148034 -.0423
732352300995 .706122121173969 .13231032529803 -.000959448858540897 -.05699999999
94716 1 .135 -.0022912878474779 -.06 1 .0935309424205841 -.000736447806637252 -.
0424264068711929 .707106781186548 .132272727272727 -.00104149447612632 -.057 1 1
27 7 462 4 1 1 1 1 1 4 127 2 463 3 3 128 7 464 0 .25 .375 .5 .75 .875 1 128 2 46
5 0 1 141 460 363 449 449 319 14 458 235 466 ?467 405 468 4 448 +0 0 467 405 23
 54 459 451 0 467 448 469 0 +.02 0 -.003 0 0 -1 .0055 .003 1 0 0 14 467 238 470
 ?471 458 472 4 459 +0 0 471 458 23 51 469 453 0 471 459 473 0 +.01 0 -.015 -1 0
 0 .001 0 0 -1 14 471 241 474 ?475 467 476 4 469 -0 0 475 467 23 50 473 459 0 47
5 469 18 0 +.01 0 -.015 -1 0 0 0 0 -1 14 475 248 477 ?232 471 478 4 473 +0 0 232
 471 23 51 18 460 0 232 473 5 0 +.01 0 -.045 -1 0 0 .001 0 0 -1 14 232 250 479 ?
17 475 224 4 18 -0 0 17 475 23 81 1 479 780 480 232 481 0 477 482 483 14 17 257
 482 ?0 232 235 4 5 +0 0 0 232 23 13 23 3 0 0 0 0 0 0 8 15 14 15 5 484 ?485 0 48
6 4 487 -0 0 485 0 23 81 1 484 742 480 15 488 0 0 489 490 14 485 33 489 ?491 15
 492 4 493 -0 0 491 15 23 15 486 6 0 25 15 494 50 487 259 0 15 0 493 0 +0 .01 -.
06 0 -1 0 0 0 1 50 493 284 0 485 487 495 0 +0 .01 0 1 0 0 0 0 1 50 495 301 0 491
 493 278 0 +0 .01 0 0 0 -1 1 0 0 14 491 53 496 ?497 485 498 4 495 -0 0 497 485 2
3 50 278 315 0 497 495 267 0 +0 .01 -.06 0 0 1 -1 0 0 14 497 69 499 ?277 491 500
 4 278 -0 0 277 491 23 81 1 499 745 480 497 501 0 496 502 503 14 277 85 502 ?266
 497 504 4 267 +0 0 266 497 23 15 500 70 0 414 497 505 17 414 0 500 412 506 107
 257 430 0 402 +15 505 80 0 507 497 0 17 507 0 505 508 508 114 124 509 0 510 +17
 508 0 505 507 507 122 127 511 0 0 +17 124 0 468 127 510 122 507 509 0 508 -16 5
09 81 512 ?507 513 511 514 0 0 1 17 510 0 468 124 146 114 423 416 0 0 -15 468 23
6 0 124 458 0 17 146 0 468 510 142 132 515 410 0 516 -17 423 0 468 142 127 132 5
10 416 0 0 +17 142 0 468 146 423 140 517 518 0 515 -17 127 0 468 423 124 114 508
 511 0 507 -16 511 84 519 ?508 509 520 521 0 0 1 81 1 519 623 246 511 0 0 512 52
2 523 16 520 87 522 ?524 511 525 526 0 0 1 31 521 328 0 511 514 526 0 +.02 0 -.0
6 0 0 1 1 0 0 .0055 31 514 325 0 509 527 521 0 +.02 0 -.06 0 0 1 1 0 0 .0055 30
 526 330 0 520 521 528 0 +.003 -.01 -.057 0 0 -1 30 528 333 0 525 526 529 0 +.13
5 -.01 -.057 1 0 0 16 525 90 530 ?531 520 532 528 0 0 1 31 529 335 0 532 528 533
 0 +.135 -.01 -.03 0 -1 0 0 0 -1 .027 16 532 92 534 ?535 525 536 529 0 0 1 30 53
3 337 0 536 529 537 0 +.003 -.01 -.003 -1 0 0 16 536 94 538 ?130 532 259 533 0 0
 1 31 537 340 0 539 533 540 0 +.135 .007 -.03 0 -1 0 0 0 -1 .03 16 539 98 541 ?1
03 259 296 537 0 0 1 31 540 342 0 542 537 543 0 +.135 -.007 -.03 0 1 0 0 0 -1 .0
3 16 542 100 544 ?121 296 518 540 0 0 1 31 543 344 0 518 540 545 0 +.02 0 -.057
 0 0 -1 1 0 0 .0025 16 518 103 546 ?517 542 547 543 0 0 1 30 545 347 0 547 543 5
48 0 +.0175 -306161699786838e-33 -.06 0 0 1 16 547 106 549 ?550 518 551 545 0 0
 1 31 548 349 0 551 545 552 0 +.02 0 -.003 0 0 1 -1 0 0 .0025 16 551 108 553 ?55
4 547 555 548 0 0 1 31 552 351 0 555 548 556 0 +.02 0 -.003 0 0 1 -1 0 0 .0025 1
6 555 110 557 ?558 551 410 552 0 0 1 31 556 352 0 410 552 559 0 +.02 0 -.057 0 0
 -1 1 0 0 .0025 16 410 111 560 ?515 555 374 556 0 0 1 30 559 359 0 341 556 561 0
 +.1275 -306161699786838e-33 -.06 0 0 1 16 341 119 562 ?563 370 332 559 0 0 1 30
 561 368 0 564 559 362 0 +.13 .01 -.047 0 1 0 16 564 129 565 ?172 566 567 561 0
 0 1 30 362 370 0 353 561 568 0 +.12 .01 -.047 0 1 0 30 568 372 0 361 362 569 0
 +.12 .017197684822792 -.047 1 0 0 16 361 133 570 ?571 353 572 568 0 0 1 30 569
 374 0 573 568 574 0 +.13 .017197684822792 -.013 0 -1 -308494481756008e-30 16 57
3 136 575 ?576 577 578 569 0 0 1 30 574 376 0 579 569 580 0 +.12 .01719768482279
2 -.013 1 0 0 16 579 138 581 ?582 583 584 574 0 0 1 30 580 378 0 572 574 585 0 +
.12 .017197684822792 -.013 0 -1 -308494481756008e-30 16 572 140 586 ?587 361 588
 580 0 0 1 31 585 380 0 577 580 589 0 +.13 .017197684822792 -.016 1 0 0 0 0 -1 .
003 16 577 143 590 ?591 592 573 585 0 0 1 30 589 382 0 593 585 594 0 +.12 .01968
3162644057 -.01768 1 0 0 16 593 145 595 ?596 584 597 589 0 0 1 31 594 384 0 583
 589 598 0 +.12 .017197684822792 -.016 1 0 0 0 0 -1 .003 16 583 147 599 ?600 588
 579 594 0 0 1 31 598 386 0 592 594 601 0 +.13 .03791 -.03 -1 0 0 0 0 1 .022 16
 592 150 602 ?603 567 577 598 0 0 1 30 601 388 0 566 598 604 0 +.12 .01968316264
4057 -.04232 1 0 0 16 566 152 605 ?606 597 564 601 0 0 1 31 604 390 0 584 601 60
7 0 +.12 .03791 -.03 -1 0 0 0 0 1 .022 16 584 154 608 ?609 579 593 604 0 0 1 31
 607 392 0 567 604 610 0 +.13 .017197684822792 -.044 1 0 0 0 0 -1 .003 16 567 15
7 611 ?612 564 592 607 0 0 1 31 610 393 0 597 607 613 0 +.12 .017197684822792 -.
044 1 0 0 0 0 -1 .003 16 597 158 614 ?615 593 566 610 0 0 1 30 613 397 0 616 610
 617 0 +.08 .01 -.047 0 1 0 16 616 165 618 ?196 619 620 613 0 0 1 30 617 399 0 6
21 613 622 0 +.07 .01 -.047 0 1 0 16 621 167 623 ?624 578 625 617 0 0 1 30 622 4
01 0 625 617 626 0 +.07 .017197684822792 -.047 1 0 0 16 625 169 627 ?628 621 629
 622 0 0 1 30 626 403 0 630 622 631 0 +.08 .017197684822792 -.013 0 -1 -30849448
1756008e-30 16 630 172 632 ?633 634 635 626 0 0 1 30 631 405 0 636 626 637 0 +.0
7 .017197684822792 -.013 1 0 0 16 636 174 638 ?639 640 641 631 0 0 1 30 637 407
 0 629 631 642 0 +.07 .017197684822792 -.013 0 -1 -308494481756008e-30 16 629 17
6 643 ?644 625 645 637 0 0 1 31 642 409 0 634 637 646 0 +.08 .017197684822792 -.
016 1 0 0 0 0 -1 .003 16 634 179 647 ?648 649 630 642 0 0 1 30 646 411 0 650 642
 651 0 +.07 .019683162644057 -.01768 1 0 0 16 650 181 652 ?653 641 654 646 0 0 1
 31 651 413 0 640 646 655 0 +.07 .017197684822792 -.016 1 0 0 0 0 -1 .003 16 640
 183 656 ?657 645 636 651 0 0 1 31 655 415 0 649 651 658 0 +.08 .03791 -.03 -1 0
 0 0 0 1 .022 16 649 186 659 ?660 620 634 655 0 0 1 30 658 417 0 619 655 661 0 +
.07 .019683162644057 -.04232 1 0 0 16 619 188 662 ?663 654 616 658 0 0 1 31 661
 419 0 641 658 664 0 +.07 .03791 -.03 -1 0 0 0 0 1 .022 16 641 190 665 ?666 636
 650 661 0 0 1 31 664 421 0 620 661 667 0 +.08 .017197684822792 -.044 1 0 0 0 0
 -1 .003 16 620 193 668 ?669 616 649 664 0 0 1 31 667 422 0 654 664 670 0 +.07 .
017197684822792 -.044 1 0 0 0 0 -1 .003 16 654 194 671 ?672 650 619 667 0 0 1 32
 255 670 426 0 673 667 674 0 +.003 .007 -.057 -.707106781186548 0 .7071067811865
48 .707106781186548 0 .707106781186548 .00424264068711928 .003 16 673 201 675 ?3
2 676 677 670 0 0 1 31 674 427 0 676 670 678 0 +.135 .007 -.057 1 0 0 0 0 -1 .00
3 16 676 202 679 ?680 635 673 674 0 0 1 31 678 429 0 681 674 682 0 +.135 .007 -.
003 -1 0 0 0 0 1 .003 16 681 205 683 ?684 677 685 678 0 0 1 32 682 431 0 677 678
 686 0 +.003 .007 -.003 .707106781186548 0 .707106781186548 -.707106781186548 0
 .707106781186548 .00424264068711928 .003 16 677 208 687 ?688 673 681 682 0 0 1
 31 686 434 0 685 682 689 0 +.135 -.007 -.003 -1 0 0 0 0 1 .003 16 685 213 690 ?
691 681 692 686 0 0 1 31 689 435 0 693 686 694 0 +.135 -.007 -.057 -1 0 0 0 0 1
 .003 16 693 214 695 ?696 692 697 689 0 0 1 32 694 437 0 692 689 698 0 +.003 -.0
07 -.003 -.707106781186548 0 -.707106781186548 -.707106781186548 0 .707106781186
548 .00424264068711928 .003 16 692 217 699 ?700 685 693 694 0 0 1 32 698 439 0 6
97 694 425 0 +.003 -.007 -.057 .707106781186548 0 -.707106781186548 -.7071067811
86548 0 -.707106781186548 .00424264068711928 .003 16 697 220 701 ?702 693 703 69
8 0 0 1 31 425 450 0 416 698 704 0 +.0145 -673555739531044e-33 -.057 12246467991
4735e-30 -1 0 -1 -122464679914735e-30 0 .003 31 704 452 0 424 425 705 0 +.0255 -
673555739531044e-33 -.003 -122464679914735e-30 -1 0 1 -122464679914735e-30 0 .00
3 16 424 240 706 ?707 416 708 704 0 0 1 31 705 454 0 251 704 252 0 +.01 0 -.015
 -1 0 0 0 0 1 .001 16 251 243 709 ?710 711 243 705 0 0 1 31 252 457 0 243 705 71
2 0 +.01 0 -.015 -1 0 0 0 0 1 .001 30 712 458 0 708 252 240 0 +.01 -122464679914
736e-33 -.016 -1 0 0 16 708 247 713 ?714 424 715 712 0 0 1 31 240 461 0 228 712
 237 0 +.01 0 -.045 -1 0 0 0 0 1 .001 81 1 713 690 246 708 0 0 706 716 717 17 71
4 0 476 718 221 88 719 708 0 0 +16 715 52 716 ?718 708 711 720 0 0 1 81 1 716 69
1 246 715 0 0 713 721 722 17 718 0 476 90 714 85 723 715 0 0 +16 711 49 721 ?90
 715 251 724 0 0 1 31 720 300 0 715 724 725 0 +0 0 -.015 -1 0 0 0 0 1 .001 31 72
4 297 0 711 253 720 0 +0 0 -.015 -1 0 0 0 0 1 .001 30 725 309 0 726 720 727 0 +0
 .007 0 -1 0 0 16 726 62 728 ?729 302 730 725 0 0 1 30 727 310 0 731 725 732 0 +
0 -.007 0 1 0 0 16 731 63 733 ?734 730 735 727 0 0 1 31 732 311 0 735 727 736 0
 +.02 0 0 0 0 -1 -1 0 0 .0055 16 735 65 737 ?738 731 433 732 0 0 1 31 736 314 0
 433 732 739 0 +.02 0 0 0 0 -1 -1 0 0 .0055 16 433 68 740 ?741 735 430 736 0 0 1
 30 739 323 0 445 736 527 0 +.135 -.007 -.06 -1 0 0 16 445 78 742 ?74 440 513 73
9 0 0 1 30 527 324 0 513 739 514 0 +.135 .007 -.06 1 0 0 16 513 79 743 ?506 445
 509 527 0 0 1 81 1 743 621 246 513 0 0 742 512 744 17 506 0 500 414 745 110 70
 513 0 257 +17 745 0 500 506 74 68 746 747 0 32 -17 70 0 748 749 750 68 506 513
 0 751 -17 257 0 256 103 116 110 414 430 0 750 -15 256 96 0 258 266 0 17 103 0 2
56 297 257 95 112 539 0 752 +17 750 0 748 70 753 110 680 676 0 0 -15 748 200 0 7
49 754 0 17 753 0 748 750 749 39 25 9 0 680 -17 680 0 755 42 112 39 750 676 0 0
 +15 755 204 0 680 756 0 17 42 0 755 757 680 36 758 759 0 760 -17 112 0 755 680
 757 110 103 539 0 506 -18 39 8 0 758 36 48 38 ?1 17 758 0 486 25 760 39 42 759
 0 753 +17 25 0 486 34 758 10 753 9 0 749 +17 760 0 486 758 34 36 35 761 0 684 +
16 759 14 762 ?758 761 763 764 0 0 1 81 1 762 601 246 759 0 0 765 766 767 16 761
 12 765 ?760 26 759 768 0 0 1 16 763 16 766 ?769 759 770 771 0 0 1 31 764 267 0
 759 768 771 0 +.135 .01 -.03 0 1 0 0 0 -1 .027 30 768 265 0 761 772 764 0 +.003
 .01 -.003 1 0 0 30 771 268 0 763 764 773 0 +.12 .01 -.013 0 0 -1 30 773 271 0 7
70 771 774 0 +.12 .01 -.047 1 0 0 16 770 19 775 ?776 763 777 773 0 0 1 30 774 27
3 0 578 773 778 0 +.13 .01 -.013 0 0 -1 16 578 21 779 ?53 573 621 774 0 0 1 30 7
78 275 0 588 774 780 0 +.12 .01 -.013 1 0 0 16 588 23 781 ?782 572 583 778 0 0 1
 30 780 276 0 777 778 783 0 +.07 .01 -.013 0 0 -1 16 777 25 784 ?785 770 786 780
 0 0 1 30 783 279 0 786 780 787 0 +.07 .01 -.047 1 0 0 16 786 28 788 ?789 777 74
7 783 0 0 1 30 787 281 0 635 783 790 0 +.08 .01 -.013 0 0 -1 16 635 30 791 ?65 6
30 676 787 0 0 1 30 790 283 0 645 787 792 0 +.07 .01 -.013 1 0 0 16 645 32 793 ?
794 629 640 790 0 0 1 30 792 285 0 747 790 795 0 +0 .007 -.06 0 -1 0 16 747 35 7
96 ?746 786 797 792 0 0 1 30 795 288 0 797 792 798 0 +0 -.007 -.06 0 0 1 16 797
 38 799 ?800 747 801 795 0 0 1 30 798 290 0 730 795 802 0 +0 .007 0 0 -1 0 16 73
0 40 803 ?804 726 731 798 0 0 1 30 802 292 0 801 798 805 0 +0 .007 -.06 0 0 -1 1
6 801 42 806 ?751 797 807 802 0 0 1 31 805 293 0 239 802 253 0 +0 0 -.045 -1 0 0
 0 0 1 .001 16 239 44 808 ?84 244 228 805 0 0 1 31 253 296 0 244 805 724 0 +0 0
 -.045 -1 0 0 0 0 1 .001 81 1 808 697 246 239 0 0 248 238 809 80 255 1 246 810 8
11 9000 1 1 1 1 1 1 1 1 0 FFFFTFTFFFFFFF3 81 1 248 696 246 244 0 0 242 808 812 8
1 1 238 698 246 228 0 0 808 236 813 84 255 32 809 6719e23e28bab65c75222528928fa0
ce81 1 236 699 246 231 0 0 238 488 814 84 32 813 7b58142a848a980bc75695cc96e6640
581 1 488 700 246 15 0 484 236 815 816 84 32 814 2f05f2e8305306f5793ba4d6f4c47b4
f81 1 815 701 246 485 0 489 488 817 818 84 32 816 0f392416980b6427fb8a2fc0b43e20
9781 1 489 743 480 485 815 0 484 496 819 81 1 817 702 246 491 0 496 815 501 820
 84 32 818 af3192900fbd85a4c76b100b0a917a3e81 1 496 744 480 491 817 0 489 499 82
1 81 1 501 703 246 497 0 499 817 822 823 84 32 820 6e817b2cdddfeb202a9fdeb97f8c3
b1c81 1 822 704 246 277 0 502 501 824 825 84 32 823 651da7cb253ac8b3cd6faf4e27ba
6da081 1 502 746 480 277 822 0 499 275 826 81 1 824 705 246 266 0 275 822 827 82
8 84 32 825 f02914c09c535cb7e484546ab86e044081 1 275 747 480 266 824 0 502 829 8
30 81 1 827 706 246 276 0 829 824 831 832 84 32 828 c494d89e6a55eb453465834b0b34
187014 276 101 829 ?379 266 833 4 268 -0 0 379 266 23 81 1 829 748 480 276 827 0
 275 387 834 81 1 831 707 246 379 0 387 827 835 836 84 32 832 898e17eff5db37b886
4eae8a02ca374c81 1 387 749 480 379 831 0 829 837 838 81 1 835 708 246 388 0 837
 831 839 840 84 32 836 8f6f3424c4a8d6992837ff1972564ed114 388 127 837 ?841 379 8
42 4 380 +0 0 841 379 23 81 1 837 750 480 388 835 0 387 843 844 81 1 839 709 246
 841 0 843 835 845 846 84 32 840 2edf718b2b8c80a40921a3ecdfc30b9214 841 134 843
 ?847 388 848 4 389 +0 0 847 388 23 81 1 843 751 480 841 839 0 837 849 850 81 1
 845 710 246 847 0 849 839 851 852 84 32 846 2bb88a69bcd156acb27d865543f4ea5514
 847 141 849 ?853 841 854 4 855 +0 0 853 841 23 81 1 849 752 480 847 845 0 843 8
56 857 81 1 851 711 246 853 0 856 845 858 859 84 32 852 2e705863a78a5ac2060f2a58
e12ab76414 853 148 856 ?860 847 861 4 862 -0 0 860 847 23 81 1 856 753 480 853 8
51 0 849 863 864 81 1 858 712 246 860 0 863 851 865 866 84 32 859 bcd774c5d6e5d2
95ace0ebb501cad4aa14 860 155 863 ?867 853 868 4 869 +0 0 867 853 23 81 1 863 754
 480 860 858 0 856 870 871 81 1 865 713 246 867 0 870 858 872 873 84 32 866 104a
ca516d24b19e45d1bd7c0245997d14 867 159 870 ?874 860 875 4 876 -0 0 874 860 23 81
 1 870 755 480 867 865 0 863 877 878 81 1 872 714 246 874 0 877 865 879 880 84 3
2 873 a40c1a3a425afa250ba0952ad05060eb14 874 161 877 ?881 867 882 4 883 +0 0 881
 867 23 81 1 877 756 480 874 872 0 870 884 885 81 1 879 715 246 881 0 884 872 88
6 887 84 32 880 397005c3672069f57d916b9963bd7f1214 881 163 884 ?888 874 889 4 89
0 +0 0 888 874 23 81 1 884 757 480 881 879 0 877 891 892 81 1 886 716 246 888 0
 891 879 893 894 84 32 887 deba687527f937e54dd24d200f2d9b8914 888 170 891 ?895 8
81 896 4 897 +0 0 895 881 23 81 1 891 758 480 888 886 0 884 898 899 81 1 893 717
 246 895 0 898 886 900 901 84 32 894 2516d6e785af3a044d297b3aed42e4fc14 895 177
 898 ?902 888 903 4 904 +0 0 902 888 23 81 1 898 759 480 895 893 0 891 905 906 8
1 1 900 718 246 902 0 905 893 907 908 84 32 901 116a76ec09b90814c24630feb7c2a058
14 902 184 905 ?909 895 910 4 911 -0 0 909 895 23 81 1 905 760 480 902 900 0 898
 912 913 81 1 907 719 246 909 0 912 900 914 915 84 32 908 302690fb52adca79538f9f
ce0d6fa2a714 909 191 912 ?916 902 917 4 918 +0 0 916 902 23 81 1 912 761 480 909
 907 0 905 919 920 81 1 914 720 246 916 0 919 907 921 922 84 32 915 f589a1eb4baf
787a761bf2300f6d08a714 916 195 919 ?923 909 924 4 925 -0 0 923 909 23 81 1 919 7
62 480 916 914 0 912 926 927 81 1 921 721 246 923 0 926 914 928 929 84 32 922 5d
402bb8144c0b9dd221d65c9f772b8a14 923 197 926 ?754 916 930 4 931 +0 0 754 916 23
 81 1 926 763 480 923 921 0 919 932 933 81 1 928 722 246 754 0 932 921 934 935 8
4 32 929 0b925dd234b9b2ebe2232c7a8116a22114 754 199 932 ?756 923 748 4 936 +0 0
 756 923 23 81 1 932 764 480 754 928 0 926 937 938 81 1 934 723 246 756 0 937 92
8 939 940 84 32 935 b1277f84b3a1abf015e04ae330010a9d14 756 203 937 ?941 754 755
 4 942 +0 0 941 754 23 81 1 937 765 480 756 934 0 932 943 944 81 1 939 724 246 9
41 0 943 934 945 946 84 32 940 3c7d4fd394b803c80786e989fbcbe89a14 941 206 943 ?9
47 756 31 4 948 +0 0 947 756 23 81 1 943 766 480 941 939 0 937 949 950 81 1 945
 725 246 947 0 949 939 951 952 84 32 946 9efe237e4a98fba497d3a3d8e80cc33114 947
 209 949 ?953 941 954 4 955 +0 0 953 941 23 81 1 949 767 480 947 945 0 943 956 9
57 81 1 951 726 246 953 0 956 945 958 959 84 32 952 494effb7e2b18a38bf6d754b86ce
204814 953 211 956 ?960 947 961 4 962 +0 0 960 947 23 81 1 956 768 480 953 951 0
 949 963 964 81 1 958 727 246 960 0 963 951 965 966 84 32 959 c407afcb11fe37feb8
45dd40e22f1f5e14 960 215 963 ?967 953 968 4 969 +0 0 967 953 23 81 1 963 769 480
 960 958 0 956 970 971 81 1 965 728 246 967 0 970 958 972 973 84 32 966 171f6a21
24decebc93e5a42adb1970d214 967 218 970 ?974 960 975 4 976 +0 0 974 960 23 81 1 9
70 770 480 967 965 0 963 977 978 81 1 972 729 246 974 0 977 965 979 980 84 32 97
3 95cc41d64d4e985158bd7e89af260fc414 974 221 977 ?317 967 981 4 318 +0 0 317 967
 23 81 1 977 771 480 974 972 0 970 982 983 81 1 979 730 246 317 0 982 972 984 98
5 84 32 980 d0bc35818ab9041d08f52b943da24a4414 317 223 982 ?304 974 986 4 305 +0
 0 304 974 23 81 1 982 772 480 317 979 0 977 315 987 81 1 984 731 246 304 0 315
 979 988 989 84 32 985 7bfeca2776cf402aa499649853b5782881 1 315 773 480 304 984
 0 982 990 991 81 1 988 732 246 316 0 990 984 992 993 84 32 989 36e26a0da04a64ed
4e7ab6ad359e15a314 316 229 990 ?405 304 411 4 306 +0 0 405 304 23 81 1 990 774 4
80 316 988 0 315 457 994 81 1 992 733 246 405 0 457 988 995 996 84 32 993 4598a0
ea629eef998ac25a080630accd81 1 457 775 480 405 992 0 990 466 997 81 1 995 734 24
6 458 0 466 992 998 999 84 32 996 53c3d31e8b9237f1a185148ab835f06f81 1 466 776 4
80 458 995 0 457 470 1000 81 1 998 735 246 467 0 470 995 1001 1002 84 32 999 8e6
8333cc8f31b2d6257c1894449b16781 1 470 777 480 467 998 0 466 474 1003 81 1 1001 7
36 246 471 0 474 998 1004 1005 84 32 1002 d6eae6b0f8c84d4f3c6ab3962b136b3481 1 4
74 778 480 471 1001 0 470 477 1006 81 1 1004 737 246 475 0 477 1001 481 1007 84
 32 1005 de2bc20d884c863fdb6bfba80ce07e4c81 1 477 779 480 475 1004 0 474 479 100
8 81 1 481 738 246 232 0 479 1004 1009 1010 84 32 1007 b5f5b429b37d43302ed496059
7e97cf381 1 1009 739 246 17 0 482 481 0 1011 84 32 1010 772b4720641ca83dd1e17b7a
fa3b3baa81 1 482 781 480 17 1009 0 479 0 1012 84 32 1011 47d67a483b0d18fb02b88df
1f393741580 1 480 0 1013 8001 0 0 0 0 3 5 0 0 0 FFFFTFTFFFFFFF2 83 255 3 1012 .9
490196 .9490196 .9490196 79 255 15 1013 SDL/TYSA_COLOUR83 3 1008 .9490196 .94901
96 .9490196 83 3 1006 .9490196 .9490196 .9490196 83 3 1003 .9490196 .9490196 .94
90196 83 3 1000 .9490196 .9490196 .9490196 83 3 997 .9490196 .9490196 .9490196 8
3 3 994 .9490196 .9490196 .9490196 83 3 991 .9490196 .9490196 .9490196 83 3 987
 .9490196 .9490196 .9490196 15 986 224 0 1014 317 0 17 1014 0 986 1015 169 99 29
4 421 0 0 -17 1015 0 986 1016 1014 91 1017 1018 0 1019 -17 169 0 986 1014 164 15
5 346 344 0 352 -17 294 0 293 167 101 155 1014 421 0 0 +16 421 225 1020 ?294 703
 408 1021 0 0 1 81 1 1020 685 246 421 0 0 1022 418 1023 16 703 226 1022 ?295 697
 421 1024 0 0 1 133 1021 491 0 421 1025 1026 0 +1026 .135 .0022912878474779 0 .1
322727272727272 .00104149447612633 -.003 1.570796326794895 3.141592653589795 31
 1025 490 0 1 1027 1021 1028 +.13 0 0 0 0 -1 -1 0 0 .0055 31 1026 492 0 1 1021 1
029 1030 +.135 .0022912878474779 -.003 .416597790450523 -.909090909090913 0 .909
090909090913 .416597790450523 0 .003 133 1029 493 0 807 1026 1031 0 +1031 .135 -
.007 0 .135 -.0022912878474779 0 -.0047087121525221 0 141 1030 1021 1030 1030 10
26 16 807 55 1032 ?1019 801 1018 1029 0 0 1 30 1031 494 0 1 1029 1024 1033 +.135
 -.0022912878474779 0 0 1 0 133 1024 495 0 703 1031 395 0 +395 .1322727272727272
 -.00104149447612632 -.003 .135 -.002291287847477885 0 1078520768856854e-44 1.57
079632679489 141 1033 1029 1033 1033 1031 31 395 496 0 1 1024 392 1034 +.135 -.0
0229128784747792 -.003 .416597790450533 .909090909090908 -108194814176551e-28 -.
909090909090908 .416597790450533 0 .003 141 1034 1024 1034 1034 395 81 1 1032 60
9 246 807 0 0 806 1035 1036 17 1019 0 498 1017 734 91 1037 807 0 295 +16 1018 58
 1035 ?1017 807 302 1027 0 0 1 81 1 1035 610 246 1018 0 0 1032 1038 1039 17 1017
 0 498 1040 1019 99 1015 1018 0 1014 +16 302 60 1038 ?1040 1018 726 298 0 0 1 13
3 1027 489 0 1018 303 1025 0 +1025 .135 -.0022912878474779 0 .135 .0022912878474
779 0 3.571292319741215 8.99507829461796 30 303 488 0 1 298 1027 1041 +.135 .007
 0 0 1 0 141 1041 298 1041 1041 303 81 1 1038 611 246 302 0 0 1035 728 1042 17 1
040 0 498 729 1017 95 297 302 0 757 +15 498 54 0 1019 491 1043 17 729 0 498 804
 1040 71 752 726 0 1044 +17 297 0 256 98 103 99 1040 302 0 1017 -17 757 0 755 11
2 42 95 684 681 0 0 -17 684 0 954 35 752 36 757 681 0 0 +15 954 210 0 688 947 0
 17 35 0 954 688 684 29 760 761 0 34 -17 752 0 954 684 688 95 729 726 0 1040 -17
 688 0 954 752 35 71 33 677 0 0 +17 33 0 31 28 1044 29 688 677 0 0 -15 31 207 0
 32 941 0 17 1044 0 31 33 32 71 751 801 0 688 -17 32 0 31 1044 28 68 749 673 0 0
 +17 751 0 492 746 79 68 1044 801 0 745 +15 492 34 0 746 485 1045 17 746 0 492 8
00 751 60 745 747 0 702 +17 79 0 492 751 800 71 804 730 0 729 -17 800 0 492 79 7
46 75 1046 797 0 700 +17 804 0 498 734 729 75 79 730 0 800 +17 734 0 498 1019 80
4 92 77 731 0 1037 +17 77 0 968 1047 691 75 734 731 0 804 -17 1037 0 256 121 98
 92 1019 807 0 691 -17 121 0 256 258 1037 113 94 542 0 1048 +17 98 0 256 1037 29
7 91 101 296 282 1015 +17 691 0 968 77 139 92 1049 685 0 0 +15 968 216 0 691 960
 0 17 139 0 968 691 1047 131 130 536 0 535 -17 1049 0 961 137 94 131 691 685 0 0
 -15 961 212 0 94 953 0 17 137 0 961 1050 1049 135 535 532 0 531 -17 94 0 961 10
49 1050 92 121 542 0 734 -17 1050 0 961 94 137 113 696 693 0 0 -17 696 0 981 134
 1048 135 1050 693 0 0 +15 981 222 0 696 974 0 17 134 0 981 702 696 125 531 525
 0 524 -17 1048 0 981 696 702 113 74 445 0 444 -17 702 0 981 1048 134 60 1051 69
7 0 0 +17 74 0 500 745 444 60 1048 445 0 1046 +17 444 0 500 74 412 113 258 440 0
 1050 +17 412 0 500 444 414 117 260 413 0 407 +17 258 0 256 116 121 117 444 440
 0 412 -17 407 0 411 260 158 117 403 408 0 0 -17 158 0 411 407 358 144 373 370 0
 357 -17 373 0 351 563 357 159 158 370 0 358 +15 351 113 0 357 379 0 17 563 0 35
1 340 373 162 161 341 0 346 +17 340 0 351 352 563 165 164 332 0 1016 +17 161 0 3
51 154 346 159 563 341 0 373 -17 164 0 986 169 1016 162 340 332 0 563 -17 1016 0
 986 164 1015 165 295 703 0 0 -17 295 0 293 101 167 91 1016 703 0 0 +15 293 228
 0 295 304 0 17 167 0 293 295 294 165 352 342 327 340 -17 1046 0 975 1051 700 60
 800 797 0 746 -15 975 219 0 700 967 0 17 1051 0 975 1052 1046 125 702 697 0 0 -
17 700 0 975 1046 1052 75 1047 692 0 0 +17 1052 0 975 700 1051 128 524 520 0 104
7 -17 1047 0 968 139 77 128 700 692 0 0 -17 524 0 504 531 130 125 1052 520 0 105
1 +15 504 86 0 524 277 0 17 531 0 504 535 524 135 134 525 0 696 +17 130 0 504 52
4 535 128 139 536 0 1052 +17 535 0 504 130 531 131 137 532 0 1049 +16 296 99 105
3 5e-7 98 539 542 0 0 0 1 81 1 1053 630 246 296 0 0 541 544 1054 81 1 541 629 24
6 539 0 0 1055 1053 1056 81 1 544 631 246 542 0 0 1053 546 1057 84 32 1054 847c3
169ff8f3e81d7df9a5075dd048f81 1 546 632 246 518 0 0 544 549 1058 84 32 1057 65e8
bceb2b56760ffe17753b18fbc6fa81 1 549 633 246 547 0 0 546 553 1059 84 32 1058 709
1b1a35c6bfce272bceceac62c9d0781 1 553 634 246 551 0 0 549 557 1060 84 32 1059 df
1c7704ee56430a22b42d12b43f070181 1 557 635 246 555 0 0 553 560 1061 84 32 1060 3
06477141ec46a613628a986264c048f81 1 560 636 246 410 0 0 557 409 1062 84 32 1061
 3dee042049224c105781f868969d176781 1 409 637 246 374 0 0 560 372 1063 84 32 106
2 7905de65594f4ba63efad9bab8dd606281 1 372 638 246 370 0 0 409 562 1064 84 32 10
63 196886b550d9a6f2ef6baa2048e2c87d81 1 562 639 246 341 0 0 372 339 1065 84 32 1
064 7889fa6ee7b9b35242383c6f93fa7ee681 1 339 640 246 332 0 0 562 348 1066 84 32
 1065 455aa8482334615a0e250db9fceb415481 1 348 641 246 342 0 0 339 345 1067 84 3
2 1066 775e4abb6a363e0cef2fd5f1cd76f70584 32 1067 f1719bcab086f7c3475b2ccc252599
b381 1 1055 628 246 259 0 0 538 541 1068 84 32 1056 bba33dc391985d36399ae37ac34d
632e16 259 97 1055 5e-7 116 536 539 0 0 0 1 81 1 538 627 246 536 0 0 534 1055 10
69 84 32 1068 73fdd4d47744647b2191b44f58b520bf81 1 534 626 246 532 0 0 530 538 1
070 84 32 1069 0c57287c1374451faefaf260a9b6ba2381 1 530 625 246 525 0 0 522 534
 1071 84 32 1070 2e502774ee9a3e985cfb1c1d3db4ff6081 1 522 624 246 520 0 0 519 53
0 1072 84 32 1071 77d92594d94c9dfe82986cfb8b4f329084 32 1072 7e29e029b62d47cda80
ee79f4d28e77c15 1045 43 0 81 485 1073 17 81 0 1045 241 241 72 84 239 0 233 -15 1
073 48 0 87 485 0 17 87 0 1073 723 723 85 90 711 0 718 -17 723 0 1073 87 87 88 7
18 715 0 714 -17 90 0 476 719 718 88 87 711 0 723 +15 476 242 0 219 471 0 17 719
 0 476 219 90 220 714 708 0 0 -17 219 0 476 221 719 217 710 251 0 250 -17 221 0
 476 714 219 220 250 243 0 710 -17 710 0 478 250 250 220 219 251 0 719 +17 250 0
 478 710 710 217 221 243 0 0 +15 478 249 0 710 475 0 17 241 0 1045 81 81 82 233
 244 0 230 -17 233 0 224 84 230 72 241 244 0 0 +17 749 0 748 753 70 10 32 673 0
 0 -17 34 0 486 760 25 29 28 26 0 33 +16 26 10 1074 ?34 9 761 772 0 0 1 81 1 107
4 599 246 26 0 0 24 765 1075 30 772 263 0 26 27 768 0 +.003 .01 -.057 0 0 1 30 2
7 260 0 9 0 772 0 +.135 .01 -.057 -1 0 0 81 1 24 598 246 9 0 0 0 1074 1076 81 1
 765 600 246 761 0 0 1074 762 1077 84 32 1075 d7ea98a09217ae19dad685336a37a9d084
 32 1077 d859ba57a103d9835a16bb1f00e88ced84 32 1076 0436bd7e4d6aaf5c37ece246831f
81fc15 1043 64 0 738 491 0 17 738 0 1043 741 741 96 106 735 0 1078 +17 741 0 104
3 738 738 104 109 433 0 0 +17 106 0 472 109 1078 104 738 735 0 741 -17 1078 0 47
2 106 151 96 707 424 0 0 -15 472 239 0 106 467 0 17 151 0 472 1078 149 143 558 5
55 0 554 -17 707 0 472 149 109 143 1078 424 0 0 +17 149 0 472 151 707 147 554 55
1 0 550 -17 109 0 472 707 106 96 741 433 0 738 -17 554 0 833 558 550 143 149 551
 0 707 +17 550 0 833 554 517 147 516 547 0 558 +15 833 102 0 517 276 0 17 517 0
 833 550 515 132 142 518 0 423 +17 516 0 833 515 558 132 550 547 0 517 -17 558 0
 833 516 554 147 151 555 0 0 +17 515 0 833 517 516 140 146 410 0 0 +81 1 728 612
 246 726 0 0 1038 803 1079 84 32 1042 a13f5b60e7ced79996d6c4256e2ae4ee81 1 803 6
13 246 730 0 0 728 733 1080 84 32 1079 5cb5a16cddbf8e014f2050b524aaca0681 1 733
 614 246 731 0 0 803 737 1081 84 32 1080 039038e3cf18fc8957647c66e6e33dc081 1 73
7 615 246 735 0 0 733 740 1082 84 32 1081 f0496e4e5ea6f4a2309b6f61402877c181 1 7
40 616 246 433 0 0 737 432 1083 84 32 1082 660f913651cc646df628f4165dfdf5c281 1
 432 617 246 430 0 0 740 439 1084 84 32 1083 929a0daeb371a8dabdefce63def4a02481
 1 439 618 246 413 0 0 432 443 1085 84 32 1084 6b62dbc6ae2922dce038c6dd3b249fb58
1 1 443 619 246 440 0 0 439 742 1086 84 32 1085 fd523c441b29c01c057eea11413b4476
81 1 742 620 246 445 0 0 443 743 1087 84 32 1086 7b6455cec49831e06988065973872e3
784 32 1087 9bd27ace0426f8b6941d7d934a0834bf84 32 1039 228db731838d8ef1beb00263f
05157ee81 1 806 608 246 801 0 0 799 1032 1088 84 32 1036 b84076b3a72bdcfb5b08473
5b819c38781 1 799 607 246 797 0 0 796 806 1089 84 32 1088 54cd2e0dceb987ad1254c3
c9ff3c96cf81 1 796 606 246 747 0 0 788 799 1090 84 32 1089 3196585a3bfa7a325390a
19d606f9bd681 1 788 605 246 786 0 0 784 796 1091 84 32 1090 6c69e97c755b0685e69e
25b559bcc7cd81 1 784 604 246 777 0 0 775 788 1092 84 32 1091 fa430240df3c94a1f18
fdab888dacf6181 1 775 603 246 770 0 0 766 784 1093 84 32 1092 17b5a8dca6af75804a
587b3f106baef181 1 766 602 246 763 0 0 762 775 1094 84 32 1093 f6fe326ef6b4239ca
999823655100fd384 32 1094 d7e60098fbb6b30be43ea42d5a28322f141 1028 1027 1028 102
8 1025 81 1 1022 684 246 703 0 0 701 1020 1095 81 1 701 683 246 697 0 0 695 1022
 1096 84 32 1095 73808ee41bd5565e8b121b231ceed22081 1 695 682 246 693 0 0 699 70
1 1097 84 32 1096 a076722949927d505e75102fef67608c81 1 699 681 246 692 0 0 690 6
95 1098 84 32 1097 485606dbe2554257f3f48f5eac9086a081 1 690 680 246 685 0 0 683
 699 1099 84 32 1098 6ed5846dc760e1c76fc9cc2dee150f6681 1 683 679 246 681 0 0 68
7 690 1100 84 32 1099 94a0893cca672ba98d516d13b3477da981 1 687 678 246 677 0 0 6
75 683 1101 84 32 1100 b9a5bf244ba24a685afbbe674ac0d8c081 1 675 677 246 673 0 0
 679 687 1102 84 32 1101 e6eedd260820cd148b50434d5299698b81 1 679 676 246 676 0
 0 791 675 1103 84 32 1102 a21c9af56349d83db569e73f10bf962c81 1 791 675 246 635
 0 0 632 679 1104 84 32 1103 5e65ab835b9c7dbccae10f161fa2c1c281 1 632 674 246 63
0 0 0 647 791 1105 84 32 1104 be687727aeb6c9600e0cf9b4fd83c74581 1 647 673 246 6
34 0 0 659 632 1106 84 32 1105 e28be4caaf2b472484d07b47d928dab381 1 659 672 246
 649 0 0 668 647 1107 84 32 1106 2621994b5e3590748f914c740f9d059581 1 668 671 24
6 620 0 0 618 659 1108 84 32 1107 1d3c5abd5c190f90104f40a0358def4b81 1 618 670 2
46 616 0 0 662 668 1109 84 32 1108 be5f5ef03c2e4172e49a373d108526a281 1 662 669
 246 619 0 0 671 618 1110 84 32 1109 7d5b87fa596d4714078673b13f6874cc81 1 671 66
8 246 654 0 0 652 662 1111 84 32 1110 e9be2c6d503f0340973f701d8fccaac981 1 652 6
67 246 650 0 0 665 671 1112 84 32 1111 ae99ff413ba74627aa60ca508e3741d481 1 665
 666 246 641 0 0 638 652 1113 84 32 1112 45b12293d89f489df9d037b5c0e2e16081 1 63
8 665 246 636 0 0 656 665 1114 84 32 1113 bbbc3c37f40b8cc03a860e722cf16db281 1 6
56 664 246 640 0 0 793 638 1115 84 32 1114 571909f2cd71680ef5a1256573e5f08c81 1
 793 663 246 645 0 0 643 656 1116 84 32 1115 6b15fd0862e3d2026713b0b15e4e13ad81
 1 643 662 246 629 0 0 627 793 1117 84 32 1116 b7700536f3bf4fc9229723ee36cc81a88
1 1 627 661 246 625 0 0 623 643 1118 84 32 1117 84a0f7731f9c65f21c49f99d5348f6b8
81 1 623 660 246 621 0 0 779 627 1119 84 32 1118 9ccb61b4f878b2f41c3ad28dae7108b
381 1 779 659 246 578 0 0 575 623 1120 84 32 1119 61139901e91735273e643dda16a94a
f681 1 575 658 246 573 0 0 590 779 1121 84 32 1120 597495751278621e91b3ae6fe6fbb
38a81 1 590 657 246 577 0 0 602 575 1122 84 32 1121 bb61a2f4134f775d12d3320ffb84
4f4081 1 602 656 246 592 0 0 611 590 1123 84 32 1122 4c1c5fbc422d18665fca3b21178
f4a8081 1 611 655 246 567 0 0 565 602 1124 84 32 1123 56f481e221d7d63186b12580a0
499f9481 1 565 654 246 564 0 0 605 611 1125 84 32 1124 3b03b9e53263c27050c7cc84a
df970b681 1 605 653 246 566 0 0 614 565 1126 84 32 1125 8e3189192016420896975ed6
e73f127a81 1 614 652 246 597 0 0 595 605 1127 84 32 1126 320aeaf8e2a87fc42c19303
37abd6e3d81 1 595 651 246 593 0 0 608 614 1128 84 32 1127 e6517ce5919afaf8dc6c4a
abd8acf8f781 1 608 650 246 584 0 0 581 595 1129 84 32 1128 3eee867b99c66be571d3f
c8a8bf5cd2981 1 581 649 246 579 0 0 599 608 1130 84 32 1129 481091cf62de2e5fd2ad
9d4c7fb587fc81 1 599 648 246 583 0 0 781 581 1131 84 32 1130 edc0c089f62a4783990
e186261bb641281 1 781 647 246 588 0 0 586 599 1132 84 32 1131 7071ead04b8838b6a1
51dc3b6a04250b81 1 586 646 246 572 0 0 570 781 1133 84 32 1132 63e492ddfe3eb2697
82bf414da6b79cb81 1 570 645 246 361 0 0 355 586 1134 84 32 1133 12c3bea3458ffcb0
df8998a63de6be5f81 1 355 644 246 353 0 0 349 570 1135 84 32 1134 e523680f4009f5e
85bd3faedf256f69184 32 1135 7cf8cb49e8e2050a6e0300a972aad8f481 1 418 686 246 408
 0 0 1020 415 1136 84 32 1023 9b206c39a303dfee6681242d7640e08284 32 1136 d1d9fbe
7cf7de26b79d355893cdce5e783 3 983 .9490196 .9490196 .9490196 51 318 440 0 974 97
6 305 0 +0 -.007 -.057 1 0 0 .003 0 0 1 51 976 438 0 967 969 318 0 +.003 -.007 0
 0 0 -1 .003 1 0 0 51 969 436 0 960 962 976 0 +0 -.007 -.003 -1 0 0 .003 0 0 -1
 54 962 433 0 953 955 969 0 +.135 -.007 -.03 0 -1 0 .027 .003 0 0 1 51 955 432 0
 947 948 962 0 +0 .007 -.003 1 0 0 .003 0 0 1 51 948 430 0 941 942 955 0 +.003 .
007 -.06 0 0 1 .003 -1 0 0 54 942 428 0 756 936 948 0 +.135 .007 -.03 0 -1 0 .02
7 .003 0 0 1 51 936 425 0 754 931 942 0 +0 .007 -.057 -1 0 0 .003 0 0 -1 50 931
 424 0 923 925 936 0 +.08 .017197684822792 -.044 1 0 0 0 0 1 50 925 423 0 916 91
8 931 0 +.07 .017197684822792 -.044 1 0 0 0 0 1 51 918 420 0 909 911 925 0 +.07
 .017197684822792 -.044 1 0 0 .003 0 0 1 51 911 414 0 902 904 918 0 +.07 .03791
 -.03 1 0 0 .022 0 0 1 51 904 408 0 895 897 911 0 +.07 .017197684822792 -.016 1
 0 0 .003 0 0 1 50 897 402 0 888 890 904 0 +.07 .01 -.013 0 -241011313871881e-30
 1 -1 0 0 50 890 396 0 881 883 897 0 +.07 .01 -.047 0 0 -1 1 0 0 50 883 395 0 87
4 876 890 0 +.13 .017197684822792 -.044 1 0 0 0 0 1 50 876 394 0 867 869 883 0 +
.12 .017197684822792 -.044 1 0 0 0 0 1 51 869 391 0 860 862 876 0 +.12 .01719768
4822792 -.044 1 0 0 .003 0 0 1 51 862 385 0 853 855 869 0 +.12 .03791 -.03 1 0 0
 .022 0 0 1 51 855 379 0 847 389 862 0 +.12 .017197684822792 -.016 1 0 0 .003 0
 0 1 50 389 373 0 841 380 855 0 +.12 .01 -.013 0 -241011313871881e-30 1 -1 0 0 8
3 3 978 .9490196 .9490196 .9490196 83 3 971 .9490196 .9490196 .9490196 83 3 964
 .9490196 .9490196 .9490196 83 3 957 .9490196 .9490196 .9490196 83 3 950 .949019
6 .9490196 .9490196 83 3 944 .9490196 .9490196 .9490196 83 3 938 .9490196 .94901
96 .9490196 83 3 933 .9490196 .9490196 .9490196 15 930 198 0 196 923 0 17 196 0
 930 669 65 194 1137 616 0 628 +17 669 0 930 660 196 211 1138 620 0 0 +17 65 0 9
30 196 633 63 67 635 0 789 +17 1137 0 889 62 628 63 196 616 0 0 -17 628 0 889 11
37 624 194 199 625 0 1138 +15 889 164 0 1137 881 0 17 624 0 889 628 62 193 1139
 621 0 1140 +17 199 0 917 672 1138 193 628 625 0 624 -17 1138 0 917 199 663 194
 669 620 0 0 -15 917 192 0 1138 909 0 17 663 0 917 1138 672 211 216 619 0 669 +1
7 672 0 917 663 199 214 1140 654 0 0 +17 216 0 910 666 213 214 663 619 0 1141 -1
5 910 185 0 213 902 0 17 666 0 910 653 216 208 1141 641 0 0 +17 213 0 910 216 65
3 211 660 649 0 663 -17 1141 0 924 1140 1142 214 666 641 0 672 -15 924 196 0 113
9 916 0 17 1140 0 924 1139 1141 193 672 654 0 0 -17 1142 0 924 1141 1143 208 657
 640 0 666 -17 1143 0 924 1142 1144 202 644 629 0 657 -17 657 0 903 639 210 202
 1142 640 0 0 +15 903 178 0 207 895 0 17 639 0 903 207 657 197 204 636 0 648 +17
 210 0 903 657 207 208 653 650 0 1142 -17 207 0 903 210 639 205 648 634 0 653 -1
7 653 0 910 213 666 205 210 650 0 660 +17 660 0 930 648 669 205 213 649 0 0 +17
 648 0 930 633 660 197 207 634 0 0 +17 633 0 930 65 648 59 201 630 0 0 +17 201 0
 896 204 794 197 633 630 0 639 -15 896 171 0 201 888 0 17 204 0 896 644 201 202
 639 636 0 1143 -17 794 0 896 201 644 59 58 645 0 633 +17 644 0 896 794 204 56 1
143 629 0 0 +17 58 0 1145 785 67 56 794 645 0 1144 -15 1145 24 0 785 15 0 17 785
 0 1145 789 58 47 1144 777 0 1139 +17 67 0 1145 58 789 59 65 635 0 794 -17 1144
 0 924 1143 1139 56 785 777 0 644 -17 1139 0 924 1144 1140 47 624 621 0 0 -17 78
9 0 1145 67 785 63 62 786 0 1137 +17 62 0 889 624 1137 47 789 786 0 785 -83 3 92
7 .9490196 .9490196 .9490196 83 3 920 .9490196 .9490196 .9490196 83 3 913 .94901
96 .9490196 .9490196 83 3 906 .9490196 .9490196 .9490196 83 3 899 .9490196 .9490
196 .9490196 83 3 892 .9490196 .9490196 .9490196 83 3 885 .9490196 .9490196 .949
0196 15 882 162 0 172 874 0 17 172 0 882 612 53 170 1146 564 0 571 +17 612 0 882
 603 172 187 1147 567 0 0 +17 53 0 882 172 576 51 55 578 0 776 +17 1146 0 842 50
 571 51 172 564 0 0 -17 571 0 842 1146 360 170 175 361 0 1147 +15 842 128 0 1146
 388 0 17 360 0 842 571 50 156 1148 353 0 1149 +17 175 0 868 615 1147 156 571 36
1 0 360 -17 1147 0 868 175 606 170 612 567 0 0 -15 868 156 0 1147 860 0 17 606 0
 868 1147 615 187 192 566 0 612 +17 615 0 868 606 175 190 1149 597 0 0 +17 192 0
 861 609 189 190 606 566 0 1150 -15 861 149 0 189 853 0 17 609 0 861 596 192 184
 1150 584 0 0 +17 189 0 861 192 596 187 603 592 0 606 -17 1150 0 875 1149 1151 1
90 609 584 0 615 -15 875 160 0 1148 867 0 17 1149 0 875 1148 1150 156 615 597 0
 0 -17 1151 0 875 1150 1152 184 600 583 0 609 -17 1152 0 875 1151 1153 178 587 5
72 0 600 -17 600 0 854 582 186 178 1151 583 0 0 +15 854 142 0 183 847 0 17 582 0
 854 183 600 173 180 579 0 591 +17 186 0 854 600 183 184 596 593 0 1151 -17 183
 0 854 186 582 181 591 577 0 596 -17 596 0 861 189 609 181 186 593 0 603 +17 603
 0 882 591 612 181 189 592 0 0 +17 591 0 882 576 603 173 183 577 0 0 +17 576 0 8
82 53 591 46 177 573 0 0 +17 177 0 848 180 782 173 576 573 0 582 -15 848 135 0 1
77 841 0 17 180 0 848 587 177 178 582 579 0 1152 -17 782 0 848 177 587 46 45 588
 0 576 +17 587 0 848 782 180 43 1152 572 0 0 +17 45 0 494 769 55 43 782 588 0 11
53 -15 494 15 0 769 15 1145 17 769 0 494 776 45 48 1153 763 0 1148 +17 55 0 494
 45 776 46 53 578 0 782 -17 1153 0 875 1152 1148 43 769 763 0 587 -17 1148 0 875
 1153 1149 48 360 353 0 0 -17 776 0 494 55 769 51 50 770 0 1146 +17 50 0 842 360
 1146 48 776 770 0 769 -83 3 878 .9490196 .9490196 .9490196 83 3 871 .9490196 .9
490196 .9490196 83 3 864 .9490196 .9490196 .9490196 83 3 857 .9490196 .9490196 .
9490196 83 3 850 .9490196 .9490196 .9490196 83 3 844 .9490196 .9490196 .9490196
 83 3 838 .9490196 .9490196 .9490196 83 3 834 .9490196 .9490196 .9490196 83 3 83
0 .9490196 .9490196 .9490196 83 3 826 .9490196 .9490196 .9490196 83 3 821 .94901
96 .9490196 .9490196 83 3 819 .9490196 .9490196 .9490196 84 32 812 671d65d435355
3b975ca2c2b7c0aa05579 15 811 UGS/ObjectState84 32 767 c24a1758779a7fa24f0cbbdfb5
8e236e81 1 512 622 246 509 0 0 743 519 1154 84 32 744 8d3371fef9c0ac1caffe6a85ce
79b8ad84 32 1154 99248c3aabfc6b945422f51830e64d3181 1 721 692 246 711 0 0 716 70
9 1155 81 1 709 693 246 251 0 0 721 247 1156 84 32 1155 a6543056411bc0162c46a3b6
f63fe6b681 1 247 694 246 243 0 0 709 242 1157 84 32 1156 62f3488998087f80af6adb9
598c7f98784 32 1157 388496f71aede28d07253e46acc5425f84 32 722 61b23484f61ac37ab6
6774d7517e581181 1 706 689 246 424 0 0 419 713 1158 84 32 717 9acbd010086c5527e9
e1c0d2e95f4dee81 1 419 688 246 416 0 0 415 706 1159 84 32 1158 18be990c416afe9c4
aefc5e9d436e2b184 32 1159 8c2be052158ab3483a7a8dd9f215c12684 32 523 a91178261297
337bec2030e81727efb383 3 503 .9490196 .9490196 .9490196 83 3 490 .9490196 .94901
96 .9490196 83 3 483 .9490196 .9490196 .9490196 84 32 420 41ddacb453bc61895a6238
ee1399504f17 119 0 401 403 402 117 116 259 261 258 -141 366 365 366 366 363 134
 367 0 0 0 0 0 0 +1160 1161 136 1160 1 2 2 2 5 FFF1 1162 1163 1164 135 1161 2 0
 45 4 1162 1 1 0 1 127 2 1163 2 2 128 2 1164 0 1 84 32 356 aea7bc00b61f1e6c90be8
418297b379c84 32 350 3687eb5681e3c86980676dc1eb0ec1f684 32 249 cc92e6f5a1c0ab4cd
a3074ad0e0ecb6f19 16 1 0 1 0 8 4 S0 141 20 19 20 20 6 74 4 CI16 index_map_offset
0 0 1 dCCZ20 14 5 0 0 1165 1009 482 12 2 0 0 0 0 0 0 0 0 0 0 0 0 0 0 0 81 2 1165
 590 1166 1 0 12 0 0 1167 1168 81 1 12 782 1169 1 1165 2 0 0 1170 80 1 1169 1171
 1172 9000 0 0 0 0 3 5 0 0 0 FFTFFFFFFFFFFF1 82 255 1 1170 15 79 24 1172 UG2/BOD
Y_COLOR_ATTRIBUTE80 2 1166 1173 1174 8004 0 0 0 0 3 5 0 0 0 FFTFFFFFFFFFFF2 3 83
 1 1167 7830.64 84 8 1168 Kg/Cu M 79 16 1174 SDL/TYSA_DENSITY80 1 11 1175 1176 8
038 0 0 0 0 0 0 0 0 0 TTTTTTTTTTTTTF10 98 255 6 13 83 79 76 73 68 49 79 14 1176
 SDL/TYSA_UNAME1 0 
