**ABCDEFGHIJKLMNOPQRSTUVWXYZabcdefghijklmnopqrstuvwxyz**************************
**PARASOLID !"#$%&'()*+,-./:;<=>?@[\]^_`{|}~0123456789**************************
**PART1;
MC=x64/Windows NT;
MC_MODEL=genuineintel family 6 model 14 stepping 10, intel(r) core(tm) i5-8300h cpu @ 2.30ghz;
MC_ID=desktop-goj3fk4;
OS=windows nt (x64);
OS_RELEASE=6.3 windows 10 home single language (build 17763) ;
FRU=mdc_ugii_v7.0_djl_can_vrh;
APPL=unigraphics;
SITE=unknown;
USER=Maktub;
FORMAT=text;
GUISE=transmit;
KEY=Cabina.prt;
FILE=D:\Maktub\Desktop\Cabina.prt.x_t;
DATE=12-feb-2020;
**PART2;
SCH=SCH_2700178_26105;
USFLD_SIZE=0;
**PART3;
**END_OF_HEADER*****************************************************************
T51 : TRANSMIT FILE created by modeller version 270017823 SCH_2700178_26105_1300
6196 0 12 30 CCCCCCCCCCCCCDI5 owner1040 0 CCCCCCCCCA13 boundary_mesh1006 0 A16 i
ndex_map_offset0 0 1 dA9 index_map82 0 A17 node_id_index_map82 0 A20 schema_embe
dding_map82 0 A5 child12 0 A14 lowest_node_id0 0 1 dZ1 616 2 3 0 0 0 0 1e3 1e-8
 0 0 0 1 0 1 1 4 5 6 7 8 9 10 0 0 0 0 0 0 0 81 255 1 2 616 11 1 12 0 0 0 13 70 1
1 CI9 list_type0 0 1 uI10 notransmit0 0 1 lCCCDCCDI12 finger_index0 0 1 dI12 fin
ger_block1012 0 CZ3 0 4 T1 0 0 5 20 1 14 14 13 255 4 4 0 1 0 15 0 0 16 0 51 255
 5 408 0 17 18 0 0 +-.004 .028 -.03 1 0 0 .005 0 0 1 30 255 6 409 0 19 20 0 0 +-
.004 .028 -.025 1 0 0 29 255 7 394 0 21 22 0 -.11 .083 0 19 8 CCCCCCCA5 owner12
 0 Z8 2 0 1 16 0 23 V0 16 255 9 10 24 ?25 0 26 27 0 0 1 18 255 10 8 0 28 0 29 30
 ?1 17 255 28 0 31 25 32 10 33 34 0 35 -18 29 11 0 36 10 37 38 ?1 29 30 229 0 10
 0 39 -.004 .0580946215784431 -.004 29 39 230 0 40 30 38 -.004 .004 -.004 18 40
 9 0 32 37 41 39 ?1 29 38 232 0 29 39 42 -.004 .0580946215784431 -.056 29 42 234
 0 37 38 43 -.004 .004 -.056 18 37 13 0 44 29 40 42 ?1 29 43 237 0 45 42 46 -.00
4 .028 -.035 18 45 17 0 47 41 48 43 ?1 29 46 238 0 41 43 49 -.004 .028 -.025 18
 41 18 0 50 40 45 46 ?1 29 49 242 0 48 46 51 -.004 .0800946215784431 -.004 18 48
 23 0 52 45 53 49 ?1 29 51 243 0 54 49 55 -.0958397673465455 .0800946215784431 -
.004 18 54 24 0 56 57 58 51 ?1 29 55 245 0 53 51 59 -.004 .0759005596995443 -.00
4 18 53 26 0 60 48 61 55 ?1 29 59 247 0 61 55 62 0 .0759005596995443 -.004 18 61
 28 0 63 53 64 59 ?1 29 62 249 0 64 59 65 0 .0580946215784431 -.004 18 64 30 0 6
6 61 57 62 ?1 29 65 252 0 57 62 67 -.0597237922843114 .004 -.004 18 57 33 0 68 6
4 54 65 ?1 29 67 255 0 69 65 70 -.0736363731325141 .073 -.004 18 69 37 0 71 72 7
3 67 ?1 29 70 256 0 58 67 74 -.0496436781597129 .01 -.004 18 58 38 0 75 54 76 70
 ?1 29 74 258 0 76 70 77 -.01 .01 -.004 18 76 40 0 78 58 72 74 ?1 29 77 260 0 72
 74 79 -.01 .073 -.004 18 72 42 0 80 76 69 77 ?1 29 79 264 0 73 77 81 -.05972379
22843114 .004 -.056 18 73 47 0 82 69 83 79 ?1 29 81 266 0 83 79 84 -.05972379228
43114 .004 -.06 18 83 49 0 85 73 86 81 ?1 29 84 268 0 86 81 87 -.06 .004 -.06 18
 86 51 0 88 83 89 84 ?1 29 87 270 0 89 84 90 -.06 .004 0 18 89 53 0 91 86 92 87
 ?1 29 90 272 0 92 87 93 -.0597237922843114 .004 0 18 92 55 0 94 89 95 90 ?1 29
 93 276 0 95 90 96 0 .0580946215784431 -.056 18 95 60 0 97 92 98 93 ?1 29 96 278
 0 98 93 99 0 .0759005596995443 -.056 18 98 62 0 100 95 101 96 ?1 29 99 280 0 10
1 96 102 -.004 .0759005596995443 -.056 18 101 64 0 103 98 104 99 ?1 29 102 282 0
 104 99 105 -.004 .0800946215784431 -.056 18 104 66 0 106 101 107 102 ?1 29 105
 284 0 107 102 108 -.0958397673465455 .0800946215784431 -.056 18 107 68 0 109 10
4 110 105 ?1 29 108 287 0 110 105 111 -.0736363731325141 .073 -.056 18 110 72 0
 112 107 113 108 ?1 29 111 288 0 114 108 115 -.0496436781597129 .01 -.056 18 114
 73 0 116 117 118 111 ?1 29 115 290 0 113 111 119 -.01 .073 -.056 18 113 75 0 12
0 110 117 115 ?1 29 119 292 0 117 115 121 -.01 .01 -.056 18 117 77 0 122 113 114
 119 ?1 29 121 297 0 118 119 123 -.0946749205238333 .0792162162162162 -.00129729
72972973 18 118 83 0 124 114 125 121 ?1 29 123 299 0 125 121 126 -.11 .079216216
2162162 -.0012972972972973 18 125 85 0 127 118 128 123 ?1 29 126 301 0 128 123 1
29 -.11 .0792162162162162 -.0587027027027027 18 128 87 0 130 125 131 126 ?1 29 1
29 303 0 131 126 132 -.0946749205238333 .0792162162162162 -.0587027027027027 18
 131 89 0 133 128 134 129 ?1 29 132 307 0 134 129 135 0 .0792162162162162 -.0587
027027027027 18 134 94 0 136 131 137 132 ?1 29 135 308 0 138 132 139 0 .083 -.06
 18 138 95 0 140 141 142 135 ?1 29 139 310 0 137 135 143 0 .0792162162162162 -.0
012972972972973 18 137 97 0 144 134 145 139 ?1 29 143 312 0 145 139 146 0 .083 0
 18 145 99 0 147 137 148 143 ?1 29 146 314 0 148 143 149 0 0 0 18 148 101 0 150
 145 141 146 ?1 29 149 316 0 141 146 151 0 0 -.06 18 141 103 0 152 148 138 149 ?
1 29 151 319 0 142 149 153 0 .028 -.035 18 142 107 0 154 138 155 151 ?1 29 153 3
20 0 155 151 156 0 .028 -.025 18 155 108 0 157 142 158 153 ?1 29 156 326 0 158 1
53 159 -.06 0 0 18 158 116 0 160 155 161 156 ?1 29 159 328 0 161 156 162 -.06 0
 -.06 18 161 118 0 163 158 164 159 ?1 29 162 332 0 164 159 165 -.1 .083 0 18 164
 123 0 166 161 167 162 ?1 29 165 338 0 167 162 168 -.0496436781597129 .01 0 18 1
67 131 0 169 164 170 165 ?1 29 168 339 0 171 165 172 -.01 .01 0 18 171 132 0 173
 174 175 168 ?1 29 172 341 0 170 168 176 -.0736363731325141 .073 0 18 170 134 0
 177 167 174 172 ?1 29 176 343 0 174 172 178 -.01 .073 0 18 174 136 0 179 170 17
1 176 ?1 29 178 355 0 175 176 180 -.1 .083 -.06 18 175 153 0 181 171 182 178 ?1
 29 180 359 0 183 178 184 -.0496436781597129 .01 -.06 18 183 158 0 185 186 187 1
80 ?1 29 184 360 0 182 180 188 -.01 .01 -.06 18 182 159 0 189 175 190 184 ?1 29
 188 362 0 190 184 191 -.01 .073 -.06 18 190 161 0 192 182 186 188 ?1 29 191 364
 0 186 188 193 -.0736363731325141 .073 -.06 18 186 163 0 194 190 183 191 ?1 29 1
93 379 0 195 191 196 .008 .083 0 18 195 185 0 197 187 198 193 ?1 29 196 381 0 18
7 193 199 .008 .0792162162162162 -.0012972972972973 18 187 187 0 200 183 195 196
 ?1 29 199 385 0 201 196 202 .008 .0792162162162162 -.0587027027027027 18 201 19
2 0 203 198 204 199 ?1 29 202 387 0 198 199 22 .008 .083 -.06 18 198 194 0 205 1
95 201 202 ?1 29 22 392 0 204 202 7 -.11 .083 -.06 18 204 200 0 206 201 21 22 ?1
 17 206 0 207 208 209 204 210 211 0 212 -18 21 202 0 213 204 0 7 ?1 17 213 0 214
 215 166 21 216 217 0 208 -15 255 214 211 0 124 218 0 17 215 0 214 124 213 125 2
19 220 0 0 +17 166 0 214 213 124 164 221 222 0 223 +17 216 0 207 224 208 164 213
 217 0 0 +16 217 203 225 ?216 226 227 228 0 0 1 17 208 0 207 216 206 21 212 226
 0 219 +15 207 197 0 229 230 0 17 212 0 231 232 219 204 208 226 0 233 -16 226 20
1 234 ?208 235 217 236 0 0 1 17 219 0 231 212 237 21 215 220 0 0 -15 231 214 0 2
12 238 0 17 237 0 231 219 232 125 239 240 0 215 -16 220 212 241 ?215 222 242 243
 0 0 1 81 1 241 534 244 220 0 0 245 246 247 16 222 124 245 ?166 248 220 249 0 0
 1 16 242 198 246 ?250 220 251 252 0 0 1 30 243 401 0 220 253 20 0 +-.11 .083 0
 0 -.945945945945946 -.324324324324325 31 255 253 399 0 254 255 243 0 +.008 -.00
449999999999992 -.03 -1 0 0 0 0 1 .0885 31 20 405 0 256 243 6 0 +-.004 -.0044999
9999999992 -.03 1 0 0 0 0 -1 .0845 16 256 219 257 ?258 259 260 20 0 0 1 81 1 257
 539 244 256 0 0 261 262 263 17 258 0 264 265 266 53 267 256 0 0 +16 259 195 261
 ?205 254 256 268 0 0 1 16 260 111 262 ?269 256 270 271 0 0 1 81 1 262 540 244 2
60 0 0 257 272 273 17 269 0 274 275 66 95 276 260 0 0 +16 270 31 272 ?66 260 277
 278 0 0 1 30 271 322 0 260 279 280 0 +0 .0580946215784431 -.004 0 0 -1 31 279 3
21 0 281 282 271 0 +0 .028 -.03 1 0 0 0 0 -1 .005 31 280 323 0 277 271 283 0 +0
 -.00449999999999992 -.03 1 0 0 0 0 -1 .0845 16 277 112 284 ?285 270 286 280 0 0
 1 30 283 325 0 287 280 288 0 +-.06 -734788079488412e-32 0 1 122464679914735e-30
 0 16 287 115 289 ?290 291 292 283 0 0 1 30 288 327 0 293 283 294 0 +-.06 -73478
8079488412e-32 -.06 0 0 1 16 293 117 295 ?160 296 297 288 0 0 1 30 294 329 0 298
 288 299 0 +-.06 0 -.06 1 0 0 16 298 119 300 ?301 302 303 294 0 0 1 31 299 331 0
 304 294 249 0 +-.149166666666667 .00816666666666662 0 0 0 -1 -1 0 0 .0895398731
788743 16 304 122 305 ?306 307 291 299 0 0 1 32 255 249 333 0 222 299 308 0 +-.1
49166666666667 .00816666666666662 -.0256571428571429 0 -.324324324324325 .945945
945945946 0 .945945945945946 .324324324324325 .0946564373605243 .089539873178874
3 30 308 335 0 291 249 309 0 +-.06 .004 0 0 -1 0 16 291 127 310 ?311 304 287 308
 0 0 1 30 309 336 0 312 308 313 0 +-192592994438724e-47 .083 0 -1 -1776356839400
25e-30 0 16 312 128 314 ?223 292 315 309 0 0 1 30 313 337 0 316 309 317 0 +-.049
6436781597129 .01 0 1 168030275115098e-30 0 16 316 130 318 ?173 319 320 313 0 0
 1 31 317 340 0 315 313 321 0 +-.149166666666667 .00816666666666662 0 0 0 -1 -1
 0 0 .0995398731788743 16 315 133 322 ?323 312 324 317 0 0 1 30 321 342 0 325 31
7 326 0 +-.01 .073 0 -1 0 0 16 325 135 327 ?177 324 328 321 0 0 1 30 326 344 0 3
29 321 330 0 +-.01 .01 0 0 1 0 16 329 137 331 ?179 328 319 326 0 0 1 30 330 346
 0 320 326 332 0 +-.0496436781597129 .01 -.004 0 0 1 16 320 140 333 ?334 316 335
 330 0 0 1 30 332 347 0 324 330 336 0 +-.0736363731325141 .073 -.004 0 0 1 16 32
4 141 337 ?338 315 325 332 0 0 1 30 336 349 0 328 332 339 0 +-.01 .073 -.004 0 0
 1 16 328 144 340 ?341 325 329 336 0 0 1 30 339 351 0 319 336 342 0 +-.01 .01 -.
004 0 0 1 16 319 147 343 ?344 329 316 339 0 0 1 31 342 354 0 297 339 345 0 +-.14
9166666666667 .00816666666666662 -.06 0 0 -1 -1 0 0 .0895398731788743 16 297 152
 346 ?347 293 348 342 0 0 1 30 345 356 0 235 342 349 0 +0 .083 -.06 -1 -17763568
3940025e-30 0 16 235 154 350 ?209 351 226 345 0 0 1 30 349 357 0 352 345 353 0 +
-.06 0 -.06 0 1 0 16 352 155 354 ?355 335 356 349 0 0 1 30 353 358 0 356 349 357
 0 +-.0496436781597129 .01 -.06 1 168030275115098e-30 0 16 356 157 358 ?359 352
 360 353 0 0 1 30 357 361 0 360 353 361 0 +-.01 .01 -.06 0 1 0 16 360 160 362 ?3
63 356 364 357 0 0 1 30 361 363 0 364 357 365 0 +-.01 .073 -.06 -1 0 0 16 364 16
2 366 ?367 360 296 361 0 0 1 31 365 365 0 296 361 368 0 +-.149166666666667 .0081
6666666666662 -.06 0 0 -1 -1 0 0 .0995398731788743 16 296 164 369 ?185 364 293 3
65 0 0 1 32 368 368 0 370 365 371 0 +-.149166666666667 .00816666666666662 -.0343
428571428573 0 -.324324324324322 -.945945945945947 0 .945945945945947 -.32432432
4324322 .0946564373605242 .0895398731788743 16 370 169 372 ?373 211 374 368 0 0
 1 30 371 370 0 375 368 376 0 +-.0736363731325141 .073 -.056 0 0 -1 16 375 172 3
77 ?378 379 380 371 0 0 1 30 376 371 0 381 371 382 0 +-.0496436781597129 .01 -.0
56 0 0 -1 16 381 173 383 ?384 385 379 376 0 0 1 30 382 373 0 386 376 387 0 +-.01
 .073 -.056 0 0 -1 16 386 176 388 ?389 380 390 382 0 0 1 30 387 375 0 391 382 39
2 0 +-.01 .01 -.056 0 0 -1 16 391 179 393 ?394 390 395 387 0 0 1 30 392 378 0 22
7 387 396 0 +0 .083 0 1 0 0 16 227 184 397 ?398 217 211 392 0 0 1 30 396 380 0 3
99 392 400 0 +0 .0792162162162162 -.0012972972972973 1 0 0 16 399 186 401 ?402 3
95 403 396 0 0 1 30 400 382 0 251 396 404 0 +.008 .083 0 0 -.945945945945946 -.3
24324324324325 16 251 188 405 ?200 242 254 400 0 0 1 30 404 384 0 406 400 407 0
 +0 .0792162162162162 -.0587027027027027 1 0 0 16 406 191 408 ?409 410 248 404 0
 0 1 30 407 386 0 351 404 268 0 +0 .083 -.06 1 0 0 16 351 193 411 ?412 403 235 4
07 0 0 1 30 268 388 0 259 407 252 0 +.008 .0792162162162162 -.0587027027027027 0
 .945945945945947 -.324324324324322 31 252 390 0 242 268 413 0 +.008 -.004499999
99999992 -.03 1 0 0 0 0 1 .0925 30 413 391 0 211 252 236 0 +-.11 .083 -.06 1 0 0
 16 211 199 414 ?210 227 370 413 0 0 1 31 236 393 0 226 413 228 0 +-.11 -.004499
99999999992 -.03 1 0 0 0 0 1 .0925 30 228 395 0 217 236 255 0 +-.11 .083 0 1 0 0
 30 255 397 0 374 228 253 0 +-.11 .0792162162162162 -.0587027027027027 0 .945945
945945947 -.324324324324322 16 374 206 415 ?233 370 410 255 0 0 1 81 1 415 529 2
44 374 0 0 372 416 417 17 233 0 418 210 130 204 232 374 0 0 +16 410 96 416 ?136
 374 406 419 0 0 1 81 1 416 530 244 410 0 0 415 408 420 17 136 0 421 409 422 134
 144 410 0 423 +31 419 309 0 410 424 425 0 +0 -.00449999999999992 -.03 -1 0 0 0
 0 -1 .0885 30 424 306 0 403 426 419 0 +0 .0792162162162162 -.0587027027027027 0
 .945945945945947 -.324324324324322 30 425 311 0 395 419 427 0 +0 .083 104083408
558608e-31 0 -.945945945945946 -.324324324324325 16 395 98 428 ?429 391 399 425
 0 0 1 30 427 313 0 292 425 430 0 +0 0 0 0 1 0 16 292 100 431 ?432 287 312 427 0
 0 1 30 430 315 0 303 427 433 0 +0 0 -.06 0 0 1 16 303 102 434 ?435 298 307 430
 0 0 1 30 433 317 0 302 430 282 0 +0 0 -.06 0 1 0 16 302 104 436 ?437 438 298 43
3 0 0 1 31 282 318 0 439 433 279 0 +0 .028 -.03 1 0 0 0 0 -1 .005 16 439 106 440
 ?157 281 0 282 0 0 1 81 1 440 546 244 439 0 0 441 442 443 17 157 0 444 445 446
 155 154 439 0 447 +16 281 109 441 ?446 19 439 279 0 0 1 81 1 441 545 244 281 0
 0 448 440 449 17 446 0 444 157 450 142 447 281 0 0 +16 19 226 448 ?450 286 281
 6 0 0 1 81 1 448 544 244 19 0 0 451 441 452 17 450 0 444 446 50 155 445 19 0 0
 +16 286 63 451 ?100 277 19 453 0 0 1 81 1 451 543 244 286 0 0 284 448 454 17 10
0 0 455 285 267 98 103 286 0 456 +30 453 279 0 286 457 458 0 +-.004 .07590055969
95443 -.056 1 0 0 30 457 277 0 459 460 453 0 +0 .0580946215784431 -.056 0 1 0 30
 458 281 0 461 453 462 0 +-.004 .0759005596995443 -.056 0 1 0 16 461 65 463 ?464
 459 465 458 0 0 1 30 462 283 0 466 458 467 0 +-.0958397673465455 .0800946215784
431 -.056 1 0 0 16 466 67 468 ?106 465 469 462 0 0 1 31 467 285 0 465 462 470 0
 +-.149166666666667 .00816666666666662 -.056 0 0 -1 -1 0 0 .0895398731788743 16
 465 69 471 ?472 461 466 467 0 0 1 31 470 286 0 385 467 473 0 +-.149166666666667
 .00816666666666662 -.056 0 0 -1 -1 0 0 .0995398731788743 16 385 71 474 ?475 348
 381 470 0 0 1 30 473 289 0 379 470 476 0 +-.01 .073 -.056 -1 0 0 16 379 74 477
 ?112 381 375 473 0 0 1 30 476 291 0 380 473 478 0 +-.01 .01 -.056 0 1 0 16 380
 76 479 ?120 375 386 476 0 0 1 30 478 293 0 390 476 480 0 +-.0496436781597129 .0
1 -.056 1 168030275115098e-30 0 16 390 78 481 ?122 386 391 478 0 0 1 31 480 295
 0 469 478 482 0 +-.004 -.00449999999999992 -.03 1 0 0 0 0 -1 .0885 16 469 81 48
3 ?484 466 485 480 0 0 1 134 255 482 296 0 486 480 487 0 +488 489 16 486 82 490
 ?491 485 240 482 0 0 1 30 487 298 0 248 482 492 0 +-.11 .0792162162162162 -.001
2972972972973 1 0 0 136 255 488 3 5 3 3 4 FFF1 493 494 495 135 255 489 2 0 45 25
5 15 493 -.0958397673465455 .0800946215784431 -.004 -.0956513311099696 .07995491
62270471 -.00354544917946814 -.0952684857004392 .0796687818443812 -.002640558915
09836 -.0948745039771997 .0793692875719686 -.00174375541824183 -.094674920523833
3 .0792162162162162 -.0012972972972973 127 255 3 494 4 1 4 128 255 3 495 0 .5 1
 16 248 84 496 ?124 406 222 487 0 0 1 31 492 300 0 240 487 497 0 +-.11 -.0044999
9999999992 -.03 -1 0 0 0 0 1 .0885 16 240 86 498 ?239 486 499 492 0 0 1 30 497 3
02 0 499 492 426 0 +-.11 .0792162162162162 -.0587027027027027 1 0 0 16 499 88 50
0 ?501 240 438 497 0 0 1 134 426 304 0 438 497 424 0 +502 503 16 438 90 504 ?505
 499 302 426 0 0 1 136 502 3 16 3 8 6 FFF1 506 507 508 135 503 2 0 45 48 506 -.0
946749205238333 .0792162162162162 -.0587027027027027 -.0947340265926781 .0792615
478603914 -.0585704854071916 -.0947928952594768 .0793065800536339 -.058438120554
9745 -.0949101163503228 .0793960212498884 -.0581731637975069 -.0949684690353078
 .0794404305754576 -.0580405720528752 -.0950846473703614 .0795286253930502 -.057
775162619837 -.0951424733012049 .079572411225401 -.0576423451027019 -.0952575681
978459 .0796593438586482 -.057376529670938 -.0953148376327654 .0797024912174198
 -.0572435320400127 -.0954288330163901 .0797881645132812 -.0569773028064213 -.09
54855592465873 .0798306907789919 -.0568440713725488 -.0955984384679971 .07991510
67077057 -.0565774208435522 -.095654591937931 .0799569969196299 -.05644400203320
55 -.0957537355402046 .0800307784667282 -.056207045155035 -.0957968319699148 .08
00627895805827 -.056103569838965 -.0958397673465455 .0800946215784431 -.056 127
 8 507 4 2 2 2 2 2 2 4 128 8 508 0 .147896785674292 .295713925046291 .4434470256
20498 .591042353571768 .738556535295994 .885935206997901 1 81 1 504 484 244 438
 0 0 500 436 509 17 505 0 510 106 501 107 133 438 0 0 +15 510 80 0 106 511 0 17
 106 0 510 484 505 104 109 466 0 464 +17 501 0 510 505 239 131 130 499 0 373 +17
 133 0 512 181 513 131 505 438 0 501 -15 512 168 0 181 514 0 17 181 0 512 347 13
3 175 373 370 0 209 -17 513 0 512 133 82 107 472 465 0 505 -17 82 0 512 513 347
 73 85 348 0 515 +17 472 0 516 517 109 73 513 465 0 0 +15 516 58 0 517 518 519 1
7 517 0 516 36 472 37 515 520 0 0 +17 109 0 516 472 464 107 106 466 0 513 -17 46
4 0 516 109 103 104 266 461 0 521 +17 103 0 516 464 456 101 100 286 0 266 -17 26
6 0 264 258 521 101 464 461 0 267 -17 521 0 264 266 265 104 484 469 0 0 -15 264
 218 0 266 522 0 17 265 0 264 521 258 48 523 524 0 484 -17 484 0 510 525 106 48
 521 469 0 0 +17 525 0 510 491 484 54 52 485 0 526 +17 491 0 510 127 525 118 526
 486 0 221 +17 52 0 527 523 56 48 525 485 0 265 -16 485 22 528 ?525 469 486 529
 0 0 1 17 526 0 530 68 221 54 491 486 0 0 -15 530 121 0 526 531 0 17 68 0 530 94
 526 57 56 307 0 532 +17 221 0 530 526 533 118 166 222 0 0 -17 533 0 530 221 94
 164 306 304 0 216 -17 94 0 530 533 68 92 534 535 0 536 -17 306 0 537 91 223 92
 533 304 0 0 +15 537 126 0 306 538 539 17 91 0 537 311 306 89 536 540 0 541 -17
 223 0 537 306 432 164 224 312 0 533 +17 432 0 537 223 290 145 150 292 0 542 +17
 224 0 207 398 216 145 223 312 0 432 -17 398 0 207 229 224 195 542 227 0 250 +17
 229 0 207 543 398 198 250 242 0 0 -17 542 0 544 429 197 145 398 227 0 0 -17 250
 0 545 200 205 195 229 242 0 0 +15 545 216 0 250 546 0 17 200 0 545 547 250 187
 197 251 0 402 +17 205 0 545 250 547 198 203 259 0 412 +17 547 0 545 205 200 201
 548 254 0 0 +17 203 0 549 550 412 201 205 259 0 409 -17 412 0 549 203 551 198 5
43 351 0 229 +15 549 190 0 550 552 0 17 551 0 549 412 550 138 423 403 0 437 +17
 543 0 207 209 229 138 412 351 0 0 -17 209 0 207 206 543 175 140 235 0 553 +17 1
40 0 554 555 553 138 209 235 0 551 -17 553 0 554 140 556 175 347 297 0 210 -15 5
54 151 0 556 557 558 17 556 0 554 553 355 83 88 335 0 347 +17 347 0 512 82 181 8
3 553 297 0 0 +17 210 0 418 373 233 175 206 211 0 0 +15 418 205 0 210 559 0 17 3
73 0 418 130 210 131 181 370 0 0 +17 130 0 418 233 373 128 501 499 0 239 -17 239
 0 510 501 127 128 237 240 0 232 +17 127 0 510 239 491 125 124 248 0 237 -17 232
 0 231 237 212 128 233 374 0 0 -17 124 0 214 166 215 118 127 248 0 491 +14 255 5
59 204 560 ?561 230 418 4 562 +0 0 561 230 23 81 1 560 606 563 559 564 0 565 566
 567 14 561 207 566 ?218 559 421 4 568 -0 0 218 559 23 14 230 196 565 ?559 552 2
07 4 569 +0 0 559 552 23 50 255 562 396 0 559 569 568 0 +-.11 .083 -.06 0 -.3243
24324324322 -.945945945945947 1 0 0 13 23 3 0 0 0 0 0 0 8 15 14 15 5 570 ?571 0
 31 4 572 -0 0 571 0 23 81 1 570 583 563 15 442 0 0 573 574 14 571 20 573 ?575 1
5 527 4 576 +0 0 575 15 23 15 31 6 0 28 15 577 50 572 227 0 15 0 576 0 +-.004 -.
00449999999999992 -.03 1 0 0 0 0 1 50 576 240 0 571 572 578 0 +-.149166666666667
 .00816666666666662 -.004 0 0 -1 1 0 0 50 578 262 0 575 576 579 0 +-.06 .004 0 0
 1 0 0 0 -1 14 575 44 580 ?518 571 581 4 578 +0 0 518 571 23 50 579 274 0 518 57
8 582 0 +-.149166666666667 .00816666666666662 -.056 0 0 1 -1 0 0 14 518 57 583 ?
511 575 516 4 579 +0 0 511 575 23 51 582 294 0 511 579 584 0 +-.11 -.00449999999
999992 -.03 1 0 0 .0885 0 0 1 14 511 79 585 ?586 518 510 4 582 -0 0 586 518 23 5
0 584 305 0 586 582 587 0 +0 0 -.004 1 0 0 0 0 1 14 586 91 588 ?589 511 590 4 58
4 +0 0 589 511 23 50 587 324 0 589 584 591 0 +0 0 -.004 122464679914735e-30 -1 0
 0 0 1 14 589 113 592 ?531 586 593 4 587 +0 0 531 586 23 51 591 330 0 531 587 59
4 0 +-.149166666666667 .00816666666666662 -.004 0 0 1 .0895398731788743 -1 0 0 1
4 531 120 595 ?538 589 530 4 591 -0 0 538 589 23 50 594 334 0 538 591 596 0 +-.1
49166666666667 .00816666666666662 0 0 0 -1 1 0 0 14 538 125 597 ?598 531 537 4 5
94 -0 0 598 531 23 51 596 345 0 598 594 599 0 +-.149166666666667 .00816666666666
662 -.004 0 0 1 .0995398731788743 -1 0 0 14 598 138 600 ?601 538 602 4 596 +0 0
 601 538 23 50 599 348 0 601 596 603 0 +-.01 .073 -.004 0 1 0 0 0 -1 14 601 142
 604 ?605 598 606 4 599 -0 0 605 598 23 50 603 350 0 605 599 607 0 +-.01 .01 -.0
04 1 0 0 0 0 1 14 605 145 608 ?609 601 610 4 603 -0 0 609 601 23 50 607 352 0 60
9 603 611 0 +-.01 .01 -.004 175031536578227e-30 -1 0 0 0 1 14 609 148 612 ?557 6
05 613 4 607 -0 0 557 605 23 50 611 353 0 557 607 614 0 +-.06 0 -.06 0 0 -1 1 0
 0 14 557 150 615 ?616 609 554 4 611 +0 0 616 609 23 50 614 366 0 616 611 617 0
 +-.06 .004 0 -1 0 0 0 0 -1 14 616 165 618 ?514 557 619 4 614 +0 0 514 557 23 51
 617 367 0 514 614 620 0 +-.149166666666667 .00816666666666662 -.056 0 0 -1 .089
5398731788743 -1 0 0 14 514 167 621 ?622 616 512 4 617 -0 0 622 616 23 51 620 36
9 0 622 617 623 0 +-.149166666666667 .00816666666666662 -.056 0 0 -1 .0995398731
788743 -1 0 0 14 622 170 624 ?625 514 626 4 620 +0 0 625 514 23 50 623 372 0 625
 620 627 0 +-.01 .073 -.056 0 1 0 0 0 -1 14 625 174 628 ?629 622 630 4 623 -0 0
 629 622 23 50 627 374 0 629 623 631 0 +-.01 .01 -.056 1 0 0 0 0 1 14 629 177 63
2 ?633 625 634 4 627 -0 0 633 625 23 50 631 376 0 633 627 635 0 +-.01 .01 -.056
 175031536578227e-30 -1 0 0 0 1 14 633 180 636 ?637 629 638 4 631 -0 0 637 629 2
3 50 635 377 0 637 631 639 0 +-.11 .0792162162162162 -.0012972972972973 0 -.3243
24324324325 .945945945945946 -1 0 0 14 637 182 640 ?552 633 544 4 635 +0 0 552 6
33 23 50 639 383 0 552 635 569 0 +-.11 .083 -.06 0 -.324324324324322 -.945945945
945947 1 0 0 14 552 189 641 ?230 637 549 4 639 +0 0 230 637 23 51 569 389 0 230
 639 562 0 +-.11 -.00449999999999992 -.03 1 0 0 .0925 0 0 1 81 1 641 604 563 552
 642 0 640 565 643 80 255 1 563 0 644 8001 0 0 0 0 3 5 0 0 0 FFFFTFTFFFFFFF2 81
 1 642 568 244 552 0 641 645 646 647 81 1 640 603 563 637 645 0 636 641 648 81 1
 565 605 563 230 646 0 641 560 649 83 255 3 643 .6 0 0 81 1 646 569 244 230 0 56
5 642 564 650 83 3 649 .6 0 0 80 1 244 651 652 9000 1 1 1 1 1 1 1 1 0 FFFFTFTFFF
FFFF3 81 1 564 570 244 559 0 560 646 653 654 84 255 32 650 5c4cd861f6d3e3d784eda
89b1237742581 1 653 571 244 561 0 566 564 655 656 84 32 654 7d96d49b9c4e7810fa76
bd963105c2c081 1 566 607 563 561 653 0 560 657 658 81 1 655 572 244 218 0 657 65
3 659 660 84 32 656 6f772868247d698c9577e8ac46cd05c114 218 210 657 ?238 561 214
 4 661 +0 0 238 561 23 81 1 657 608 563 218 655 0 566 662 663 81 1 659 573 244 2
38 0 662 655 664 665 84 32 660 09c5e203cca646a32b210370a8305e1514 238 213 662 ?5
46 218 231 4 666 +0 0 546 218 23 81 1 662 609 563 238 659 0 657 667 668 81 1 664
 574 244 546 0 667 659 669 670 84 32 665 04683628064374d680676a81b86af60814 546
 215 667 ?522 238 545 4 671 -0 0 522 238 23 81 1 667 610 563 546 664 0 662 672 6
73 81 1 669 575 244 522 0 672 664 674 675 84 32 670 e7d36bfa8e659b5f07767c3a60cc
592e14 522 217 672 ?676 546 264 4 677 -0 0 676 546 23 81 1 672 611 563 522 669 0
 667 678 679 81 1 674 576 244 676 0 678 669 680 681 84 32 675 94a2cdc5be7db2472b
331078538d743314 676 220 678 ?682 522 274 4 683 -0 0 682 522 23 81 1 678 612 563
 676 674 0 672 684 685 81 1 680 577 244 682 0 684 674 686 687 84 32 681 bbb6a9af
bb25b1a2b9abf1917372b5dc14 682 222 684 ?17 676 455 4 18 -0 0 17 676 23 81 1 684
 613 563 682 680 0 678 688 689 81 1 686 578 244 17 0 688 680 0 690 84 32 687 7f7
9d2cab5c469f6ab711774ca7960ee14 17 224 688 ?0 682 444 4 5 -0 0 0 682 23 81 1 688
 614 563 17 686 0 684 0 691 84 32 690 87c876c016cac769ee8eba25f9d06adb83 3 691 .
6 0 0 15 444 225 0 47 17 0 17 47 0 444 50 445 45 692 26 0 693 -17 50 0 444 450 4
7 41 693 694 0 692 -17 445 0 444 47 157 41 450 19 0 0 -17 692 0 577 693 693 41 4
7 26 0 445 +16 26 16 695 ?692 9 694 696 0 0 1 17 693 0 577 692 692 45 50 694 0 0
 +15 577 15 0 692 15 0 16 694 19 697 ?693 26 524 698 0 0 1 81 1 697 458 244 694
 0 0 695 699 700 16 524 25 699 ?523 694 701 702 0 0 1 31 698 239 0 694 696 529 0
 +-.004 .028 -.03 1 0 0 0 0 -1 .005 31 696 236 0 26 703 698 0 +-.004 .028 -.03 1
 0 0 0 0 -1 .005 30 529 241 0 485 698 702 0 +-.0958397673465455 .080094621578443
1 -.004 -1 0 0 30 702 244 0 524 529 704 0 +-.004 .0800946215784431 -.004 0 -1 0
 30 704 246 0 701 702 705 0 +-.004 .0759005596995443 -.004 1 0 0 16 701 27 706 ?
707 524 708 704 0 0 1 30 705 248 0 708 704 278 0 +0 .0759005596995443 -.004 0 -1
 -935269192564588e-31 16 708 29 709 ?710 701 34 705 0 0 1 30 278 250 0 270 705 7
11 0 +-.004 .0580946215784431 -.004 1 0 0 30 711 251 0 712 278 713 0 +-.05972379
22843114 .004 -.004 1 0 0 16 712 32 714 ?715 716 717 711 0 0 1 31 713 253 0 307
 711 718 0 +-.149166666666667 .00816666666666662 -.004 0 0 -1 -1 0 0 .0895398731
788743 16 307 34 719 ?68 303 304 713 0 0 1 31 718 254 0 720 713 721 0 +-.1491666
66666667 .00816666666666662 -.004 0 0 -1 -1 0 0 .0995398731788743 16 720 36 722
 ?723 34 724 718 0 0 1 30 721 257 0 724 718 725 0 +-.0496436781597129 .01 -.004
 1 168030275115098e-30 0 16 724 39 726 ?727 720 728 721 0 0 1 30 725 259 0 728 7
21 729 0 +-.01 .01 -.004 0 1 0 16 728 41 730 ?731 724 716 725 0 0 1 30 729 261 0
 716 725 732 0 +-.01 .073 -.004 -1 0 0 16 716 43 733 ?71 728 712 729 0 0 1 30 73
2 263 0 520 729 734 0 +-.0597237922843114 .004 -.056 1 0 0 16 520 46 735 ?517 53
5 736 732 0 0 1 30 734 265 0 348 732 737 0 +-.0597237922843114 .004 -.056 0 0 1
 16 348 48 738 ?82 297 385 734 0 0 1 30 737 267 0 335 734 739 0 +-.06 .004 -.06
 1 0 0 16 335 50 740 ?556 320 352 737 0 0 1 30 739 269 0 741 737 742 0 +-.06 .00
4 -.06 0 0 1 16 741 52 743 ?541 717 540 739 0 0 1 30 742 271 0 540 739 744 0 +-.
06 .004 0 1 0 0 16 540 54 745 ?536 741 535 742 0 0 1 30 744 273 0 535 742 460 0
 +-.0597237922843114 .004 -.004 0 0 -1 16 535 56 746 ?534 540 520 744 0 0 1 30 4
60 275 0 747 744 457 0 +-.004 .0580946215784431 -.056 1 0 0 16 747 59 748 ?749 7
36 459 460 0 0 1 81 1 748 474 244 747 0 0 750 751 752 17 749 0 516 456 36 95 275
 747 0 269 +16 736 12 750 ?36 520 747 753 0 0 1 16 459 61 751 ?456 747 461 457 0
 0 1 81 1 751 475 244 459 0 0 748 463 754 17 456 0 516 103 749 98 97 459 0 755 +
17 97 0 756 276 755 95 456 459 0 749 -17 755 0 756 97 63 98 285 277 0 0 -15 756
 110 0 276 586 0 17 63 0 756 755 276 61 710 708 0 707 -17 285 0 455 60 100 61 75
5 277 0 0 +15 455 223 0 285 682 0 17 60 0 455 267 285 53 707 701 0 523 -17 267 0
 455 100 60 101 258 256 0 0 -17 707 0 527 710 523 61 60 701 0 285 +17 523 0 527
 707 52 53 265 524 0 258 +15 527 21 0 52 571 757 15 757 35 0 723 571 0 17 723 0
 757 727 71 58 758 720 0 759 +17 727 0 757 731 723 76 75 724 0 760 +17 71 0 757
 723 731 69 80 716 0 758 +17 758 0 602 338 759 69 723 720 0 761 -17 759 0 602 75
8 323 58 334 320 0 0 -15 602 139 0 323 598 0 17 323 0 602 759 338 167 762 315 0
 334 +17 334 0 613 173 75 167 759 320 0 0 +15 613 149 0 173 609 0 17 173 0 613 7
60 334 171 169 316 0 763 +17 75 0 613 334 760 58 727 724 0 723 -17 760 0 613 75
 173 76 344 319 0 0 -17 344 0 610 179 78 171 760 319 0 0 +15 610 146 0 179 605 0
 17 179 0 610 764 344 174 763 329 0 765 +17 78 0 610 344 764 76 731 728 0 727 -1
7 764 0 610 78 179 72 341 328 0 0 -17 731 0 757 71 727 72 78 728 0 764 +17 341 0
 606 177 80 174 764 328 0 0 +15 606 143 0 177 601 0 17 177 0 606 761 341 170 765
 325 0 762 +17 80 0 606 341 761 72 71 716 0 731 -17 761 0 606 80 177 69 338 324
 0 0 -17 338 0 602 323 758 170 761 324 0 0 +17 765 0 539 763 762 174 177 325 0 3
41 -17 762 0 539 765 169 170 323 315 0 338 -15 539 129 0 169 538 0 17 169 0 539
 762 763 167 173 316 0 323 -17 763 0 539 169 765 171 179 329 0 344 -17 710 0 527
 766 707 64 63 708 0 276 +17 766 0 527 33 710 10 66 270 0 0 -17 276 0 756 63 97
 64 269 260 0 0 -17 33 0 527 532 766 40 28 34 0 715 +17 66 0 274 269 35 64 766 2
70 0 710 +15 274 221 0 269 676 0 17 35 0 274 66 275 10 25 9 0 766 -17 275 0 274
 35 269 29 749 747 0 0 -17 25 0 31 44 28 29 35 9 0 275 +17 44 0 31 32 25 37 36 7
36 0 767 -17 32 0 31 28 44 40 767 717 0 33 -17 36 0 516 749 517 29 44 736 0 25 +
17 767 0 581 515 715 37 32 717 0 517 +15 581 45 0 715 575 0 17 515 0 581 85 767
 73 517 520 0 472 -17 715 0 581 767 534 40 532 712 0 0 +16 717 14 768 ?767 712 7
41 703 0 0 1 81 1 768 468 244 717 0 0 714 743 769 30 703 235 0 717 753 696 0 +-.
004 .004 -.004 0 0 -1 30 753 233 0 736 27 703 0 +-.004 .004 -.056 0 1 0 30 27 23
1 0 9 770 753 0 +-.004 .0580946215784431 -.004 0 0 -1 30 770 228 0 34 0 27 0 +-.
004 .0580946215784431 -.004 0 -1 0 16 34 7 771 ?33 708 720 770 0 0 1 81 1 771 46
2 244 34 0 0 709 722 772 81 1 709 461 244 708 0 0 706 771 773 81 1 722 463 244 7
20 0 0 771 726 774 84 32 772 c6713223186c8273b767d0ca51cb722a81 1 726 464 244 72
4 0 0 722 730 775 84 32 774 7044a27af42d2d51cc093c633adb093581 1 730 465 244 728
 0 0 726 733 776 84 32 775 54ef3bd1bd6cf5c4bc4c2e97ebc0e23f81 1 733 466 244 716
 0 0 730 714 777 84 32 776 429e0f276fb274e4fbdebed4f0b1524b81 1 714 467 244 712
 0 0 733 768 778 84 32 777 5defe17872519784f104898546f431b084 32 778 ae8f5368943
4b008ca178c8eb4c56a3081 1 706 460 244 701 0 0 699 709 779 84 32 773 84f2242c63fc
3c7694463279bc3ccbb781 1 699 459 244 524 0 0 697 706 780 84 32 779 9eb430c72f9d2
8eea5106c9a8056e64884 32 780 4abbae7f4f21fa8f5bef23f5cb01689f81 1 743 469 244 74
1 0 0 768 745 781 84 32 769 b4ecf5ae55488c0d7a7172b766a1838f81 1 745 470 244 540
 0 0 743 746 782 84 32 781 0de288b0d3f0dd99398f3a3cab686e6581 1 746 471 244 535
 0 0 745 735 783 84 32 782 12239f5c1d8a48107e4c6b7c0e50bb5b81 1 735 472 244 520
 0 0 746 750 784 84 32 783 b8b550dfa396fd05905ffef30c368c2a81 1 750 473 244 736
 0 0 735 748 785 84 32 784 f021a1e2e34dbec9efdfe4c167503d2884 32 785 65de76899cc
5ba3c9f819c7ccfb5472017 534 0 581 715 536 57 94 535 0 0 +17 532 0 527 56 33 57 7
15 712 0 534 -17 56 0 527 52 532 54 68 307 0 525 -17 536 0 581 534 541 92 91 540
 0 306 +17 541 0 581 536 88 89 786 741 0 787 +17 88 0 581 541 85 86 556 335 0 78
6 -17 786 0 619 788 787 86 541 741 0 355 -17 787 0 619 786 160 89 311 291 0 0 -1
5 619 166 0 787 616 0 17 160 0 619 787 788 158 163 293 0 789 +17 311 0 537 290 9
1 158 787 291 0 0 +17 290 0 537 432 311 148 789 287 0 0 +17 789 0 593 163 435 15
8 290 287 0 311 -15 593 114 0 789 589 0 17 163 0 593 301 789 161 160 293 0 790 -
17 435 0 593 789 301 148 152 303 0 290 +17 301 0 593 435 163 141 790 298 0 0 +17
 152 0 590 437 150 141 435 303 0 555 -15 590 92 0 423 586 791 17 437 0 590 423 1
52 138 555 302 0 543 +17 150 0 590 152 147 148 432 292 0 435 -17 555 0 554 790 1
40 141 437 302 0 301 -17 790 0 554 355 555 161 301 298 0 788 -17 355 0 554 556 7
90 86 788 352 0 0 +17 788 0 619 160 786 161 355 352 0 0 -17 147 0 590 150 144 14
5 429 395 0 224 -17 144 0 590 147 423 137 136 410 0 429 -17 429 0 544 402 542 13
7 147 395 0 422 +15 544 183 0 542 637 0 17 402 0 544 197 429 187 422 399 0 548 +
17 422 0 421 136 548 137 402 399 0 0 -15 421 208 0 136 561 0 17 548 0 421 422 40
9 187 547 254 0 0 -17 409 0 421 548 136 201 550 406 0 547 +16 254 209 792 ?547 2
51 259 253 0 0 1 81 1 792 537 244 254 0 0 405 261 793 81 1 405 536 244 251 0 0 2
46 792 794 81 1 261 538 244 259 0 0 792 257 795 84 32 793 fe97faa6ddcadc3639b306
39ed4cc3dd84 32 795 bbb241738e96f43ce69d396d4ed9f26781 1 246 535 244 242 0 0 241
 405 796 84 32 794 9a43b0307749bdc6fa9ab119900a4b4f84 32 796 218a70a5c038eaddebf
803a0f0befbc817 550 0 549 551 203 134 409 406 0 0 -17 197 0 544 542 402 195 200
 251 0 398 -17 423 0 590 144 437 134 551 403 0 550 -16 403 93 797 ?551 399 351 4
24 0 0 1 81 1 797 521 244 403 0 0 401 411 798 81 1 401 520 244 399 0 0 428 797 7
99 81 1 411 522 244 351 0 0 797 350 800 84 32 798 a63342a1b53bcc31e8131c385c4148
3581 1 350 523 244 235 0 0 411 234 801 84 32 800 2c677863b8de84007e1c6bd954e7e89
481 1 234 524 244 226 0 0 350 225 802 84 32 801 5dcbaae43a202e4bf41ffd7d93ae7c88
81 1 225 525 244 217 0 0 234 397 803 84 32 802 4454455e404e1c71d0b459011320077f8
1 1 397 526 244 227 0 0 225 414 804 84 32 803 5912d00b82bebd2941b5fc03f1d45af981
 1 414 527 244 211 0 0 397 372 805 84 32 804 70beb1405e42a2facfbbb07a7f749ab281
 1 372 528 244 370 0 0 414 415 806 84 32 805 1db708744b61b8abc2254c0a650aa0d584
 32 806 cd249c09650ca7b810f8dd3cbff3e41681 1 428 519 244 395 0 0 393 401 807 84
 32 799 27dc9955dedf2b1ca9913c71fa913ce481 1 393 518 244 391 0 0 481 428 808 84
 32 807 be37904bdd3947ed382ecb70442bacd681 1 481 517 244 390 0 0 388 393 809 84
 32 808 31a9a9a495215c4d069fb6dcd78955dc81 1 388 516 244 386 0 0 479 481 810 84
 32 809 66fa0f8d3ea4452cbd46e67a1bee728081 1 479 515 244 380 0 0 377 388 811 84
 32 810 4b73eebe9f42510c405f0c3483fa73f281 1 377 514 244 375 0 0 477 479 812 84
 32 811 d4948528cfb633dfb608a1969efe0c2d81 1 477 513 244 379 0 0 383 377 813 84
 32 812 8c6e8efb3c7427dd74b8f7a4e6a8e0cd81 1 383 512 244 381 0 0 474 477 814 84
 32 813 394e12defefb92f6fa6372dc07688a1581 1 474 511 244 385 0 0 738 383 815 84
 32 814 6e6acc9e6d789867daa995c46a38329b81 1 738 510 244 348 0 0 346 474 816 84
 32 815 4b3ce33c82b1e18fe6118251490e5f9f81 1 346 509 244 297 0 0 295 738 817 84
 32 816 2c8384e895b791c906ce42c413520f4c81 1 295 508 244 293 0 0 369 346 818 84
 32 817 30cc12c2d6a0a6a18e20fefc717f936a81 1 369 507 244 296 0 0 366 295 819 84
 32 818 90a06ac9b82850004e9e8725446ce04f81 1 366 506 244 364 0 0 362 369 820 84
 32 819 c485962713ffefcfa64b2810f433648c81 1 362 505 244 360 0 0 358 366 821 84
 32 820 d5d2b67953d66acb36dea2b985b8ffa981 1 358 504 244 356 0 0 354 362 822 84
 32 821 bfeab89152888ad8ebe183ebb0cbe06a81 1 354 503 244 352 0 0 740 358 823 84
 32 822 2bb74cd8610b6fdc695419c7e464b8f481 1 740 502 244 335 0 0 333 354 824 84
 32 823 551b4554c0f03c527b7093e61f2ef3e881 1 333 501 244 320 0 0 318 740 825 84
 32 824 2528dccfd29162c91aaf3395d5deb88881 1 318 500 244 316 0 0 343 333 826 84
 32 825 7a9fc9f71c213d189bd20ba46cde579181 1 343 499 244 319 0 0 331 318 827 84
 32 826 febb6694140318b15291e7020bdcaf6081 1 331 498 244 329 0 0 340 343 828 84
 32 827 5ecf97d509b1374d39ae5f7c8978d18c81 1 340 497 244 328 0 0 327 331 829 84
 32 828 26628f927bbf81b24548ab8ea62446df81 1 327 496 244 325 0 0 337 340 830 84
 32 829 ed475f2417467bde00cfe2a4d3fd036981 1 337 495 244 324 0 0 322 327 831 84
 32 830 eca942eb5a94b897ae287338e0c3668581 1 322 494 244 315 0 0 314 337 832 84
 32 831 4fe94a8ccbafec1fe0ffa655487529ab81 1 314 493 244 312 0 0 431 322 833 84
 32 832 3c0ea65acf80f60593cf676a528f8fd781 1 431 492 244 292 0 0 289 314 834 84
 32 833 bc25b24d5304793416e34ca5439b8ce881 1 289 491 244 287 0 0 310 431 835 84
 32 834 aba7bda088740a5bc0cf6cf5f5a8c25f81 1 310 490 244 291 0 0 305 289 836 84
 32 835 c91a87b5e5134c120deca7ba1aebd71281 1 305 489 244 304 0 0 719 310 837 84
 32 836 286679b607ed897f987cf83c8f0b035781 1 719 488 244 307 0 0 434 305 838 84
 32 837 e669e7a4fd2294b020874b53a8cbad7a81 1 434 487 244 303 0 0 300 719 839 84
 32 838 c480ab4e584b644d87a68b7644ab062f81 1 300 486 244 298 0 0 436 434 840 84
 32 839 ca1c10768d9f60f7d8f514a3e3aaf24181 1 436 485 244 302 0 0 504 300 841 84
 32 840 5612e0887a590860d817d624ab51586a84 32 841 da84728ab503f9de5bbc3e54501c51
1615 791 105 0 154 586 756 17 154 0 791 447 447 142 157 439 0 446 -17 447 0 791
 154 154 155 446 281 0 450 -17 85 0 581 88 515 83 82 348 0 556 -81 1 463 476 244
 461 0 0 751 471 842 84 32 754 dd4deb4733dbbde3a40fd0de727ec6af81 1 471 477 244
 465 0 0 463 468 843 84 32 842 d2d734904ef34e5067a07ee0689a180381 1 468 478 244
 466 0 0 471 483 844 84 32 843 fde72ee071d3fbb5fb743dc410e1bb2281 1 483 479 244
 469 0 0 468 528 845 84 32 844 ae18cc7d36bd5898b9c6f521add115f481 1 528 480 244
 485 0 0 483 490 846 84 32 845 24cb5673a64a6c5dfe3080c8ad8365e181 1 490 481 244
 486 0 0 528 498 847 84 32 846 f419fc26ae1d9e3deac8c3ac8e16b10a81 1 498 482 244
 240 0 0 490 500 848 84 32 847 f88b463b6e4a3990a348da6a5e61eeb781 1 500 483 244
 499 0 0 498 504 849 84 32 848 1eb4240e65ad874929af9e1b5798810b84 32 849 420929d
4a8f1b20c5b04c94244cd0bd684 32 752 3e1543957e0c24b20a7318974518964a81 1 695 457
 244 26 0 0 24 697 850 84 32 700 05fbd6ab15b3a7c0dcc3a0f22880630481 1 24 456 244
 9 0 0 0 695 851 84 32 850 e53b24cafb531e4b579d5a7230d44ecd84 32 851 206ffb2fe2e
bcad6262b91e54a64917283 3 689 .6 0 0 51 18 407 0 682 683 5 0 +-.004 -.0044999999
9999992 -.03 1 0 0 .0845 0 0 1 50 683 406 0 676 677 18 0 +-.004 .058094621578443
1 -.004 0 -1 -133440267382831e-30 0 -133440267382831e-30 1 50 677 404 0 522 671
 683 0 +-.004 -.00449999999999992 -.03 1 0 0 0 0 1 50 671 403 0 546 666 677 0 +.
008 -.00449999999999992 -.03 -1 0 0 0 0 -1 50 666 402 0 238 661 671 0 +-.11 -.00
449999999999992 -.03 -1 0 0 0 0 -1 50 661 400 0 218 568 666 0 +-.11 .07921621621
62162 -.0012972972972973 0 -.324324324324325 .945945945945946 -1 0 0 51 568 398
 0 561 562 661 0 +-.11 -.00449999999999992 -.03 1 0 0 .0885 0 0 1 83 3 685 .6 0
 0 83 3 679 .6 0 0 83 3 673 .6 0 0 83 3 668 .6 0 0 83 3 663 .6 0 0 83 3 658 .6 0
 0 79 255 15 652 UGS/ObjectState81 1 645 567 244 637 0 640 852 642 853 81 1 636
 602 563 633 852 0 632 640 854 83 3 648 .6 0 0 81 1 852 566 244 633 0 636 855 64
5 856 81 1 632 601 563 629 855 0 628 636 857 83 3 854 .6 0 0 81 1 855 565 244 62
9 0 632 858 852 859 81 1 628 600 563 625 858 0 624 632 860 83 3 857 .6 0 0 81 1
 858 564 244 625 0 628 861 855 862 81 1 624 599 563 622 861 0 621 628 863 83 3 8
60 .6 0 0 81 1 861 563 244 622 0 624 864 858 865 81 1 621 598 563 514 864 0 618
 624 866 83 3 863 .6 0 0 81 1 864 562 244 514 0 621 867 861 868 81 1 618 597 563
 616 867 0 615 621 869 83 3 866 .6 0 0 81 1 867 561 244 616 0 618 870 864 871 81
 1 615 596 563 557 870 0 612 618 872 83 3 869 .6 0 0 81 1 870 560 244 557 0 615
 873 867 874 81 1 612 595 563 609 873 0 608 615 875 83 3 872 .6 0 0 81 1 873 559
 244 609 0 612 876 870 877 81 1 608 594 563 605 876 0 604 612 878 83 3 875 .6 0
 0 81 1 876 558 244 605 0 608 879 873 880 81 1 604 593 563 601 879 0 600 608 881
 83 3 878 .6 0 0 81 1 879 557 244 601 0 604 882 876 883 81 1 600 592 563 598 882
 0 597 604 884 83 3 881 .6 0 0 81 1 882 556 244 598 0 600 885 879 886 81 1 597 5
91 563 538 885 0 595 600 887 83 3 884 .6 0 0 81 1 885 555 244 538 0 597 888 882
 889 81 1 595 590 563 531 888 0 592 597 890 83 3 887 .6 0 0 81 1 888 554 244 531
 0 595 891 885 892 81 1 592 589 563 589 891 0 588 595 893 83 3 890 .6 0 0 81 1 8
91 553 244 589 0 592 894 888 895 81 1 588 588 563 586 894 0 585 592 896 83 3 893
 .6 0 0 81 1 894 552 244 586 0 588 897 891 898 81 1 585 587 563 511 897 0 583 58
8 899 83 3 896 .6 0 0 81 1 897 551 244 511 0 585 900 894 901 81 1 583 586 563 51
8 900 0 580 585 902 83 3 899 .6 0 0 81 1 900 550 244 518 0 583 903 897 904 81 1
 580 585 563 575 903 0 573 583 905 83 3 902 .6 0 0 81 1 903 549 244 575 0 580 90
6 900 907 81 1 573 584 563 571 906 0 570 580 908 83 3 905 .6 0 0 81 1 906 548 24
4 571 0 573 442 903 909 83 3 908 .6 0 0 81 1 442 547 244 15 0 570 440 906 910 84
 32 909 d643715b7594a26ddb598b3a5b90689e84 32 910 ba9a2a20c20537d07c66270d06a183
7a84 32 907 11cf7b2f7f1dc7c4bd2054e124e06b8b84 32 904 76f273de659aa60f867e11947b
52bd4684 32 901 846fdaf2f7a396701ea2b6145d92f37b84 32 898 897be4965fa657c053c1f0
b2e6eddaed84 32 895 5747d5b1f49cb6c67dc7f33600d58af284 32 892 9a7690ce5e6bd6c866
1adfdedc91bbac84 32 889 082a3e0fb6cee205cc285812fefe38ea84 32 886 c5cbc2bbc989f2
314b4e99b301da562684 32 883 574462c8214cb3ef834dc1404dee6e0c84 32 880 69dc8a736d
1d99221a8416fbdc0cc1d284 32 877 18b40ca169d66bce03243bdc3fd80f8684 32 874 735d16
294ca987956b045c17f764659784 32 871 2e552808fb4dc58b175926a4e4f5195684 32 868 42
5d7366f86d08e153e47bea92f8b49184 32 865 7069a29b5fe2b9c53bd44df67623185884 32 86
2 5718def58f3e862282e148b61a6428f984 32 859 f7551ff483aa086ae0e61a7d1b813e7784 3
2 856 14b30eda737537c0e103306078b56bdb84 32 853 64b8f6c68c173c1466e6fbad79f9d6a0
84 32 647 50a495f83fde74a5561c307bef5b20ab79 15 644 SDL/TYSA_COLOUR15 638 181 0
 911 633 0 17 911 0 638 912 394 183 359 356 0 384 -17 912 0 638 122 911 114 384
 381 0 0 -17 394 0 638 911 122 182 913 391 0 0 +17 359 0 558 363 185 182 911 356
 0 394 +17 384 0 626 194 475 183 912 381 0 0 +15 626 171 0 194 622 0 17 194 0 62
6 914 384 186 185 296 0 367 -17 475 0 626 384 914 114 915 385 0 912 +17 914 0 62
6 475 194 110 378 375 0 0 -17 915 0 519 916 116 110 475 385 0 914 -15 519 70 0 9
15 518 0 17 916 0 519 917 915 113 112 379 0 918 -17 116 0 519 915 917 114 122 39
0 0 475 -17 917 0 519 116 916 117 120 380 0 913 -17 122 0 638 394 912 117 116 39
0 0 917 +17 120 0 634 389 913 113 917 380 0 916 +17 913 0 634 120 189 117 394 39
1 0 0 -15 634 178 0 189 629 0 17 189 0 634 913 389 182 363 360 0 359 -17 389 0 6
34 189 120 190 918 386 0 0 +17 363 0 558 367 359 190 189 360 0 389 +15 558 156 0
 359 557 0 17 367 0 558 185 363 186 192 364 0 378 +17 185 0 558 359 367 183 194
 296 0 911 +17 192 0 630 918 378 190 367 364 0 363 -17 378 0 630 192 112 186 914
 375 0 0 +15 630 175 0 192 625 0 17 112 0 630 378 918 110 916 379 0 915 +17 918
 0 630 112 192 113 389 386 0 0 -83 3 574 .6 0 0 83 3 567 .6 0 0 84 32 509 6685aa
c37fd84e9925b5bd87583ecb7281 1 496 532 244 248 0 0 408 245 919 81 1 408 531 244
 406 0 0 416 496 920 81 1 245 533 244 222 0 0 496 241 921 84 32 919 4cf29f179332
95eca87a58c8935a658d84 32 921 812f1aa382c839b9963f66ae09d6b01284 32 920 fed5ccee
0aea0687caaa0fa6260ddb9a81 1 284 542 244 277 0 0 272 451 922 84 32 454 f1446ca2d
29be807560c2305b15abbc881 1 272 541 244 270 0 0 262 284 923 84 32 922 777d83ec1c
665c3adaec2d06d59600d484 32 923 cb265b436b7efd18e2592a7cdfb6e92084 32 452 28668f
3a933dc232e63db21a023ed31184 32 449 39197ccb347bb5a177eae405cc52622884 32 443 c2
d66c6d9a48b34f8fcb9ad3bd402eb084 32 420 af83adeb354f7b43a1c56ea5cc8470b384 32 41
7 9897f40af2b59f5b52d5f1d10dc08fdb84 32 273 df058cf82088359ee97703b63b84769884 3
2 263 ede9c92af7b9de9a26b3f6a72816c8c184 32 247 10f797521a095adc74273c734c99248b
19 16 1 0 1 0 8 4 S0 74 4 CI16 index_map_offset0 0 1 dCCZ20 14 5 0 0 924 686 688
 12 2 0 0 0 0 0 0 0 0 0 0 0 0 0 0 0 81 2 924 453 925 1 0 12 0 0 926 927 81 1 12
 615 928 1 924 2 0 0 929 80 1 928 930 931 9000 0 0 0 0 3 5 0 0 0 FFTFFFFFFFFFFF1
 82 255 1 929 198 79 24 931 UG2/BODY_COLOR_ATTRIBUTE80 2 925 932 933 8004 0 0 0
 0 3 5 0 0 0 FFTFFFFFFFFFFF2 3 83 1 926 7830.64 84 8 927 Kg/Cu M 79 16 933 SDL/T
YSA_DENSITY80 1 11 934 935 8038 0 0 0 0 0 0 0 0 0 TTTTTTTTTTTTTF10 98 255 6 13 8
3 79 76 73 68 49 79 14 935 SDL/TYSA_UNAME1 0 
