**ABCDEFGHIJKLMNOPQRSTUVWXYZabcdefghijklmnopqrstuvwxyz**************************
**PARASOLID !"#$%&'()*+,-./:;<=>?@[\]^_`{|}~0123456789**************************
**PART1;
MC=x64/Windows NT;
MC_MODEL=genuineintel family 6 model 14 stepping 10, intel(r) core(tm) i5-8300h cpu @ 2.30ghz;
MC_ID=desktop-goj3fk4;
OS=windows nt (x64);
OS_RELEASE=6.3 windows 10 home single language (build 17763) ;
FRU=mdc_ugii_v7.0_djl_can_vrh;
APPL=unigraphics;
SITE=unknown;
USER=Maktub;
FORMAT=text;
GUISE=transmit;
KEY=Cilindro;
FILE=D:\Maktub\Desktop\Cilindro.x_t;
DATE=12-feb-2020;
**PART2;
SCH=SCH_2700178_26105;
USFLD_SIZE=0;
**PART3;
**END_OF_HEADER*****************************************************************
T51 : TRANSMIT FILE created by modeller version 270017823 SCH_2700178_26105_1300
6196 0 12 30 CCCCCCCCCCCCCDI5 owner1040 0 CCCCCCCCCA13 boundary_mesh1006 0 A16 i
ndex_map_offset0 0 1 dA9 index_map82 0 A17 node_id_index_map82 0 A20 schema_embe
dding_map82 0 A5 child12 0 A14 lowest_node_id0 0 1 dZ1 393 2 3 0 0 0 0 1e3 1e-8
 0 0 0 1 0 1 1 4 5 6 7 8 9 10 0 0 0 0 0 0 0 81 255 1 2 393 11 1 12 0 0 0 13 70 1
1 CI9 list_type0 0 1 uI10 notransmit0 0 1 lCCCDCCDI12 finger_index0 0 1 dI12 fin
ger_block1012 0 CZ3 0 4 T1 0 0 5 20 1 14 14 13 255 4 4 0 1 0 15 0 0 16 0 50 255
 5 201 0 17 18 0 0 +.085 .01 -162878024286598e-31 0 1 0 0 0 -1 38 255 6 247 0 19
 20 0 0 +21 22 23 24 25 29 255 7 249 0 26 27 0 .009 .022 -167058647699037e-33 19
 8 CCCCCCCA5 owner12 0 Z8 2 0 1 16 0 28 V0 16 255 9 12 29 ?30 0 31 32 0 0 1 18 2
55 10 8 0 33 0 34 35 ?1 17 255 33 0 36 37 38 10 39 40 0 41 -18 34 11 0 37 10 42
 43 ?1 29 35 116 0 10 0 44 .104269696917086 .022 0 29 44 117 0 45 35 43 .1042696
96917086 424467094578305e-32 .022 18 45 9 0 39 46 47 44 ?1 29 43 119 0 34 44 48
 .104269696917086 -.022 -269422295812418e-32 29 48 121 0 42 43 49 .0402696969170
857 -.022 -269422295812418e-32 18 42 13 0 50 34 46 48 ?1 29 49 123 0 46 48 51 .0
402696969170857 .022 0 18 46 15 0 52 42 45 49 ?1 29 51 132 0 53 49 54 .034269696
9170857 .022 0 18 53 26 0 55 56 57 51 ?1 29 54 133 0 57 51 58 .0342696969170857
 -.022 -269422295812418e-32 18 57 27 0 59 53 60 54 ?1 29 58 136 0 60 54 61 0 -.0
22 -269422295812418e-32 18 60 30 0 62 57 63 58 ?1 29 61 138 0 63 58 64 -13471114
7906209e-32 .022 0 18 63 32 0 65 60 66 61 ?1 29 64 146 0 67 61 68 0 0 .005 18 67
 43 0 69 26 70 64 ?1 29 68 149 0 70 64 71 .117269696917086 .022 0 18 70 47 0 72
 67 73 68 ?1 29 71 150 0 73 68 74 .117269696917086 -.022 -269422295812418e-32 18
 73 48 0 75 70 76 71 ?1 29 74 153 0 76 71 77 .112269696917086 -.022 -26942229581
2418e-32 18 76 51 0 78 73 79 74 ?1 29 77 155 0 79 74 80 .112269696917086 .022 0
 18 79 53 0 81 76 82 77 ?1 29 80 159 0 83 77 84 .112269696917086 .024 0 18 83 58
 0 85 82 86 80 ?1 29 84 160 0 82 80 87 .112269696917086 -.024 -293915231795365e-
32 18 82 59 0 88 79 83 84 ?1 29 87 164 0 86 84 89 .110269696917086 -.024 -293915
231795365e-32 18 86 65 0 90 83 91 87 ?1 29 89 166 0 91 87 92 .110269696917086 .0
24 0 18 91 67 0 93 86 94 89 ?1 29 92 168 0 94 89 95 .110269696917086 43671356256
9779e-32 .024 18 94 69 0 96 91 97 92 ?1 29 95 174 0 98 92 99 .0382696969170857 .
024 0 18 98 77 0 100 97 101 95 ?1 29 99 175 0 97 95 102 .0382696969170857 -.024
 -293915231795365e-32 18 97 78 0 103 94 98 99 ?1 29 102 180 0 101 99 104 .036269
6969170857 -.024 -293915231795365e-32 18 101 84 0 105 98 106 102 ?1 29 104 182 0
 106 102 107 .0362696969170857 .024 0 18 106 86 0 108 101 109 104 ?1 29 107 189
 0 109 104 110 -.004 0 .005 18 109 96 0 111 106 112 107 ?1 29 110 194 0 112 107
 113 .012 .01 .003 18 112 103 0 114 109 115 110 ?1 29 113 199 0 115 110 116 .085
 .01 .003 18 115 110 0 117 112 0 113 ?1 29 116 238 0 47 113 118 .085 .0217944947
1770335 .003 18 47 21 0 119 45 56 116 ?1 29 118 239 0 56 116 27 .082 .022 115416
930551643e-32 18 56 20 0 120 47 53 118 ?1 29 27 248 0 66 118 7 .012 .02179449471
770335 .003 18 66 37 0 121 63 26 27 ?1 17 121 0 122 123 124 66 125 19 0 126 -18
 26 36 0 124 66 67 7 ?1 17 124 0 122 121 127 26 126 128 0 125 -15 255 122 101 0
 124 129 0 17 127 0 122 124 114 66 123 130 0 0 -17 126 0 131 125 125 66 124 128
 0 127 +16 128 35 132 ?126 133 19 20 0 0 1 17 125 0 131 126 126 26 121 19 0 0 +1
5 131 34 0 126 134 0 16 19 38 135 ?125 128 136 6 0 0 1 81 1 135 326 137 19 0 0 1
32 138 139 16 136 50 138 ?140 19 141 142 0 0 1 81 1 138 327 137 136 0 0 135 143
 144 17 140 0 145 81 75 76 146 136 0 147 +16 141 52 143 ?81 136 148 149 0 0 1 30
 255 142 152 0 136 150 149 0 +.12 -.022 -269422295812418e-32 -1 -612323399573677
e-31 0 31 255 150 151 0 151 152 142 0 +.117269696917086 718069794832446e-32 0 1
 612323399573677e-31 0 -612323399573677e-31 1 0 .022 31 149 154 0 141 142 153 0
 +.112269696917086 687453624853762e-32 0 1 612323399573677e-31 0 -61232339957367
7e-31 1 0 .022 31 153 156 0 148 149 154 0 +.112269696917086 687453624853762e-32
 0 1 612323399573677e-31 0 -612323399573677e-31 1 0 .022 16 148 54 155 ?147 141
 156 153 0 0 1 31 154 158 0 156 153 157 0 +.112269696917086 687453624853762e-32
 0 1 612323399573677e-31 0 -612323399573677e-31 1 0 .024 16 156 57 158 ?159 148
 160 154 0 0 1 31 157 161 0 160 154 161 0 +.112269696917086 687453624853762e-32
 0 1 612323399573677e-31 0 -612323399573677e-31 1 0 .024 16 160 60 162 ?163 156
 164 157 0 0 1 30 161 163 0 164 157 165 0 +.12 -.024 -293915231795365e-32 -1 -61
2323399573677e-31 0 16 164 64 166 ?167 160 168 161 0 0 1 31 165 165 0 168 161 16
9 0 +.110269696917086 675207156862289e-32 0 1 612323399573677e-31 0 -61232339957
3677e-31 1 0 .024 16 168 66 170 ?93 164 171 165 0 0 1 31 169 167 0 171 165 172 0
 +.110269696917086 675207156862289e-32 0 1 612323399573677e-31 0 -61232339957367
7e-31 1 0 .024 16 171 68 173 ?174 168 175 169 0 0 1 31 172 169 0 175 169 176 0 +
.110269696917086 675207156862289e-32 0 1 612323399573677e-31 0 -612323399573677e
-31 1 0 .024 16 175 70 177 ?178 171 179 172 0 0 1 31 176 171 0 179 172 180 0 +.1
04269696917086 30200241466357e-31 .032 -612323399573677e-31 1 122464679914735e-3
0 0 -122464679914735e-30 1 .01 16 179 73 181 ?182 175 183 176 0 0 1 31 180 173 0
 184 176 185 0 +.0382696969170857 234334309169242e-32 0 1 612323399573677e-31 0
 -612323399573677e-31 1 0 .024 16 184 76 186 ?187 40 188 180 0 0 1 31 185 176 0
 188 180 189 0 +.0382696969170857 234334309169242e-32 0 1 612323399573677e-31 0
 -612323399573677e-31 1 0 .024 16 188 79 190 ?100 184 191 185 0 0 1 30 189 177 0
 191 185 192 0 +.0402696969170857 .022 -269422295812418e-32 .707106781186551 -.7
07106781186544 86595605623549e-30 16 191 80 193 ?194 188 195 189 0 0 1 30 192 17
9 0 195 189 196 0 +.12 -.024 -293915231795365e-32 -1 -612323399573677e-31 0 16 1
95 83 197 ?198 191 199 192 0 0 1 31 196 181 0 199 192 200 0 +.0362696969170857 2
22087841177768e-32 0 1 612323399573677e-31 0 -612323399573677e-31 1 0 .024 16 19
9 85 201 ?108 195 202 196 0 0 1 31 200 183 0 202 196 203 0 +.0362696969170857 22
2087841177768e-32 0 1 612323399573677e-31 0 -612323399573677e-31 1 0 .024 16 202
 87 204 ?105 199 205 200 0 0 1 30 203 185 0 205 200 206 0 +.0362696969170857 -.0
24 -293915231795365e-32 -.707106781186543 .707106781186552 865956056235498e-31 1
6 205 90 207 ?208 202 209 203 0 0 1 30 206 188 0 210 203 211 0 +-.004 -612323399
573677e-33 .005 -1 0 0 16 210 95 212 ?213 214 215 206 0 0 1 31 211 190 0 215 206
 216 0 +-.004 0 0 -1 0 0 0 0 1 .005 16 215 97 217 ?218 210 130 211 0 0 1 31 216
 195 0 219 211 220 0 +.012 .01 -734788079488412e-32 0 1 0 0 0 1 .003 16 219 104
 221 ?222 130 223 216 0 0 1 31 220 200 0 224 216 225 0 +.085 .01 -16287802428659
8e-31 0 1 0 0 0 1 .003 16 224 111 226 ?227 223 0 220 0 0 1 30 225 210 0 223 220
 228 0 +.085 .024 .003 0 -1 0 16 223 109 229 ?230 219 224 225 0 0 1 30 228 224 0
 130 225 231 0 +.012 .024 .003 0 -1 0 16 130 102 232 ?123 215 219 228 0 0 1 38 2
31 233 0 233 228 234 0 +18 235 236 237 238 16 233 19 239 ?240 241 242 231 0 0 1
 38 234 237 0 242 231 20 0 +18 235 243 244 245 51 255 18 197 0 246 247 5 248 +.0
85 .024 -162878024286598e-31 0 -1 0 .003 0 0 1 51 235 114 0 15 0 22 249 +.12 734
788079488412e-32 0 1 612323399573677e-31 0 .022 612323399573677e-31 -1 0 40 255
 15 236 0 1 15 .000174712938154031 .344072045961242 ??.082 .022 1154169305516436
e-33 .0821672974948222 .0219778116172389 -.000987824132707592 .0826495257051419
 .02192087428481785 -.00186420776449711 .0833974517392163 .02185333294781695 -.0
02536107070267195 .0843304056618658 .02180477829691605 -.00292431930923055 .0853
340928255434 .02179705526019695 -.00298133895824015 .0862934922224825 .021832845
0305869 -.00270682062028079 .0871111842691769 .0218965088317389 -.00213140821561
2365 .0876980148713346 .0219608580034101 -.001311760555153884 .0879804146125527
 .02199733782217105 -.0003422407592359225 .0879267817611019 .0219901353219374 .0
00658747692885074 .0875490278574396 .0219430522721431 .00158191560520676 .086885
5518982974 .0218759069745959 .002333386817230925 .0860045176169376 .021817631760
6366 .00282682584487653 .085 .02179449471770335 .003 41 255 1 237 L.082 .022 115
4169305516436e-33 41 1 238 L.085 .02179449471770335 .003 14 255 15 5 250 ?134 0
 36 4 235 +0 0 134 0 28 51 22 130 0 134 235 251 252 +.12 734788079488412e-32 0 1
 612323399573677e-31 0 .022 612323399573677e-31 -1 0 141 255 249 231 253 253 235
 141 253 234 249 249 235 14 134 23 254 ?255 15 256 4 22 +0 0 255 15 28 50 251 14
4 0 255 22 257 0 +673555739531044e-33 412433940232011e-49 0 -1 -612323399573677e
-31 0 0 0 -1 141 252 20 258 258 22 38 20 243 0 128 234 6 0 +21 22 259 260 261 14
1 258 6 252 252 22 51 21 192 0 129 262 247 263 +.012 .024 -734788079488412e-32 0
 -1 0 .003 0 0 1 40 15 259 0 1 15 .000174712938154023 .3440720459612335 ??.009 .
022 -167058647699037e-33 .00916729749482221 .0219778116172389 -.0009878241327075
94 .0096495257051419 .02192087428481785 -.00186420776449711 .01039745173921632 .
0218533329478169 -.002536107070267195 .0113304056618658 .02180477829691605 -.002
92431930923055 .01233409282554344 .02179705526019695 -.00298133895824015 .013293
4922224825 .0218328450305869 -.002706820620280795 .01411118426917694 .0218965088
317389 -.002131408215612355 .01469801487133456 .0219608580034101 -.0013117605551
53862 .0149804146125527 .02199733782217105 -.000342240759235905 .014926781761101
86 .0219901353219374 .000658747692885092 .01454902785743962 .02194305227214305 .
00158191560520678 .01388555189829736 .0218759069745959 .00233338681723095 .01300
451761693758 .0218176317606366 .00282682584487655 .012 .02179449471770335 .003 4
1 1 260 L.009 .022 -167058647699037e-33 41 1 261 L.012 .02179449471770335 .003 1
4 129 100 264 ?265 266 122 4 21 -0 0 265 266 28 50 262 191 0 266 267 21 0 +-.004
 0 0 -1 0 0 0 0 -1 50 247 196 0 265 21 18 0 +.012 .01 -734788079488412e-32 0 1 0
 0 0 -1 141 263 20 268 268 21 141 268 6 263 263 21 14 265 105 269 ?246 129 270 4
 247 +0 0 246 129 28 81 1 269 389 271 265 272 0 264 273 274 14 246 107 273 ?17 2
65 275 4 18 -0 0 17 265 28 15 270 106 0 222 265 0 13 28 3 0 0 0 0 0 0 8 15 17 22
2 0 270 222 222 112 114 219 0 0 +17 114 0 122 127 123 112 222 219 0 123 -17 123
 0 122 114 121 112 127 130 0 222 +81 1 273 390 271 246 276 0 269 277 278 14 17 1
12 277 ?0 246 279 4 5 +0 0 0 246 28 15 275 108 0 120 246 0 17 120 0 275 119 280
 56 240 233 0 281 -17 119 0 275 230 120 47 281 242 0 240 -17 280 0 275 120 117 4
7 230 223 0 0 -17 240 0 282 281 281 47 120 233 0 280 +17 281 0 282 240 240 56 11
9 242 0 0 +15 282 18 0 240 15 0 16 242 22 283 ?281 233 284 234 0 0 1 81 1 283 32
1 137 242 0 0 239 285 286 16 284 29 285 ?287 242 288 289 0 0 1 81 1 285 322 137
 284 0 0 283 290 291 17 287 0 256 65 292 60 293 284 0 294 +16 288 31 290 ?65 284
 133 295 0 0 1 30 289 135 0 284 296 295 0 +.12 -.022 -269422295812418e-32 -1 -61
2323399573677e-31 0 31 296 134 0 209 297 289 0 +.0342696969170857 20984137318629
5e-32 0 1 612323399573677e-31 0 -612323399573677e-31 1 0 .022 31 295 137 0 288 2
89 298 0 +0 0 0 1 612323399573677e-31 0 -612323399573677e-31 1 0 .022 31 298 139
 0 133 295 299 0 +0 0 0 1 612323399573677e-31 0 -612323399573677e-31 1 0 .022 16
 133 33 300 ?294 288 128 298 0 0 1 31 299 145 0 214 298 152 0 +0 0 0 -1 0 0 0 0
 1 .005 16 214 42 301 ?302 151 210 299 0 0 1 31 152 148 0 303 299 150 0 +.117269
696917086 718069794832446e-32 0 1 612323399573677e-31 0 -612323399573677e-31 1 0
 .022 16 303 46 304 ?305 306 151 152 0 0 1 81 1 304 349 137 303 0 0 307 308 309
 17 305 0 310 311 311 73 72 303 0 146 +16 306 25 307 ?59 209 303 297 0 0 1 16 15
1 49 308 ?311 303 214 150 0 0 1 81 1 308 350 137 151 0 0 304 212 312 17 311 0 31
0 305 305 70 75 151 0 0 +15 310 92 0 305 313 0 17 75 0 145 140 72 73 311 151 0 3
05 -15 145 45 0 72 314 0 17 72 0 145 75 146 70 305 303 0 311 -17 146 0 145 72 14
7 73 140 136 0 0 -17 147 0 145 146 81 76 315 148 0 0 +17 81 0 145 147 140 79 78
 141 0 315 +17 315 0 316 78 78 79 147 148 0 0 -15 316 61 0 315 317 0 17 78 0 316
 315 315 76 81 141 0 140 -14 317 55 318 ?319 314 320 4 321 +0 0 319 314 28 81 1
 318 379 271 317 322 0 323 324 325 14 319 62 324 ?326 317 327 4 328 +0 0 326 317
 28 14 314 44 323 ?317 255 145 4 257 +0 0 317 255 28 15 320 56 0 159 317 316 50
 321 157 0 317 257 328 0 +.112269696917086 .022 0 1 612323399573677e-31 0 0 0 1
 51 257 147 0 314 251 321 0 +.12 734788079488412e-32 0 1 612323399573677e-31 0 .
022 612323399573677e-31 -1 0 51 328 162 0 319 321 329 0 +.12 734788079488412e-32
 0 1 612323399573677e-31 0 .024 612323399573677e-31 -1 0 54 255 329 170 0 326 32
8 330 0 +.104269696917086 693889390390723e-32 0 1 612323399573677e-31 0 .032 .01
 0 0 1 14 326 71 331 ?332 319 333 4 329 -0 0 332 319 28 52 255 330 172 0 332 329
 334 0 +.0402696969170857 246580777160715e-32 0 -1 -612323399573677e-31 0 .022 .
707106781186545 .707106781186551 -612323399573677e-31 1 0 14 332 74 335 ?336 326
 337 4 330 +0 0 336 326 28 51 334 178 0 336 330 338 0 +.12 734788079488412e-32 0
 1 612323399573677e-31 0 .024 612323399573677e-31 -1 0 14 336 81 339 ?340 332 34
1 4 334 +0 0 340 332 28 52 338 184 0 340 334 342 0 +.0362696969170857 2220878411
77768e-32 0 1 612323399573677e-31 0 .024 .707106781186552 .707106781186544 61232
3399573677e-31 -1 0 14 340 88 343 ?313 336 344 4 338 +0 0 313 336 28 53 255 342
 186 0 313 338 267 0 +.03 -367394039744206e-32 0 .09 80843973490927e-30 0 1 -1 0
 80843973490927e-30 14 313 91 345 ?346 340 310 4 342 +0 0 346 340 28 51 267 187
 0 346 342 262 0 +-.004 0 0 1 0 0 .005 0 0 1 14 346 93 347 ?266 313 348 4 267 +0
 0 266 313 28 81 1 347 386 271 346 349 0 345 350 351 14 266 98 350 ?129 346 352
 4 262 +0 0 129 346 28 15 348 94 0 302 346 0 17 302 0 348 213 353 67 69 214 0 35
3 +17 213 0 348 111 302 109 353 210 0 218 +17 353 0 348 302 111 67 213 210 0 0 -
17 69 0 354 69 69 67 302 214 0 302 -15 354 41 0 69 255 0 14 255 39 355 ?314 134
 356 4 251 +0 0 314 134 28 81 1 355 377 271 255 357 0 254 323 358 15 356 40 0 35
9 255 354 17 359 0 356 62 62 63 294 133 0 0 -17 62 0 356 359 359 60 65 288 0 287
 -17 294 0 256 293 65 60 359 133 0 0 +15 256 24 0 55 134 131 17 293 0 256 55 294
 57 287 284 0 208 -17 65 0 256 294 287 63 62 288 0 359 +17 55 0 256 292 293 53 5
9 306 0 360 -17 208 0 344 360 361 57 362 205 0 0 +15 344 89 0 363 340 0 17 360 0
 344 59 208 53 292 209 0 0 +17 361 0 344 208 363 101 108 199 0 198 -17 362 0 344
 363 59 101 208 205 0 0 -17 363 0 344 361 362 106 105 202 0 0 -17 59 0 344 362 3
60 57 55 306 0 292 +17 292 0 256 287 55 57 360 209 0 293 -16 209 28 364 ?360 205
 306 296 0 0 1 81 1 364 347 137 209 0 0 207 307 365 80 255 1 137 366 367 9000 1
 1 1 1 1 1 1 1 0 FFFFTFTFFFFFFF3 81 1 207 346 137 205 0 0 204 364 368 81 1 307 3
48 137 306 0 0 364 304 369 84 255 32 365 3eba4c4594d35f066ad8fb96185b1a5284 32 3
69 de9baa036789c51ca8dfa1e2fa93eaf881 1 204 345 137 202 0 0 201 207 370 84 32 36
8 5c1f1c08dc89f768386a4b5a506d11db81 1 201 344 137 199 0 0 197 204 371 84 32 370
 15fbcc9d89e3d2ecc1ee1c427f745ad481 1 197 343 137 195 0 0 193 201 372 84 32 371
 4d06e9ed197dc7535bae3de7c838fe5181 1 193 342 137 191 0 0 190 197 373 84 32 372
 5952beb69aedf3baf9ec36977cc05be681 1 190 341 137 188 0 0 186 193 374 84 32 373
 f8f052f2b45197dd721ee630aa61420381 1 186 340 137 184 0 0 375 190 376 84 32 374
 9798b2f7fe141096ef83f5876584578681 1 375 339 137 40 0 0 377 186 378 84 32 376 8
731bdbb23c15e72a4048ffe6788796016 40 7 375 ?39 379 184 380 0 0 1 81 1 377 338 13
7 379 0 0 381 375 382 84 32 378 93c3683de9710cdb3c3f893ddc0ab7ad16 379 10 377 ?4
1 183 40 383 0 0 1 81 1 381 337 137 183 0 0 181 377 384 84 32 382 7df170deeb8d28
c728c410f3d991c5b916 183 17 381 ?385 179 379 386 0 0 1 81 1 181 336 137 179 0 0
 177 381 387 84 32 384 63b4bafb980a1e46636252e78017ae4a81 1 177 335 137 175 0 0
 173 181 388 84 32 387 cfd66f412d99f184efda8278b592ddc181 1 173 334 137 171 0 0
 170 177 389 84 32 388 1208229976edeb3450bbb2698cda121081 1 170 333 137 168 0 0
 166 173 390 84 32 389 53702184e32b815adc2363236743eb8281 1 166 332 137 164 0 0
 162 170 391 84 32 390 c2723b5b47a4c773cb04cbaa0c0786be81 1 162 331 137 160 0 0
 158 166 392 84 32 391 c5d5a2626e58e03f51efa4a4b4d633ea81 1 158 330 137 156 0 0
 155 162 393 84 32 392 c8da24584ae5e91e8db0beb27d401ddc81 1 155 329 137 148 0 0
 143 158 394 84 32 393 4573db258f41c239f121b18fd387f75881 1 143 328 137 141 0 0
 138 155 395 84 32 394 fb2fce86434305e8ee9061d39ff1c44084 32 395 9c71a4ea0d039ba
aadd97417754d8e3d17 385 0 333 41 182 34 38 183 0 0 +31 386 125 0 183 396 297 0 +
.104269696917086 638467752887868e-32 0 1 612323399573677e-31 0 -612323399573677e
-31 1 0 .022 31 396 124 0 241 397 386 0 +.0402696969170857 246580777160715e-32 0
 1 612323399573677e-31 0 -612323399573677e-31 1 0 .022 31 297 131 0 306 386 296
 0 +.0342696969170857 209841373186295e-32 0 1 612323399573677e-31 0 -61232339957
3677e-31 1 0 .022 16 241 16 398 ?399 31 233 396 0 0 1 31 397 122 0 31 32 396 0 +
.0402696969170857 246580777160715e-32 0 1 612323399573677e-31 0 -612323399573677
e-31 1 0 .022 16 31 14 400 ?401 9 241 397 0 0 1 30 32 120 0 9 383 397 0 +.12 -.0
22 -269422295812418e-32 -1 -612323399573677e-31 0 31 383 118 0 379 380 32 0 +.10
4269696917086 638467752887868e-32 0 1 612323399573677e-31 0 -612323399573677e-31
 1 0 .022 31 380 115 0 40 0 383 0 +.104269696917086 638467752887868e-32 0 1 6123
23399573677e-31 0 -612323399573677e-31 1 0 .022 81 1 400 318 137 31 0 0 29 398 4
02 17 401 0 36 399 30 46 50 31 0 194 +15 36 6 0 33 15 282 17 399 0 36 403 401 42
 52 241 0 0 +17 30 0 36 401 37 42 403 9 0 399 +17 50 0 337 52 194 42 401 31 0 30
 -17 194 0 337 50 100 46 404 191 0 0 +15 337 75 0 187 332 0 17 100 0 337 194 187
 98 103 188 0 405 +17 404 0 337 187 52 98 194 191 0 0 -17 187 0 337 100 404 97 4
05 184 0 406 +17 52 0 337 404 50 46 399 241 0 401 -17 405 0 341 103 406 98 187 1
84 0 404 -17 406 0 341 405 105 97 198 195 0 0 -15 341 82 0 405 336 0 17 105 0 34
1 406 108 101 363 202 0 361 +17 198 0 341 108 103 101 406 195 0 362 +17 108 0 34
1 105 198 106 361 199 0 363 +17 103 0 341 198 405 97 100 188 0 187 -17 37 0 36 3
0 33 34 41 379 0 403 -17 403 0 36 38 399 34 30 9 0 385 -17 38 0 36 33 403 45 385
 183 0 182 -17 182 0 333 385 96 45 407 179 0 0 +15 333 72 0 408 326 0 17 96 0 33
3 182 90 94 178 175 0 174 -17 407 0 333 408 39 94 182 179 0 0 -17 408 0 333 90 4
07 91 174 171 0 0 -17 39 0 333 407 41 45 33 40 0 38 +17 41 0 333 39 385 10 37 37
9 0 0 +17 90 0 333 96 408 86 93 168 0 167 -17 174 0 327 178 93 94 408 171 0 407
 +15 327 63 0 85 319 0 17 178 0 327 409 174 86 96 175 0 0 +17 93 0 327 174 167 9
1 90 168 0 408 +17 167 0 327 93 88 86 409 164 0 178 +17 88 0 327 167 85 82 163 1
60 0 159 -17 409 0 327 85 178 82 167 164 0 0 -17 85 0 327 88 409 83 159 156 0 16
3 -17 159 0 320 163 163 82 85 156 0 409 +17 163 0 320 159 159 83 88 160 0 0 +81
 1 29 317 137 9 0 0 226 400 410 81 1 398 319 137 241 0 0 400 239 411 84 32 402 a
f7c19ce31a273cc423a08e50dc61a0e81 1 239 320 137 233 0 0 398 283 412 84 32 411 cc
6c5961643db2f0062406742083616584 32 412 e25309f5dc2d39fdae9c02c672b5e96481 1 226
 316 137 224 0 0 221 29 413 84 32 410 1dfbb7948eddcd76685dc8dd8548063f81 1 221 3
15 137 219 0 0 217 226 414 84 32 413 2f8c81868e3539dce60ec0188038087c81 1 217 31
4 137 215 0 0 301 221 415 84 32 414 97f483461652730644d53b9117265a0981 1 301 313
 137 214 0 0 0 217 416 84 32 415 eb602679cc7120b0e52e0e82f9cb21a284 32 416 bebd0
1e8021bbc5c9a1ae2e2aad21cd979 255 15 367 UGS/ObjectState80 1 271 0 417 8001 0 0
 0 0 3 5 0 0 0 FFFFTFTFFFFFFF2 81 1 357 356 137 255 0 355 418 419 420 81 1 254 3
76 271 134 418 0 250 355 421 81 1 323 378 271 314 419 0 355 318 422 83 255 3 358
 .6 0 0 81 1 419 357 137 314 0 323 357 322 423 83 3 422 .6 0 0 81 1 322 358 137
 317 0 318 419 424 425 84 32 423 2cd98c971d97926dab0e96ac4be8ca3081 1 424 359 13
7 319 0 324 322 426 427 84 32 425 589e38fdc38bb75c7ddb46e391bc7cdc81 1 324 380 2
71 319 424 0 318 331 428 81 1 426 360 137 326 0 331 424 429 430 84 32 427 6e6aa5
bc37bd3d3ae6f6868edada39ca81 1 331 381 271 326 426 0 324 335 431 81 1 429 361 13
7 332 0 335 426 432 433 84 32 430 a8b8ec4d15158da0c7cbc2bba564167081 1 335 382 2
71 332 429 0 331 339 434 81 1 432 362 137 336 0 339 429 435 436 84 32 433 e6a139
1a0a9e687a8ca782d58be7074f81 1 339 383 271 336 432 0 335 343 437 81 1 435 363 13
7 340 0 343 432 438 439 84 32 436 a7b6a37f40af4e6bc85a0df6d469ffde81 1 343 384 2
71 340 435 0 339 345 440 81 1 438 364 137 313 0 345 435 349 441 84 32 439 55a34b
9476ad2e339ae698135054eb7681 1 345 385 271 313 438 0 343 347 442 81 1 349 365 13
7 346 0 347 438 443 444 84 32 441 945b740a2a29ab267663e0a911b9c72b81 1 443 366 1
37 266 0 350 349 445 446 84 32 444 eb1c36af601bdabb87eaac57826dc6e481 1 350 387
 271 266 443 0 347 264 447 81 1 445 367 137 129 0 264 443 272 448 84 32 446 f9cc
b45295a0569670706fd653424e1381 1 264 388 271 129 445 0 350 269 449 81 1 272 368
 137 265 0 269 445 276 450 84 32 448 b33c069e6b60c3c92be6669b2acbdde981 1 276 36
9 137 246 0 273 272 451 452 84 32 450 796597a4df100f4a17590c0bb470dbdf81 1 451 3
70 137 17 0 277 276 0 453 84 32 452 abea562ef20b5712b1c295d0f67a45f881 1 277 391
 271 17 451 0 273 0 454 84 32 453 3c73187dc797ea6c51a6683dbf205fae83 3 454 .6 0
 0 83 3 449 .6 0 0 83 3 447 .6 0 0 83 3 442 .6 0 0 83 3 440 .6 0 0 83 3 437 .6 0
 0 83 3 434 .6 0 0 83 3 431 .6 0 0 83 3 428 .6 0 0 81 1 418 355 137 134 0 254 45
5 357 456 81 1 250 375 271 15 455 0 0 254 457 83 3 421 .6 0 0 81 1 455 354 137 1
5 0 250 229 418 458 83 3 457 .6 0 0 81 1 229 353 137 223 0 0 232 455 459 84 32 4
58 57808cc76bc36730a012f97e94b1b1a281 1 232 352 137 130 0 0 212 229 460 84 32 45
9 80f7a7f52412a3ed12cb04b75f5faf2781 1 212 351 137 210 0 0 308 232 461 84 32 460
 ac80ad8310c31c16f62b984428c0f75b84 32 461 b787ab90cee90e2ce483cce462bcd15e84 32
 456 215b9bab9c9ade1c8a3790119a1de79e84 32 420 f3f3cde36bedef5e163973343154cf287
9 15 417 SDL/TYSA_COLOUR17 111 0 348 353 213 109 218 215 0 213 -17 218 0 352 218
 218 109 111 215 0 0 +15 352 99 0 218 266 0 83 3 351 .6 0 0 83 3 325 .6 0 0 84 3
2 312 cd7a9840835fcc30b1cb3b6a5950477684 32 309 5861d14e6e9e2b6af1b4279aaed271f4
81 1 300 324 137 133 0 0 290 132 462 81 1 290 323 137 288 0 0 285 300 463 81 1 1
32 325 137 128 0 0 300 135 464 84 32 462 8ac047d2aa79e6b3e4a5d6fe21ac4ffa84 32 4
64 c66bc969c845fb69e5083560e13cfab684 32 463 75ed42b466cf029d00463024d532797f84
 32 291 7e8205b9a9f9c25936360cc2b7cd169f84 32 286 a32b3cf164d8a8b4dae28f8a15f8f0
1217 117 0 275 280 230 115 227 224 0 230 -17 230 0 275 117 119 115 280 223 0 227
 +17 227 0 279 227 227 115 117 224 0 0 +15 279 113 0 227 17 0 83 3 278 .6 0 0 83
 3 274 .6 0 0 141 248 231 465 465 18 141 465 234 248 248 18 40 6 243 0 1 6 .0001
712047128251965 .339594274073417 ??.085 .02179449471770335 .003 .084012226565910
2 .0218168672443386 .00283272018436453 .0831358896374995 .02187406929319695 .002
35055154302519 .0824639232265714 .02194155157231875 .001602596205934535 .0820756
950474958 .02198980580758365 .000669657035175053 .082 .022 250045204450684e-32 4
1 1 244 L.085 .02179449471770335 .003 41 1 245 L.082 .022 250045204450684e-32 84
 32 144 9e020d83814029f30ab1132ab91b3c2f84 32 139 666882644a9e4623ba4ce93276d490
6e19 16 1 0 1 0 8 4 S0 40 6 23 0 1 6 .0001712047128252125 .339594274073421 ??.01
2 .02179449471770335 .003 .01101222656591014 .0218168672443386 .0028327201843645
45 .01013588963749948 .02187406929319695 .0023505515430252 .00946392322657137 .0
2194155157231875 .001602596205934545 .00907569504749581 .02198980580758365 .0006
69657035175049 .009 .022 -1331453363684064e-34 41 1 24 L.012 .02179449471770335
 .003 41 1 25 L.009 .022 -1331453363684064e-34 74 4 CI16 index_map_offset0 0 1 d
CCZ20 14 5 0 0 466 451 277 12 2 0 0 0 0 0 0 0 0 0 0 0 0 0 0 0 81 2 466 300 467 1
 0 12 0 0 468 469 81 1 12 392 470 1 466 2 0 0 471 80 1 470 472 473 9000 0 0 0 0
 3 5 0 0 0 FFTFFFFFFFFFFF1 82 255 1 471 198 79 24 473 UG2/BODY_COLOR_ATTRIBUTE80
 2 467 474 475 8004 0 0 0 0 3 5 0 0 0 FFTFFFFFFFFFFF2 3 83 1 468 7830.64 84 8 46
9 Kg/Cu M 79 16 475 SDL/TYSA_DENSITY80 1 11 476 477 8038 0 0 0 0 0 0 0 0 0 TTTTT
TTTTTTTTF10 98 255 6 13 83 79 76 73 68 49 79 14 477 SDL/TYSA_UNAME1 0 
