**ABCDEFGHIJKLMNOPQRSTUVWXYZabcdefghijklmnopqrstuvwxyz**************************
**PARASOLID !"#$%&'()*+,-./:;<=>?@[\]^_`{|}~0123456789**************************
**PART1;
MC=x64/Windows NT;
MC_MODEL=genuineintel family 6 model 14 stepping 10, intel(r) core(tm) i5-8300h cpu @ 2.30ghz;
MC_ID=desktop-goj3fk4;
OS=windows nt (x64);
OS_RELEASE=6.3 windows 10 home single language (build 17763) ;
FRU=mdc_ugii_v7.0_djl_can_vrh;
APPL=unigraphics;
SITE=unknown;
USER=Maktub;
FORMAT=text;
GUISE=transmit;
KEY=CuerpoLlanta;
FILE=D:\Maktub\Desktop\CuerpoLlanta.x_t;
DATE=12-feb-2020;
**PART2;
SCH=SCH_2700178_26105;
USFLD_SIZE=0;
**PART3;
**END_OF_HEADER*****************************************************************
T51 : TRANSMIT FILE created by modeller version 270017823 SCH_2700178_26105_1300
6196 0 12 30 CCCCCCCCCCCCCDI5 owner1040 0 CCCCCCCCCA13 boundary_mesh1006 0 A16 i
ndex_map_offset0 0 1 dA9 index_map82 0 A17 node_id_index_map82 0 A20 schema_embe
dding_map82 0 A5 child12 0 A14 lowest_node_id0 0 1 dZ1 189 2 3 0 0 0 0 1e3 1e-8
 0 0 0 1 0 1 1 4 5 6 7 8 9 10 0 0 0 0 0 0 0 81 255 1 2 189 11 1 12 0 0 0 13 70 1
1 CI9 list_type0 0 1 uI10 notransmit0 0 1 lCCCDCCDI12 finger_index0 0 1 dI12 fin
ger_block1012 0 CZ3 0 4 T1 0 0 5 20 1 14 14 13 255 4 4 0 1 0 15 0 0 16 0 54 255
 5 105 0 17 18 0 0 +0 -.005 0 0 -1 0 .0285 .001 0 0 -1 31 255 6 106 0 19 20 0 0
 +-349024337756996e-32 -.005 .0285 -1 0 -122464679914735e-30 -122464679914735e-3
0 0 1 .001 29 255 7 101 0 21 22 0 0 .005 .0275 19 8 CCCCCCCA5 owner12 0 Z8 2 0 1
 16 0 23 V0 16 255 9 12 24 ?25 0 26 27 0 0 1 18 255 10 8 0 28 0 29 30 ?1 17 255
 28 0 31 32 32 10 33 34 0 35 -18 29 9 0 33 10 36 37 ?1 29 30 63 0 10 0 37 0 -.00
6 .0351010205144336 29 37 64 0 29 30 38 -429863524198067e-32 -.006 -.03510102051
44336 29 38 67 0 39 37 40 0 -.006 -.0285 18 39 13 0 41 36 42 38 ?1 29 40 68 0 36
 38 43 -349024337756996e-32 -.006 .0285 18 36 14 0 44 29 39 40 ?1 29 43 72 0 42
 40 45 0 -.00428571428571428 .0358008747266574 18 42 19 0 46 39 47 43 ?1 29 45 7
3 0 47 43 48 -438434266406764e-32 -.00428571428571428 -.0358008747266574 18 47 2
0 0 49 42 50 45 ?1 29 48 78 0 50 45 51 0 .00428571428571428 .0358008747266574 18
 50 26 0 52 47 53 48 ?1 29 51 79 0 53 48 54 -438434266406764e-32 .00428571428571
428 -.0358008747266574 18 53 27 0 55 50 56 51 ?1 29 54 84 0 56 51 57 0 .006 .035
1010205144336 18 56 33 0 58 53 59 54 ?1 29 57 85 0 59 54 60 -429863524198067e-32
 .006 -.0351010205144336 18 59 34 0 61 56 62 57 ?1 29 60 90 0 63 57 64 0 .006 .0
285 18 63 41 0 65 62 66 60 ?1 29 64 91 0 62 60 67 -349024337756996e-32 .006 -.02
85 18 62 42 0 68 59 63 64 ?1 29 67 95 0 69 64 70 0 -.005 -.0275 18 69 47 0 71 66
 72 67 ?1 29 70 96 0 66 67 22 -336777869765522e-32 -.005 .0275 18 66 48 0 73 63
 69 70 ?1 29 22 99 0 72 70 7 -336777869765522e-32 .005 -.0275 18 72 51 0 74 69 2
1 22 ?1 17 74 0 75 76 77 72 78 79 0 80 +18 21 53 0 77 72 0 7 ?1 17 77 0 75 74 81
 21 80 82 0 78 +15 255 75 45 0 83 84 0 17 81 0 75 77 71 72 76 85 0 86 +17 80 0 8
7 88 78 72 77 82 0 81 -16 82 52 89 ?77 85 79 90 0 0 1 17 78 0 87 80 86 21 74 79
 0 0 -15 87 56 0 78 91 0 17 86 0 87 78 68 72 88 92 0 0 -16 79 54 93 ?74 82 92 94
 0 0 1 81 1 93 165 95 79 0 0 89 96 97 16 92 57 96 ?88 79 19 20 0 0 1 31 94 102 0
 79 90 20 0 +0 .005 0 0 1 0 0 0 1 .0275 31 90 100 0 82 98 94 0 +0 .005 0 0 1 0 0
 0 1 .0275 31 20 104 0 92 94 6 0 +-349024337756996e-32 .005 -.0285 -1 0 12246467
9914735e-30 -122464679914735e-30 0 -1 .001 30 255 98 98 0 85 99 90 0 +-336777869
765522e-32 -.01 -.0275 0 1 0 16 85 50 100 ?81 101 82 98 0 0 1 31 99 97 0 101 102
 98 0 +0 -.005 0 0 -1 0 0 0 -1 .0275 16 101 49 103 ?71 104 85 99 0 0 1 31 102 94
 0 104 105 99 0 +0 -.005 0 0 -1 0 0 0 -1 .0275 16 104 46 106 ?83 107 101 102 0 0
 1 31 105 92 0 107 108 102 0 +0 .006 0 0 -1 0 0 0 1 .0285 16 107 43 109 ?110 111
 104 105 0 0 1 31 108 89 0 111 112 105 0 +0 .006 0 0 -1 0 0 0 1 .0285 16 111 40
 113 ?114 115 107 108 0 0 1 31 112 87 0 116 117 108 0 +-429863524198067e-32 .005
 -.0351010205144336 -1 0 122464679914735e-30 -122464679914735e-30 0 -1 .001 16 1
16 36 118 ?119 120 121 112 0 0 1 31 117 86 0 115 122 112 0 +0 .006 0 0 1 0 0 0 1
 .0351010205144336 16 115 35 123 ?124 125 111 117 0 0 1 31 122 83 0 125 126 117
 0 +0 .006 0 0 1 0 0 0 1 .0351010205144336 16 125 32 127 ?128 129 115 122 0 0 1
 31 126 81 0 130 131 122 0 +-489858719658941e-32 0 -.04 1 0 -122464679914735e-30
 -122464679914735e-30 0 -1 .006 16 130 29 132 ?133 34 134 126 0 0 1 31 131 80 0
 121 135 126 0 +0 .00428571428571428 0 0 1 0 0 0 1 .0358008747266574 16 121 28 1
36 ?137 116 129 131 0 0 1 31 135 77 0 129 138 131 0 +0 .00428571428571428 0 0 1
 0 0 0 1 .0358008747266574 16 129 25 139 ?55 121 125 135 0 0 1 31 138 75 0 140 1
41 135 0 +-429863524198067e-32 -.005 -.0351010205144336 -1 0 122464679914735e-30
 -122464679914735e-30 0 -1 .001 16 140 22 142 ?143 26 144 138 0 0 1 31 141 74 0
 134 145 138 0 +0 -.00428571428571428 0 0 1 0 0 0 1 .0358008747266574 16 134 21
 146 ?147 130 120 141 0 0 1 31 145 71 0 120 148 141 0 +0 -.00428571428571428 0 0
 1 0 0 0 1 .0358008747266574 16 120 18 149 ?49 134 116 145 0 0 1 31 148 69 0 26
 27 145 0 +0 -.006 0 0 1 0 0 0 -1 .0285 16 26 15 150 ?151 9 140 148 0 0 1 31 27
 66 0 9 152 148 0 +0 -.006 0 0 1 0 0 0 -1 .0285 31 152 65 0 144 153 27 0 +0 -.00
6 0 0 1 0 0 0 1 .0351010205144336 16 144 10 154 ?35 140 34 152 0 0 1 31 153 62 0
 34 0 152 0 +0 -.006 0 0 1 0 0 0 1 .0351010205144336 16 34 7 155 ?33 144 130 153
 0 0 1 81 1 155 150 95 34 0 0 154 132 156 17 33 0 157 158 35 29 28 34 0 32 +15 1
57 17 0 46 159 0 17 158 0 157 46 33 47 143 140 0 133 -17 35 0 157 33 143 10 32 1
44 0 0 +17 32 0 31 28 28 29 35 144 0 143 -15 31 6 0 28 15 160 17 143 0 157 35 16
1 29 158 140 0 0 +17 161 0 157 143 46 47 147 134 0 158 -17 46 0 157 161 158 42 4
9 120 0 147 -17 147 0 162 49 133 42 161 134 0 0 +15 162 24 0 52 163 0 17 49 0 16
2 164 147 47 46 120 0 161 +17 133 0 162 147 165 47 164 130 0 0 +17 165 0 162 133
 52 53 137 121 0 164 -17 164 0 162 52 49 53 133 130 0 119 -17 52 0 162 165 164 5
0 55 129 0 137 -17 119 0 166 137 61 53 167 116 0 0 +15 166 31 0 58 168 0 17 137
 0 166 55 119 50 165 121 0 0 +17 61 0 166 119 58 59 124 115 0 128 -17 167 0 166
 58 55 59 119 116 0 0 -17 58 0 166 61 167 56 128 125 0 124 -17 55 0 166 167 137
 53 52 129 0 165 +17 128 0 169 124 124 59 58 125 0 167 +17 124 0 169 128 128 56
 61 115 0 0 +15 169 38 0 128 170 171 14 255 170 37 172 ?84 168 169 4 173 +0 0 84
 168 23 15 171 39 0 114 170 0 17 114 0 171 110 110 62 65 111 0 88 +17 110 0 171
 114 114 63 68 107 0 0 +17 65 0 87 68 88 63 114 111 0 110 -17 88 0 87 65 80 62 8
6 92 0 0 +17 68 0 87 86 65 62 110 107 0 114 -81 1 172 184 174 170 175 0 176 177
 178 14 84 44 177 ?91 170 75 4 179 -0 0 91 170 23 14 168 30 176 ?170 163 166 4 1
80 +0 0 170 163 23 50 255 173 88 0 170 180 179 0 +376221939061093e-32 .006 0 0 1
 0 0 0 1 13 23 3 0 0 0 0 0 0 8 15 14 15 5 181 ?159 0 31 4 182 +0 0 159 0 23 81 1
 181 180 174 15 183 0 0 184 185 14 159 16 184 ?163 15 157 4 186 +0 0 163 15 23 5
0 182 61 0 15 0 186 0 +376221939061093e-32 -.006 0 0 -1 0 0 0 -1 54 186 70 0 159
 182 187 0 +0 -.005 0 0 1 0 .0351010205144336 .001 0 0 1 54 187 76 0 163 186 180
 0 +0 0 0 0 1 0 .04 .006 0 0 1 14 163 23 188 ?168 159 162 4 187 -0 0 168 159 23
 54 180 82 0 168 187 173 0 +0 .005 0 0 1 0 .0351010205144336 .001 0 0 1 81 1 188
 182 174 163 189 0 184 176 190 80 255 1 174 0 191 8001 0 0 0 0 3 5 0 0 0 FFFFTFT
FFFFFFF2 81 1 189 170 95 163 0 188 192 193 194 81 1 184 181 174 159 192 0 181 18
8 195 81 1 176 183 174 168 193 0 188 172 196 83 255 3 190 .4901961 .4901961 .490
1961 81 1 193 171 95 168 0 176 189 175 197 83 3 196 .4901961 .4901961 .4901961 8
0 1 95 198 199 9000 1 1 1 1 1 1 1 1 0 FFFFTFTFFFFFFF3 81 1 175 172 95 170 0 172
 193 200 201 84 255 32 197 b930054589c51eb1f0fe4e84d4e8342581 1 200 173 95 84 0
 177 175 202 203 84 32 201 5752eb787e1b11f3cdadd02c2d9f096281 1 177 185 174 84 2
00 0 172 204 205 81 1 202 174 95 91 0 204 200 206 207 84 32 203 9cc715a24bcc0b73
ee990dbaef107c1d14 91 55 204 ?17 84 87 4 18 +0 0 17 84 23 81 1 204 186 174 91 20
2 0 177 208 209 81 1 206 175 95 17 0 208 202 0 210 84 32 207 a218306107bb33aacdb
6d7cd58f2c6be14 17 58 208 ?0 91 211 4 5 +0 0 0 91 23 81 1 208 187 174 17 206 0 2
04 0 212 84 32 210 2e49f0eba1fd85aaa2aac0d0214694cf83 3 212 .4901961 .4901961 .4
901961 15 211 59 0 213 17 0 17 213 0 211 73 214 69 83 104 0 76 -17 73 0 211 215
 213 66 71 101 0 83 -17 214 0 211 213 44 66 215 19 0 0 -17 83 0 75 71 76 66 213
 104 0 214 +17 76 0 75 83 74 69 81 85 0 0 -17 71 0 75 81 83 69 73 101 0 213 +17
 44 0 211 214 41 36 151 26 0 25 -17 215 0 211 41 73 36 214 19 0 0 +16 19 60 216
 ?215 92 0 6 0 0 1 81 1 216 167 95 19 0 0 96 183 217 81 1 96 166 95 92 0 0 93 21
6 218 81 1 183 168 95 15 0 181 216 192 219 84 32 217 1e81ab6be3724d09ea558ee90c9
ec80881 1 192 169 95 159 0 184 183 189 220 84 32 219 cbff1934e519b203b086379713b
c963b84 32 220 44d930ddfd6b19b2bc8b962aab133d5184 32 218 343f32442c3f71f269d610f
71a3ab5d417 41 0 211 44 215 39 25 9 0 151 -17 25 0 160 151 151 36 41 9 0 215 +17
 151 0 160 25 25 39 44 26 0 0 +15 160 11 0 25 15 0 83 3 209 .4901961 .4901961 .4
901961 54 18 103 0 91 179 5 0 +0 .005 0 0 1 0 .0285 .001 0 0 1 51 255 179 93 0 8
4 173 18 0 +0 -.01 0 0 1 0 .0275 0 0 1 83 3 205 .4901961 .4901961 .4901961 79 25
5 15 199 UGS/ObjectState83 3 195 .4901961 .4901961 .4901961 84 32 194 3137eb8b85
d01678a74f9f0a8ca5dd3479 15 191 SDL/TYSA_COLOUR83 3 185 .4901961 .4901961 .49019
61 83 3 178 .4901961 .4901961 .4901961 81 1 154 149 95 144 0 0 142 155 221 81 1
 132 151 95 130 0 0 155 146 222 84 32 156 00ba2f2ab7e0155995367eac006a214981 1 1
46 152 95 134 0 0 132 149 223 84 32 222 782f61c11a9679240b66e8b99b15f7bf81 1 149
 153 95 120 0 0 146 118 224 84 32 223 797f02165c653972204fb899c9734c0e81 1 118 1
54 95 116 0 0 149 136 225 84 32 224 15c88c767ed575da7024f2afc7da16be81 1 136 155
 95 121 0 0 118 139 226 84 32 225 28060afd3d76f0111b5da9196334a6fd81 1 139 156 9
5 129 0 0 136 127 227 84 32 226 46eac70af054786a18a9e14bdac8de1b81 1 127 157 95
 125 0 0 139 123 228 84 32 227 f5eda36ee55422b7bad6b88e8de2825c81 1 123 158 95 1
15 0 0 127 113 229 84 32 228 a43f493436e56d6550dc043fffa7b07a81 1 113 159 95 111
 0 0 123 109 230 84 32 229 1c58567513e63f5dcd7f0834e15d4cf481 1 109 160 95 107 0
 0 113 106 231 84 32 230 82c69bb08590690a5cf4781686cec5df81 1 106 161 95 104 0 0
 109 103 232 84 32 231 1ead3a6df3bffd7c958892e593b1801e81 1 103 162 95 101 0 0 1
06 100 233 84 32 232 23fd17e0a1ae5644959dc2718b946ecb81 1 100 163 95 85 0 0 103
 89 234 84 32 233 531ac8a20e5c84794ddae1f8f117f55881 1 89 164 95 82 0 0 100 93 2
35 84 32 234 26f406f26c96f006568b65c1979e730484 32 235 cfc6e60136d9c7e4bf576e21f
a7e862c81 1 142 148 95 140 0 0 150 154 236 84 32 221 78eb3eed5449291cf9b65ac9cf8
791fd81 1 150 147 95 26 0 0 24 142 237 84 32 236 e4dd9964d915e2fa9e90cd3e3b326c0
481 1 24 146 95 9 0 0 0 150 238 84 32 237 6eb0236b33f7490ae121e9b0cc276e2984 32
 238 856fa700573a04dc43c5fb992c96295984 32 97 1cad543d69e370095b4087f8f638422119
 16 1 0 1 0 8 4 S0 74 4 CI16 index_map_offset0 0 1 dCCZ20 14 5 0 0 239 206 208 1
2 2 0 0 0 0 0 0 0 0 0 0 0 0 0 0 0 81 2 239 138 240 1 0 12 0 0 241 242 81 1 12 18
8 243 1 239 2 0 0 244 80 1 243 245 246 9000 0 0 0 0 3 5 0 0 0 FFTFFFFFFFFFFF1 82
 255 1 244 159 79 24 246 UG2/BODY_COLOR_ATTRIBUTE80 2 240 247 248 8004 0 0 0 0 3
 5 0 0 0 FFTFFFFFFFFFFF2 3 83 1 241 7830.64 84 8 242 Kg/Cu M 79 16 248 SDL/TYSA_
DENSITY80 1 11 249 250 8038 0 0 0 0 0 0 0 0 0 TTTTTTTTTTTTTF10 98 255 7 13 83 79
 76 73 68 49 48 79 14 250 SDL/TYSA_UNAME1 0 
