**ABCDEFGHIJKLMNOPQRSTUVWXYZabcdefghijklmnopqrstuvwxyz**************************
**PARASOLID !"#$%&'()*+,-./:;<=>?@[\]^_`{|}~0123456789**************************
**PART1;
MC=x64/Windows NT;
MC_MODEL=genuineintel family 6 model 14 stepping 10, intel(r) core(tm) i5-8300h cpu @ 2.30ghz;
MC_ID=desktop-goj3fk4;
OS=windows nt (x64);
OS_RELEASE=6.3 windows 10 home single language (build 17763) ;
FRU=mdc_ugii_v7.0_djl_can_vrh;
APPL=unigraphics;
SITE=unknown;
USER=Maktub;
FORMAT=text;
GUISE=transmit;
KEY=Defensa;
FILE=D:\Maktub\Desktop\Defensa.x_t;
DATE=12-feb-2020;
**PART2;
SCH=SCH_2700178_26105;
USFLD_SIZE=0;
**PART3;
**END_OF_HEADER*****************************************************************
T51 : TRANSMIT FILE created by modeller version 270017823 SCH_2700178_26105_1300
6196 0 12 30 CCCCCCCCCCCCCDI5 owner1040 0 CCCCCCCCCA13 boundary_mesh1006 0 A16 i
ndex_map_offset0 0 1 dA9 index_map82 0 A17 node_id_index_map82 0 A20 schema_embe
dding_map82 0 A5 child12 0 A14 lowest_node_id0 0 1 dZ1 234 2 3 0 0 0 0 1e3 1e-8
 0 0 0 1 0 1 1 4 5 6 7 8 9 10 0 0 0 0 0 0 0 81 255 1 2 234 11 1 12 0 0 0 13 70 1
1 CI9 list_type0 0 1 uI10 notransmit0 0 1 lCCCDCCDI12 finger_index0 0 1 dI12 fin
ger_block1012 0 CZ3 0 4 T1 0 0 5 20 1 14 14 13 255 4 4 0 1 0 15 0 0 16 0 51 255
 5 132 0 17 18 0 0 +0 0 0 1 122464679914735e-30 0 .001 122464679914735e-30 -1 0
 30 255 6 133 0 19 20 0 0 +122464679914736e-33 -.001 -122464679914736e-33 -1 -12
2464679914735e-30 0 29 255 7 129 0 21 22 0 -.011 -.001 -122464679914736e-33 19 8
 CCCCCCCA5 owner12 0 Z8 2 0 1 16 0 23 V0 16 255 9 7 24 ?25 0 26 27 0 0 1 18 255
 10 9 0 28 0 29 30 ?1 17 255 28 0 31 32 33 10 34 26 0 25 -18 29 8 0 33 10 35 36
 ?1 29 30 78 0 10 36 37 122250699907343e-32 -.001 -122464679914736e-33 29 36 77
 0 29 0 30 977577639243963e-33 .001 0 29 37 82 0 35 30 38 -.03 .004 0 18 35 14 0
 39 29 40 37 ?1 29 38 83 0 40 37 41 -.03 -432669971135676e-32 .004 18 40 15 0 42
 35 43 38 ?1 29 41 87 0 43 38 44 -.0240952624903444 .00475 0 18 43 20 0 45 40 46
 41 ?1 29 44 88 0 46 41 47 -.0240952624903444 -369542643219231e-32 .00475 18 46
 21 0 48 43 49 44 ?1 29 47 93 0 49 44 50 -.0231270166537926 .004 0 18 49 27 0 51
 46 52 47 ?1 29 50 94 0 53 47 54 -.0231270166537926 -309194393362415e-32 .004 18
 53 28 0 55 52 56 50 ?1 29 54 96 0 52 50 57 -.0231270166537926 -.004 -4898587196
58942e-33 18 52 30 0 58 49 53 54 ?1 29 57 101 0 56 54 59 -.0188729833462074 .004
 0 18 56 36 0 60 53 61 57 ?1 29 59 102 0 62 57 63 -.0188729833462074 -3091943933
62415e-32 .004 18 62 37 0 64 61 65 59 ?1 29 63 104 0 61 59 66 -.0188729833462074
 -.004 -489858719658942e-33 18 61 39 0 67 56 62 63 ?1 29 66 109 0 65 63 68 -.017
9047375096556 .00475 0 18 65 45 0 69 62 70 66 ?1 29 68 110 0 70 66 71 -.01790473
75096556 -306521652710811e-32 .00475 18 70 46 0 72 65 73 68 ?1 29 71 115 0 73 68
 74 -.012 .004 0 18 73 52 0 75 70 76 71 ?1 29 74 116 0 76 71 77 -.012 -185718815
589154e-32 .004 18 76 53 0 78 73 79 74 ?1 29 77 121 0 79 74 80 -.012 .002 0 18 7
9 60 0 81 76 82 77 ?1 29 80 122 0 82 77 83 -.012 -166843664672681e-32 .002 18 82
 61 0 84 79 85 80 ?1 29 83 126 0 85 80 22 -.011 .001 0 18 85 66 0 86 82 21 83 ?1
 29 22 127 0 87 83 7 -.011 -142350728689734e-32 .001 18 87 67 0 88 21 0 22 ?1 17
 88 0 89 90 91 87 92 93 0 94 -18 21 69 0 92 85 87 7 ?1 17 92 0 31 95 94 21 88 93
 0 91 +15 255 31 73 0 33 17 0 17 95 0 31 33 92 10 32 19 0 0 -17 94 0 31 92 96 87
 86 97 0 98 +16 93 70 99 ?92 97 0 100 0 0 1 17 91 0 89 88 86 21 96 101 0 32 -15
 89 64 0 86 102 0 17 86 0 89 91 98 85 94 97 0 96 -17 96 0 31 94 32 85 91 101 0 0
 +16 101 68 103 ?96 19 97 104 0 0 1 17 32 0 31 96 28 21 95 19 0 0 +16 19 74 105
 ?32 106 101 6 0 0 1 81 1 105 205 107 19 0 0 108 103 109 16 106 59 108 ?84 110 1
9 111 0 0 1 81 1 108 204 107 106 0 0 112 105 113 17 84 0 89 98 114 82 81 106 0 1
15 +16 110 62 112 ?114 116 106 117 0 0 1 31 255 111 120 0 106 118 117 0 +-.012 -
146957615897682e-32 0 1 122464679914735e-30 0 -122464679914735e-30 1 0 .002 31 1
18 118 0 119 120 111 0 +-.015 -222458219563575e-32 .004 122464679914735e-30 -1 -
122464679914735e-30 0 -122464679914735e-30 1 .003 31 117 123 0 110 111 121 0 +-.
012 -146957615897682e-32 0 1 122464679914735e-30 0 -122464679914735e-30 1 0 .002
 31 121 125 0 97 117 104 0 +-.011 -134711147906209e-32 0 1 122464679914735e-30 0
 -122464679914735e-30 1 0 .001 16 97 65 122 ?94 101 93 121 0 0 1 31 104 128 0 10
1 121 100 0 +-.011 -134711147906209e-32 0 1 122464679914735e-30 0 -1224646799147
35e-30 1 0 .001 31 100 130 0 93 104 20 0 +-.011 -134711147906209e-32 0 1 1224646
79914735e-30 0 -122464679914735e-30 1 0 .001 31 20 131 0 116 100 6 0 +-.011 -154
597196681208e-32 .002 -122464679914735e-30 1 122464679914735e-30 0 -122464679914
735e-30 1 .001 16 116 71 123 ?90 124 110 20 0 0 1 81 1 123 202 107 116 0 0 125 1
12 126 17 90 0 89 114 88 82 98 116 0 0 +16 124 54 125 ?127 128 116 120 0 0 1 81
 1 125 201 107 124 0 0 129 123 130 17 127 0 131 132 132 73 78 124 0 0 +16 128 51
 129 ?132 133 124 134 0 0 1 31 120 117 0 124 134 118 0 +-.012 -146957615897682e-
32 0 1 122464679914735e-30 0 -122464679914735e-30 1 0 .004 31 134 114 0 128 135
 120 0 +-.012 -146957615897682e-32 0 1 122464679914735e-30 0 -122464679914735e-3
0 1 0 .004 31 135 112 0 136 137 134 0 +-.0188729833462074 -321440861353889e-32 .
005 -122464679914735e-30 1 122464679914735e-30 0 -122464679914735e-30 1 .001 16
 136 48 138 ?139 140 141 135 0 0 1 31 137 111 0 142 143 135 0 +-.017904737509655
6 -219269794807732e-32 0 1 122464679914735e-30 0 -122464679914735e-30 1 0 .00475
 16 142 47 144 ?145 119 133 137 0 0 1 31 143 108 0 133 146 137 0 +-.017904737509
6556 -219269794807732e-32 0 1 122464679914735e-30 0 -122464679914735e-30 1 0 .00
475 16 133 44 147 ?72 142 128 143 0 0 1 31 146 106 0 141 148 143 0 +-.0188729833
462074 -231127386452942e-32 0 1 122464679914735e-30 0 -122464679914735e-30 1 0 .
004 16 141 41 149 ?150 136 151 146 0 0 1 30 148 105 0 152 153 146 0 +48985871965
8942e-33 -.004 -489858719658942e-33 -1 -122464679914735e-30 0 16 152 40 154 ?155
 156 157 148 0 0 1 31 153 103 0 151 158 148 0 +-.0188729833462074 -2311273864529
42e-32 0 1 122464679914735e-30 0 -122464679914735e-30 1 0 .004 16 151 38 159 ?16
0 141 161 153 0 0 1 31 158 100 0 161 162 153 0 +-.0188729833462074 -231127386452
942e-32 0 1 122464679914735e-30 0 -122464679914735e-30 1 0 .004 16 161 35 163 ?6
4 151 119 158 0 0 1 31 162 98 0 164 165 158 0 +-.0231270166537926 -3214408613538
89e-32 .005 -122464679914735e-30 1 122464679914735e-30 0 -122464679914735e-30 1
 .001 16 164 32 166 ?167 168 169 162 0 0 1 31 165 97 0 140 170 162 0 +-.02312701
66537926 -283224269188946e-32 0 1 122464679914735e-30 0 -122464679914735e-30 1 0
 .004 16 140 31 171 ?58 172 136 165 0 0 1 31 170 95 0 157 173 165 0 +-.023127016
6537926 -283224269188946e-32 0 1 122464679914735e-30 0 -122464679914735e-30 1 0
 .004 16 157 29 174 ?175 152 172 170 0 0 1 31 173 92 0 172 176 170 0 +-.02312701
66537926 -283224269188946e-32 0 1 122464679914735e-30 0 -122464679914735e-30 1 0
 .004 16 172 26 177 ?178 157 140 173 0 0 1 31 176 90 0 179 180 173 0 +-.027 -395
930567161256e-32 .004 122464679914735e-30 -1 -122464679914735e-30 0 -12246467991
4735e-30 1 .003 16 179 23 181 ?182 26 183 176 0 0 1 31 180 89 0 169 184 176 0 +-
.0240952624903444 -295081860834156e-32 0 1 122464679914735e-30 0 -12246467991473
5e-30 1 0 .00475 16 169 22 185 ?186 164 156 180 0 0 1 31 184 86 0 156 187 180 0
 +-.0240952624903444 -295081860834156e-32 0 1 122464679914735e-30 0 -12246467991
4735e-30 1 0 .00475 16 156 19 188 ?48 169 152 184 0 0 1 31 187 84 0 183 189 184
 0 +-.03 -367394039744206e-32 0 1 122464679914735e-30 0 -122464679914735e-30 1 0
 .004 16 183 16 190 ?191 179 168 187 0 0 1 31 189 81 0 168 192 187 0 +-.03 -3673
94039744206e-32 0 1 122464679914735e-30 0 -122464679914735e-30 1 0 .004 16 168 1
3 193 ?42 183 164 189 0 0 1 31 192 79 0 26 27 189 0 +11000423191587e-31 13471633
0508433e-48 0 1 122464679914735e-30 0 -122464679914735e-30 1 0 .001 16 26 10 194
 ?34 9 179 192 0 0 1 31 27 76 0 9 0 192 0 +11000423191587e-31 134716330508433e-4
8 0 1 122464679914735e-30 0 -122464679914735e-30 1 0 .001 81 1 194 182 107 26 0
 0 24 181 195 17 34 0 196 25 25 29 28 26 0 0 +15 196 6 0 25 15 0 17 25 0 196 34
 34 10 33 9 0 95 +17 33 0 31 28 95 29 25 9 0 34 -14 255 15 5 197 ?198 0 196 4 19
9 +0 0 198 0 23 81 1 197 223 200 15 201 0 0 202 203 14 198 11 202 ?204 15 205 4
 206 +0 0 204 15 23 50 255 199 75 0 15 0 206 0 +427556479664614e-33 .001 0 1 122
464679914735e-30 0 0 0 1 13 23 3 0 0 0 0 0 0 8 15 50 206 80 0 198 199 207 0 +-.0
3 -367394039744206e-32 0 -1 -122464679914735e-30 0 0 0 -1 54 255 207 85 0 204 20
6 208 0 +-.027 -346944695195361e-32 0 1 122464679914735e-30 0 .004 .003 0 0 1 14
 204 17 209 ?210 198 211 4 207 +0 0 210 198 23 54 208 91 0 210 207 212 0 +-.0231
270166537926 -260208521396521e-32 0 1 122464679914735e-30 0 .005 .001 0 0 1 14 2
10 24 213 ?214 204 215 4 208 -0 0 214 204 23 51 212 99 0 214 208 216 0 +0 0 0 1
 122464679914735e-30 0 .004 122464679914735e-30 -1 0 14 214 33 217 ?218 210 219
 4 212 +0 0 218 210 23 54 216 107 0 218 212 220 0 +-.0188729833462074 -260208521
396521e-32 0 1 122464679914735e-30 0 .005 .001 0 0 1 14 218 42 221 ?222 214 223
 4 216 -0 0 222 214 23 54 220 113 0 222 216 224 0 +-.015 -173472347597681e-32 0
 1 122464679914735e-30 0 .004 .003 0 0 1 14 222 49 225 ?226 218 227 4 220 +0 0 2
26 218 23 50 224 119 0 226 220 18 0 +-.012 .004 0 1 122464679914735e-30 0 0 0 1
 14 226 56 228 ?102 222 131 4 224 +0 0 102 222 23 54 18 124 0 102 224 5 0 +-.011
 -130104260698261e-32 0 1 122464679914735e-30 0 .002 .001 0 0 1 14 102 63 229 ?1
7 226 89 4 18 -0 0 17 226 23 81 1 229 231 200 102 230 0 228 231 232 14 17 72 231
 ?0 102 31 4 5 +0 0 0 102 23 81 1 231 232 200 17 233 0 229 0 234 80 255 1 200 0
 235 8001 0 0 0 0 3 5 0 0 0 FFFFTFTFFFFFFF2 81 1 233 218 107 17 0 231 230 0 236
 83 255 3 234 .8 .8 .2 80 1 107 237 238 9000 1 1 1 1 1 1 1 1 0 FFFFTFTFFFFFFF3 8
1 1 230 217 107 102 0 229 239 233 240 84 255 32 236 7ca828ab4623abd73ccb6d4fc87d
dce181 1 239 216 107 226 0 228 241 230 242 84 32 240 cd5d878c950fd0f7e0da3764558
9503181 1 228 230 200 226 239 0 225 229 243 81 1 241 215 107 222 0 225 244 239 2
45 84 32 242 6fba920307dded60b5e44f03fd37556681 1 225 229 200 222 241 0 221 228
 246 81 1 244 214 107 218 0 221 247 241 248 84 32 245 4572f3cfa9d975aba1581feb87
4ecbb581 1 221 228 200 218 244 0 217 225 249 81 1 247 213 107 214 0 217 250 244
 251 84 32 248 ca069d0a23ce5ca6fd61b7ffb40ec87781 1 217 227 200 214 247 0 213 22
1 252 81 1 250 212 107 210 0 213 253 247 254 84 32 251 4b2335ffce49d3848fd78a277
d4aecff81 1 213 226 200 210 250 0 209 217 255 81 1 253 211 107 204 0 209 256 250
 257 84 32 254 f6ec4d29610ed9d41d23212e53ddf8c681 1 209 225 200 204 253 0 202 21
3 258 81 1 256 210 107 198 0 202 201 253 259 84 32 257 9a220614a9fb8796132dc3cc9
479843881 1 202 224 200 198 256 0 197 209 260 81 1 201 209 107 15 0 197 99 256 2
61 84 32 259 70f168b999079bc02fca2899009f8e3181 1 99 208 107 93 0 0 122 201 262
 84 32 261 74028c1c7b298aa799178b114d1ca57881 1 122 207 107 97 0 0 103 99 263 84
 32 262 4adadeeb2195a96d9071dbd33254f79081 1 103 206 107 101 0 0 105 122 264 84
 32 263 74b90c328fdbaf666267034eb7475d9c84 32 264 c0ba323b96cb1e33f78c8cbda2586d
9183 3 260 .8 .8 .2 83 3 258 .8 .8 .2 83 3 255 .8 .8 .2 83 3 252 .8 .8 .2 83 3 2
49 .8 .8 .2 83 3 246 .8 .8 .2 83 3 243 .8 .8 .2 79 255 15 238 UGS/ObjectState79
 15 235 SDL/TYSA_COLOUR83 3 232 .8 .8 .2 15 131 57 0 132 226 265 17 132 0 131 12
7 127 76 75 128 0 266 +15 265 58 0 81 226 0 17 81 0 265 115 115 79 84 106 0 114
 -17 115 0 265 81 81 82 114 110 0 90 -17 114 0 89 84 90 79 115 110 0 0 +17 75 0
 227 78 266 73 132 128 0 127 -17 266 0 227 75 72 76 267 119 0 0 -15 227 50 0 75
 222 0 17 72 0 227 266 145 70 69 133 0 268 +17 267 0 227 145 78 70 266 119 0 0 +
16 119 55 269 ?267 161 142 118 0 0 1 81 1 269 197 107 119 0 0 163 144 270 81 1 1
63 196 107 161 0 0 159 269 271 81 1 144 198 107 142 0 0 269 147 272 84 32 270 d4
cc99db8198ff8d4822441548c7e24281 1 147 199 107 133 0 0 144 129 273 84 32 272 7fc
bed82f4ec365e4e62e8b58aeeabb181 1 129 200 107 128 0 0 147 125 274 84 32 273 2246
d6c9e0662be67a5eb3dce000686384 32 274 631a983bae1c19f826ba86b973f3ac0d81 1 159 1
95 107 151 0 0 149 163 275 84 32 271 8c725f7adfed846468e4397f5468dc6b81 1 149 19
4 107 141 0 0 138 159 276 84 32 275 1995939ac21d00c6e18fbf70de61d41181 1 138 193
 107 136 0 0 171 149 277 84 32 276 a11f208fe1c676dfe697885487a11b0d81 1 171 192
 107 140 0 0 177 138 278 84 32 277 5de4686673ba8de8305e76e235f351af81 1 177 191
 107 172 0 0 174 171 279 84 32 278 46a6bd5a5fe28e36cce24cc437dd791781 1 174 190
 107 157 0 0 154 177 280 84 32 279 34a8dd58abe7a558daf0d8e1d8742d1081 1 154 189
 107 152 0 0 188 174 281 84 32 280 513d1d7812bc31f5d4d9c69a04c7f30481 1 188 188
 107 156 0 0 185 154 282 84 32 281 1de44efe0c9f1118b616618572a8dd5981 1 185 187
 107 169 0 0 166 188 283 84 32 282 3504262d1849a8ab1e99355aa4ed89a081 1 166 186
 107 164 0 0 193 185 284 84 32 283 4f67a8fb413b9f137437f7bbf6ca637c81 1 193 185
 107 168 0 0 190 166 285 84 32 284 db2d85ea4791aa516210a9e22600831281 1 190 184
 107 183 0 0 181 193 286 84 32 285 274d6b87fa3a2a3a3078fdd2cfcb71b381 1 181 183
 107 179 0 0 194 190 287 84 32 286 a381e042de155430945c4491a80d9e8684 32 287 7eb
df294c8fc3534924d1d7196985a8617 145 0 227 72 267 65 268 142 0 0 +17 78 0 227 267
 75 76 127 124 0 132 -17 268 0 223 139 69 70 145 142 0 288 -15 223 43 0 69 218 0
 17 139 0 223 150 268 62 288 136 0 0 +17 69 0 223 268 288 65 72 133 0 145 -17 28
8 0 223 69 64 70 139 136 0 267 -17 64 0 223 288 160 62 60 161 0 289 +17 160 0 22
3 64 150 56 67 151 0 0 +17 60 0 219 67 289 56 64 161 0 160 -17 289 0 219 60 290
 62 150 141 0 139 -15 219 34 0 60 214 0 17 290 0 219 289 58 61 155 152 0 150 -17
 150 0 223 160 139 61 289 141 0 0 +17 58 0 219 290 178 52 55 140 0 291 +17 155 0
 219 175 67 52 290 152 0 0 +17 175 0 219 178 155 49 291 157 0 0 +17 67 0 219 155
 60 61 160 151 0 290 -17 178 0 219 58 175 53 51 172 0 292 +17 291 0 215 55 51 52
 175 157 0 155 -15 215 25 0 51 210 0 17 55 0 215 167 291 53 58 140 0 178 -17 51
 0 215 291 292 49 178 172 0 175 -17 292 0 215 51 48 53 167 164 0 0 -17 48 0 215
 292 186 46 45 156 0 293 +17 167 0 215 186 55 46 292 164 0 0 +17 186 0 215 48 16
7 43 293 169 0 0 +17 293 0 211 182 45 46 186 169 0 294 -15 211 18 0 45 204 0 17
 182 0 211 191 293 40 294 179 0 0 +17 45 0 211 293 294 43 48 156 0 186 -17 294 0
 211 45 42 46 182 179 0 167 -17 42 0 211 294 191 40 39 168 0 295 +17 191 0 211 4
2 182 35 295 183 0 0 +17 39 0 205 295 295 35 42 168 0 191 -17 295 0 205 39 39 40
 191 183 0 182 -15 205 12 0 39 198 0 83 3 203 .8 .8 .2 81 1 24 181 107 9 0 0 0 1
94 296 84 32 195 443b12def8550bab146da0471f8e0b7684 32 296 bb75c2c9547951348728e
2a46851964784 32 130 13b566ab3df019b493ad1fbcb47c3dc817 98 0 89 86 84 87 90 116
 0 0 -81 1 112 203 107 110 0 0 123 108 297 84 32 126 ce6900622e3d018715a8b8bd741
e2c6884 32 297 e099d310cc1755ed2abf11beb21ad74e84 32 113 b2a800422640bddba49ef35
770b8710a84 32 109 b54ba6cd369710bb93829c5c84146b8e19 16 1 0 1 0 8 4 S0 74 4 CI1
6 index_map_offset0 0 1 dCCZ20 14 5 0 0 298 233 231 12 2 0 0 0 0 0 0 0 0 0 0 0 0
 0 0 0 81 2 298 172 299 1 0 12 0 0 300 301 81 1 12 233 302 1 298 2 0 0 303 80 1
 302 304 305 9000 0 0 0 0 3 5 0 0 0 FFTFFFFFFFFFFF1 82 255 1 303 47 79 24 305 UG
2/BODY_COLOR_ATTRIBUTE80 2 299 306 307 8004 0 0 0 0 3 5 0 0 0 FFTFFFFFFFFFFF2 3
 83 1 300 7830.64 84 8 301 Kg/Cu M 79 16 307 SDL/TYSA_DENSITY80 1 11 308 309 803
8 0 0 0 0 0 0 0 0 0 TTTTTTTTTTTTTF10 98 255 6 13 83 79 76 73 68 49 79 14 309 SDL
/TYSA_UNAME1 0 
