**ABCDEFGHIJKLMNOPQRSTUVWXYZabcdefghijklmnopqrstuvwxyz**************************
**PARASOLID !"#$%&'()*+,-./:;<=>?@[\]^_`{|}~0123456789**************************
**PART1;
MC=x64/Windows NT;
MC_MODEL=genuineintel family 6 model 14 stepping 10, intel(r) core(tm) i5-8300h cpu @ 2.30ghz;
MC_ID=desktop-goj3fk4;
OS=windows nt (x64);
OS_RELEASE=6.3 windows 10 home single language (build 17763) ;
FRU=mdc_ugii_v7.0_djl_can_vrh;
APPL=unigraphics;
SITE=unknown;
USER=Maktub;
FORMAT=text;
GUISE=transmit;
KEY=Eje;
FILE=D:\Maktub\Desktop\Eje.x_t;
DATE=12-feb-2020;
**PART2;
SCH=SCH_2700178_26105;
USFLD_SIZE=0;
**PART3;
**END_OF_HEADER*****************************************************************
T51 : TRANSMIT FILE created by modeller version 270017823 SCH_2700178_26105_1300
6196 0 12 30 CCCCCCCCCCCCCDI5 owner1040 0 CCCCCCCCCA13 boundary_mesh1006 0 A16 i
ndex_map_offset0 0 1 dA9 index_map82 0 A17 node_id_index_map82 0 A20 schema_embe
dding_map82 0 A5 child12 0 A14 lowest_node_id0 0 1 dZ1 52 2 3 0 0 0 0 1e3 1e-8 0
 0 0 1 0 1 1 4 5 6 7 8 9 10 0 0 0 0 0 0 0 81 255 1 2 52 11 1 12 0 0 0 13 70 11 C
I9 list_type0 0 1 uI10 notransmit0 0 1 lCCCDCCDI12 finger_index0 0 1 dI12 finger
_block1012 0 CZ3 0 4 T1 0 0 5 20 1 14 14 13 255 4 4 0 1 0 15 0 0 16 0 50 255 5 2
4 0 17 18 0 0 +0 0 0 0 1 0 0 0 -1 31 255 6 22 0 19 20 0 0 +0 .084 0 0 1 0 0 0 1
 .0025 29 255 7 21 0 21 22 0 0 .084 .0025 19 8 CCCCCCCA5 owner12 0 Z8 2 0 1 16 0
 23 V0 16 255 9 7 24 ?25 0 26 27 0 0 1 18 255 10 8 0 28 0 21 22 ?1 17 255 28 0 2
9 28 28 10 25 9 0 25 -18 21 10 0 30 10 0 7 ?1 29 22 19 0 10 0 7 0 0 .0025 17 30
 0 31 32 33 21 34 19 0 33 -15 255 31 6 0 25 15 0 17 32 0 31 25 30 10 33 26 0 0 -
17 33 0 31 30 25 21 32 26 0 34 +17 34 0 35 34 34 21 30 19 0 0 +16 19 11 36 ?34 2
6 0 6 0 0 1 81 1 36 39 37 19 0 0 24 38 39 16 26 9 38 ?33 9 19 20 0 0 1 81 1 38 4
0 37 26 0 0 36 40 41 30 255 20 20 0 26 27 6 0 +-306161699786838e-33 .084 .0025 0
 1 0 31 27 18 0 9 0 20 0 +0 0 0 0 1 0 0 0 1 .0025 80 255 1 37 42 43 9000 1 1 1 1
 1 1 1 1 0 FFFFTFTFFFFFFF3 81 1 40 41 37 15 0 44 38 45 46 84 255 32 41 cfdca1a2f
b95d1c6e97030d0a6b9a35214 255 15 5 44 ?47 0 31 4 48 +0 0 47 0 23 81 1 44 48 49 1
5 40 0 0 50 51 81 1 45 42 37 47 0 50 40 52 53 84 32 46 6dadb37106caba3ab4245b247
82b9cb614 47 12 50 ?17 15 35 4 18 +0 0 17 15 23 81 1 50 49 49 47 45 0 44 54 55 8
1 1 52 43 37 17 0 54 45 0 56 84 32 53 459028665bfbbbd5b083959665adac1914 17 14 5
4 ?0 47 29 4 5 -0 0 0 47 23 81 1 54 50 49 17 52 0 50 0 57 84 32 56 666d742756a28
d968ca39e6c4e71d2fc80 1 49 0 58 8001 0 0 0 0 3 5 0 0 0 FFFFTFTFFFFFFF2 83 255 3
 57 .6941176 .6941176 .6941176 79 255 15 58 SDL/TYSA_COLOUR15 29 15 0 28 17 0 13
 23 3 0 0 0 0 0 0 8 15 83 3 55 .6941176 .6941176 .6941176 15 35 13 0 34 47 0 50
 18 23 0 47 48 5 0 +0 .084 0 0 1 0 0 0 -1 51 255 48 16 0 15 0 18 0 +0 .084 0 0 -
1 0 .0025 0 0 1 83 3 51 .6941176 .6941176 .6941176 79 15 43 UGS/ObjectState81 1
 24 38 37 9 0 0 0 36 59 84 32 39 68c3417b7f5f2092c25c0648374b4e4784 32 59 938b53
05269102b06d33eb3ce872763e17 25 0 31 33 32 10 28 9 0 32 +19 16 1 0 1 0 8 4 S0 74
 4 CI16 index_map_offset0 0 1 dCCZ20 14 5 0 0 60 52 54 12 2 0 0 0 0 0 0 0 0 0 0
 0 0 0 0 0 81 2 60 35 61 1 0 12 0 0 62 63 81 1 12 51 64 1 60 2 0 0 65 80 1 64 66
 67 9000 0 0 0 0 3 5 0 0 0 FFTFFFFFFFFFFF1 82 255 1 65 123 79 24 67 UG2/BODY_COL
OR_ATTRIBUTE80 2 61 68 69 8004 0 0 0 0 3 5 0 0 0 FFTFFFFFFFFFFF2 3 83 1 62 7830.
64 84 8 63 Kg/Cu M 79 16 69 SDL/TYSA_DENSITY80 1 11 70 71 8038 0 0 0 0 0 0 0 0 0
 TTTTTTTTTTTTTF10 98 255 6 13 83 79 76 73 68 49 79 14 71 SDL/TYSA_UNAME1 0 
