**ABCDEFGHIJKLMNOPQRSTUVWXYZabcdefghijklmnopqrstuvwxyz**************************
**PARASOLID !"#$%&'()*+,-./:;<=>?@[\]^_`{|}~0123456789**************************
**PART1;
MC=x64/Windows NT;
MC_MODEL=genuineintel family 6 model 14 stepping 10, intel(r) core(tm) i5-8300h cpu @ 2.30ghz;
MC_ID=desktop-goj3fk4;
OS=windows nt (x64);
OS_RELEASE=6.3 windows 10 home single language (build 17763) ;
FRU=mdc_ugii_v7.0_djl_can_vrh;
APPL=unigraphics;
SITE=unknown;
USER=Maktub;
FORMAT=text;
GUISE=transmit;
KEY=Entrada;
FILE=D:\Maktub\Desktop\Entrada.x_t;
DATE=12-feb-2020;
**PART2;
SCH=SCH_2700178_26105;
USFLD_SIZE=0;
**PART3;
**END_OF_HEADER*****************************************************************
T51 : TRANSMIT FILE created by modeller version 270017823 SCH_2700178_26105_1300
6196 0 12 30 CCCCCCCCCCCCCDI5 owner1040 0 CCCCCCCCCA13 boundary_mesh1006 0 A16 i
ndex_map_offset0 0 1 dA9 index_map82 0 A17 node_id_index_map82 0 A20 schema_embe
dding_map82 0 A5 child12 0 A14 lowest_node_id0 0 1 dZ1 221 2 3 0 0 0 0 1e3 1e-8
 0 0 0 1 0 1 1 4 5 6 7 8 9 10 0 0 0 0 0 0 0 81 255 1 2 221 11 1 12 0 0 0 13 70 1
1 CI9 list_type0 0 1 uI10 notransmit0 0 1 lCCCDCCDI12 finger_index0 0 1 dI12 fin
ger_block1012 0 CZ3 0 4 T1 0 0 5 20 1 14 14 13 255 4 4 0 1 0 15 0 0 16 0 53 255
 5 123 0 17 18 0 0 +-.03 -367394039744206e-32 0 .003 1 -612323399573675e-31 0 61
2323399573675e-31 1 0 31 255 6 124 0 19 20 0 0 +-.03 -367394039744206e-32 0 0 -1
22464679914735e-30 1 0 1 122464679914735e-30 .003 29 255 7 125 0 21 22 0 -.033 -
349024337756996e-32 224963967399279e-49 19 8 CCCCCCCA5 owner12 0 Z8 2 0 1 16 0 2
3 V0 16 255 9 7 24 ?25 0 26 27 0 0 1 18 255 10 9 0 28 0 29 30 ?1 17 255 28 0 31
 32 33 10 34 26 0 25 -18 29 8 0 33 10 35 36 ?1 29 30 73 0 10 36 37 7347880794884
11e-33 -.003 -367394039744206e-33 29 36 72 0 29 0 30 0 .003 0 29 37 77 0 35 30 3
8 -.02 -.003 -367394039744206e-33 18 35 14 0 39 29 40 37 ?1 29 38 79 0 40 37 41
 -.02 .003 0 18 40 16 0 42 35 43 38 ?1 29 41 83 0 44 38 45 -.0207071067811865 .0
0370710678118654 0 18 44 21 0 46 43 47 41 ?1 29 45 84 0 43 41 48 -.0207071067811
865 -296947925370942e-32 .00370710678118654 18 43 22 0 49 40 44 45 ?1 29 48 89 0
 47 45 50 -.0214142135623731 -309194393362415e-32 .004 18 47 28 0 51 44 52 48 ?1
 29 50 91 0 52 48 53 -.0214142135623731 -.004 -489858719658941e-33 18 52 30 0 54
 47 55 50 ?1 29 53 93 0 55 50 56 -.0214142135623731 .004 0 18 55 32 0 57 52 58 5
3 ?1 29 56 97 0 58 53 59 -.0235857864376269 -.004 -489858719658941e-33 18 58 37
 0 60 55 61 56 ?1 29 59 99 0 61 56 62 -.0235857864376269 .004 0 18 61 39 0 63 58
 64 59 ?1 29 62 101 0 64 59 65 -.0235857864376269 -352562480261835e-32 .004 18 6
4 41 0 66 61 67 62 ?1 29 65 105 0 67 62 68 -.0242928932188135 -357635133395072e-
32 .00370710678118654 18 67 46 0 69 64 70 65 ?1 29 68 107 0 70 65 71 -.024292893
2188135 -.00370710678118655 -453989645367755e-33 18 70 48 0 72 67 73 68 ?1 29 71
 109 0 73 68 74 -.0242928932188135 .00370710678118654 0 18 73 50 0 75 70 76 71 ?
1 29 74 113 0 76 71 77 -.025 -.003 -367394039744206e-33 18 76 55 0 78 73 79 74 ?
1 29 77 115 0 79 74 80 -.025 .003 0 18 79 57 0 81 76 82 77 ?1 29 80 119 0 82 77
 22 -.03 -.003 -367394039744206e-33 18 82 62 0 83 79 84 80 ?1 29 22 121 0 84 80
 7 -.03 .003 0 18 84 64 0 85 82 21 22 ?1 17 85 0 86 87 83 84 88 89 0 90 -18 21 6
9 0 87 84 0 7 ?1 17 87 0 86 91 85 21 91 19 0 0 +15 255 86 67 0 85 17 0 17 91 0 8
6 83 87 84 87 19 0 0 -16 19 68 92 ?87 89 0 6 0 0 1 81 1 92 197 93 19 0 0 94 95 9
6 16 89 65 94 ?88 97 19 20 0 0 1 81 1 94 196 93 89 0 0 98 92 99 17 88 0 100 101
 90 82 85 89 0 0 +16 97 63 98 ?90 102 89 103 0 0 1 31 20 122 0 89 103 6 0 +-.03
 -367394039744206e-32 0 1 122464679914735e-30 0 -122464679914735e-30 1 0 .003 31
 103 120 0 97 104 20 0 +-.03 -367394039744206e-32 0 1 122464679914735e-30 0 -122
464679914735e-30 1 0 .003 30 255 104 118 0 102 105 103 0 +367394039744206e-33 -.
003 -367394039744206e-33 -1 -122464679914735e-30 0 16 102 61 106 ?107 108 97 104
 0 0 1 31 105 116 0 108 109 104 0 +-.025 -306161699786838e-32 0 1 12246467991473
5e-30 0 -122464679914735e-30 1 0 .003 16 108 58 110 ?78 111 102 105 0 0 1 31 109
 114 0 111 112 105 0 +-.025 -306161699786838e-32 0 1 122464679914735e-30 0 -1224
64679914735e-30 1 0 .003 16 111 56 113 ?81 114 108 109 0 0 1 30 112 112 0 114 11
5 109 0 +-.0242928932188135 -.00370710678118655 -453989645367755e-33 -.707106781
186548 .707106781186547 865956056235493e-31 16 114 54 116 ?117 118 111 112 0 0 1
 31 115 110 0 118 119 112 0 +-.0242928932188135 -297502139224483e-32 0 1 1224646
79914735e-30 0 -122464679914735e-30 1 0 .00370710678118654 16 118 51 120 ?121 12
2 114 115 0 0 1 31 119 108 0 122 123 115 0 +-.0242928932188135 -297502139224483e
-32 0 1 122464679914735e-30 0 -122464679914735e-30 1 0 .00370710678118654 16 122
 49 124 ?75 125 118 119 0 0 1 31 123 106 0 125 126 119 0 +-.0242928932188135 -29
7502139224483e-32 0 1 122464679914735e-30 0 -122464679914735e-30 1 0 .0037071067
8118654 16 125 47 127 ?128 129 122 123 0 0 1 31 126 104 0 129 130 123 0 +-.02358
57864376269 -340316012270362e-32 .003 122464679914735e-30 -1 -122464679914735e-3
0 0 -122464679914735e-30 1 .001 16 129 45 131 ?132 133 125 126 0 0 1 31 130 102
 0 133 134 126 0 +-.0235857864376269 -288842578662128e-32 0 1 122464679914735e-3
0 0 -122464679914735e-30 1 0 .004 16 133 42 135 ?136 137 129 130 0 0 1 31 134 10
0 0 137 138 130 0 +-.0235857864376269 -288842578662128e-32 0 1 122464679914735e-
30 0 -122464679914735e-30 1 0 .004 16 137 40 139 ?140 141 133 134 0 0 1 31 138 9
8 0 141 142 134 0 +-.0235857864376269 -288842578662128e-32 0 1 122464679914735e-
30 0 -122464679914735e-30 1 0 .004 16 141 38 143 ?63 144 137 138 0 0 1 30 142 96
 0 144 145 138 0 +489858719658941e-33 -.004 -489858719658941e-33 -1 -12246467991
4735e-30 0 16 144 36 146 ?147 148 141 142 0 0 1 31 145 94 0 148 149 142 0 +-.021
4142135623731 -262248480954181e-32 0 1 122464679914735e-30 0 -122464679914735e-3
0 1 0 .004 16 148 33 150 ?151 152 144 145 0 0 1 31 149 92 0 152 153 145 0 +-.021
4142135623731 -262248480954181e-32 0 1 122464679914735e-30 0 -122464679914735e-3
0 1 0 .004 16 152 31 154 ?57 155 148 149 0 0 1 31 153 90 0 155 156 149 0 +-.0214
142135623731 -262248480954181e-32 0 1 122464679914735e-30 0 -122464679914735e-30
 1 0 .004 16 155 29 157 ?158 159 152 153 0 0 1 31 156 88 0 159 160 153 0 +-.0214
142135623731 -296947925370942e-32 .003 122464679914735e-30 -1 -122464679914735e-
30 0 -122464679914735e-30 1 .001 16 159 27 161 ?162 163 155 156 0 0 1 30 160 86
 0 163 164 156 0 +-.02 .003 -367394039744206e-33 .707106781186548 -.707106781186
547 865956056235493e-31 16 163 24 165 ?166 167 159 160 0 0 1 31 164 85 0 167 168
 160 0 +-.0207071067811865 -253588920391826e-32 0 1 122464679914735e-30 0 -12246
4679914735e-30 1 0 .00370710678118654 16 167 23 169 ?46 170 163 164 0 0 1 31 168
 82 0 170 171 164 0 +-.0207071067811865 -253588920391826e-32 0 1 122464679914735
e-30 0 -122464679914735e-30 1 0 .00370710678118654 16 170 20 172 ?173 174 167 16
8 0 0 1 31 171 80 0 174 175 168 0 +-.02 -244929359829471e-32 0 1 122464679914735
e-30 0 -122464679914735e-30 1 0 .003 16 174 17 176 ?177 178 170 171 0 0 1 31 175
 78 0 178 179 171 0 +-.02 -244929359829471e-32 0 1 122464679914735e-30 0 -122464
679914735e-30 1 0 .003 16 178 15 180 ?181 182 174 175 0 0 1 30 179 76 0 182 183
 175 0 +367394039744206e-33 -.003 -367394039744206e-33 -1 -122464679914735e-30 0
 16 182 13 184 ?32 26 178 179 0 0 1 31 183 74 0 26 27 179 0 +367394039744205e-33
 449927934798557e-49 0 1 122464679914735e-30 0 -122464679914735e-30 1 0 .003 16
 26 10 185 ?34 9 182 183 0 0 1 31 27 71 0 9 0 183 0 +367394039744205e-33 4499279
34798557e-49 0 1 122464679914735e-30 0 -122464679914735e-30 1 0 .003 81 1 185 17
2 93 26 0 0 24 184 186 17 34 0 187 25 25 29 28 26 0 0 +15 187 6 0 25 15 0 17 25
 0 187 34 34 10 33 9 0 188 +17 33 0 31 28 188 29 25 9 0 34 -17 188 0 31 33 177 1
0 32 182 0 0 -15 31 12 0 33 189 0 17 177 0 31 188 181 35 42 174 0 0 +17 32 0 31
 181 28 35 188 182 0 177 +17 181 0 31 177 32 40 39 178 0 166 +17 39 0 190 42 166
 35 181 178 0 32 -17 166 0 190 39 46 40 191 163 0 0 +15 190 19 0 173 192 0 17 46
 0 190 166 173 44 49 167 0 193 +17 191 0 190 173 42 44 166 163 0 0 -17 173 0 190
 46 191 43 193 170 0 194 +17 42 0 190 191 39 40 177 174 0 181 -17 193 0 195 49 1
94 44 173 170 0 191 -17 194 0 195 193 151 43 162 159 0 0 -15 195 26 0 193 196 0
 17 151 0 195 194 57 47 197 148 0 0 +17 162 0 195 158 49 47 194 159 0 151 +17 15
8 0 195 57 162 52 51 155 0 198 +17 49 0 195 162 193 43 46 167 0 173 -17 57 0 195
 151 158 55 54 152 0 197 +17 51 0 199 197 198 47 158 155 0 162 -17 198 0 199 51
 136 52 147 144 0 0 -15 199 35 0 197 200 0 17 136 0 199 198 140 58 66 133 0 0 +1
7 147 0 199 63 54 58 198 144 0 136 +17 63 0 199 140 147 61 60 141 0 201 +17 54 0
 199 147 197 52 57 152 0 158 -17 197 0 199 54 51 55 151 148 0 0 -17 140 0 199 13
6 63 64 201 137 0 202 +17 60 0 203 66 201 58 63 141 0 147 -17 201 0 203 60 202 6
1 140 137 0 0 -15 203 44 0 201 204 0 17 202 0 203 201 121 64 132 129 0 0 -17 121
 0 203 202 75 67 205 118 0 0 +17 132 0 203 128 66 67 202 129 0 121 +17 128 0 203
 75 132 70 69 125 0 206 +17 66 0 203 132 60 64 136 133 0 140 -17 75 0 203 121 12
8 73 72 122 0 205 +17 69 0 207 205 206 67 128 125 0 132 -17 206 0 207 69 78 70 1
17 114 0 0 -15 207 53 0 205 208 0 17 78 0 207 206 81 76 209 108 0 210 +17 117 0
 207 81 72 76 206 114 0 101 +17 81 0 207 78 117 79 210 111 0 209 +17 72 0 207 11
7 205 70 75 122 0 128 -17 101 0 100 209 88 76 107 102 0 0 -15 100 60 0 209 211 0
 17 209 0 100 210 101 79 78 108 0 0 -17 107 0 100 90 210 82 101 102 0 88 +17 90
 0 100 88 107 84 83 97 0 91 +17 210 0 100 107 209 76 81 111 0 117 -17 83 0 86 85
 91 82 90 97 0 107 -14 255 211 59 212 ?17 208 100 4 18 +0 0 17 208 23 81 1 212 2
18 213 211 214 0 215 216 217 14 17 66 216 ?0 211 86 4 5 +0 0 0 211 23 14 208 52
 215 ?211 204 207 4 218 +0 0 211 204 23 51 255 18 117 0 211 218 5 0 +0 0 0 1 122
464679914735e-30 0 .003 122464679914735e-30 -1 0 13 23 3 0 0 0 0 0 0 8 15 14 15
 5 219 ?189 0 187 4 220 +0 0 189 0 23 81 1 219 211 213 15 95 0 0 221 222 14 189
 11 221 ?192 15 31 4 223 +0 0 192 15 23 50 255 220 70 0 15 0 223 0 +183697019872
103e-33 224963967399278e-49 0 1 122464679914735e-30 0 0 0 1 51 223 75 0 189 220
 224 0 +0 0 0 1 122464679914735e-30 0 .003 122464679914735e-30 -1 0 52 255 224 8
1 0 192 223 225 0 +-.02 -244929359829471e-32 0 -1 -122464679914735e-30 0 .003 .7
07106781186547 .707106781186548 -122464679914735e-30 1 0 14 192 18 226 ?196 189
 190 4 224 +0 0 196 189 23 54 255 225 87 0 196 224 227 0 +-.0214142135623731 -26
0208521396521e-32 0 1 122464679914735e-30 0 .003 .001 0 0 1 14 196 25 228 ?200 1
92 195 4 225 +0 0 200 192 23 51 227 95 0 200 225 229 0 +0 0 0 1 122464679914735e
-30 0 .004 122464679914735e-30 -1 0 14 200 34 230 ?204 196 199 4 227 +0 0 204 19
6 23 54 229 103 0 204 227 218 0 +-.0235857864376269 -303576608295941e-32 0 1 122
464679914735e-30 0 .003 .001 0 0 1 14 204 43 231 ?208 200 203 4 229 +0 0 208 200
 23 52 218 111 0 208 229 18 0 +-.0242928932188135 -297502139224483e-32 0 1 12246
4679914735e-30 0 .00370710678118654 .707106781186547 .707106781186548 1224646799
14735e-30 -1 0 81 1 231 216 213 204 232 0 230 215 233 80 255 1 213 0 234 8001 0
 0 0 0 3 5 0 0 0 FFFFTFTFFFFFFF2 81 1 232 203 93 204 0 231 235 236 237 81 1 230
 215 213 200 235 0 228 231 238 81 1 215 217 213 208 236 0 231 212 239 83 255 3 2
33 .8 .8 .2 81 1 236 204 93 208 0 215 232 214 240 83 3 239 .8 .8 .2 80 1 93 241
 242 9000 1 1 1 1 1 1 1 1 0 FFFFTFTFFFFFFF3 81 1 214 205 93 211 0 212 236 243 24
4 84 255 32 240 243295470e56e5354e9449fa565798b481 1 243 206 93 17 0 216 214 0 2
45 84 32 244 a616d20011931cb3f58c20f2e42b85f581 1 216 219 213 17 243 0 212 0 246
 84 32 245 f9ed53f7ad333763d2980605d9e6077f83 3 246 .8 .8 .2 79 255 15 242 UGS/O
bjectState81 1 235 202 93 200 0 230 247 232 248 81 1 228 214 213 196 247 0 226 2
30 249 83 3 238 .8 .8 .2 81 1 247 201 93 196 0 228 250 235 251 81 1 226 213 213
 192 250 0 221 228 252 83 3 249 .8 .8 .2 81 1 250 200 93 192 0 226 253 247 254 8
1 1 221 212 213 189 253 0 219 226 255 83 3 252 .8 .8 .2 81 1 253 199 93 189 0 22
1 95 250 256 83 3 255 .8 .8 .2 81 1 95 198 93 15 0 219 92 253 257 84 32 256 a9c5
7f3f0619273f8297f217f831ef7384 32 257 09fb094c221fcb4d6a4c205dd9ac516a84 32 254
 a70de019d06042b4ac9958ff6de8e0da84 32 251 79b68f3ff851b52869e3adbc22c3ea0584 32
 248 e4b0cef5a102d135b182b7a281d1f95784 32 237 ac91d2a9af4ea1bb2c3dd34eba1b81f37
9 15 234 SDL/TYSA_COLOUR83 3 222 .8 .8 .2 83 3 217 .8 .8 .2 17 205 0 207 72 69 7
3 121 118 0 0 -81 1 24 171 93 9 0 0 0 185 258 81 1 184 173 93 182 0 0 185 180 25
9 84 32 186 de441111f09f4bd1393afaf4a0c2183581 1 180 174 93 178 0 0 184 176 260
 84 32 259 97dd3e40599da203e0d686945443fe6381 1 176 175 93 174 0 0 180 172 261 8
4 32 260 09758c166bc62ef0dc726852a6c586b081 1 172 176 93 170 0 0 176 169 262 84
 32 261 ca75c03eb60509b0fab73d3d93af0b4c81 1 169 177 93 167 0 0 172 165 263 84 3
2 262 3c3becde8f404a7b3b055f7718ef7f4f81 1 165 178 93 163 0 0 169 161 264 84 32
 263 113328076f868bfce9e685c68c93b41f81 1 161 179 93 159 0 0 165 157 265 84 32 2
64 05f090bcb47f05891cf5dde6e7b3145181 1 157 180 93 155 0 0 161 154 266 84 32 265
 6f0b37459d09b916c95349187fa02a0d81 1 154 181 93 152 0 0 157 150 267 84 32 266 b
c7d42dd4e8f5240dc6037b7449d152081 1 150 182 93 148 0 0 154 146 268 84 32 267 9b9
9de2d2ce782b1b133eee19e6af29681 1 146 183 93 144 0 0 150 143 269 84 32 268 8639d
59d97750b20e6baeb95478a892681 1 143 184 93 141 0 0 146 139 270 84 32 269 c0b666e
6a5cab134b475c52ea09f640781 1 139 185 93 137 0 0 143 135 271 84 32 270 318b16be3
991abec66b6fc0a925e4d0081 1 135 186 93 133 0 0 139 131 272 84 32 271 7495c84e3d3
c1d77d4b81c847fc0212e81 1 131 187 93 129 0 0 135 127 273 84 32 272 60064056dee40
2ef852df07a8ea712e181 1 127 188 93 125 0 0 131 124 274 84 32 273 74c63f89bdc9099
880ebd13f96e7c03d81 1 124 189 93 122 0 0 127 120 275 84 32 274 d4d4a5fe66e0e626a
997267715206a0281 1 120 190 93 118 0 0 124 116 276 84 32 275 b94b9c2ff1968801b2b
5f88e846e1db781 1 116 191 93 114 0 0 120 113 277 84 32 276 023f40d31f317c2e5a1f0
331ba88b0b781 1 113 192 93 111 0 0 116 110 278 84 32 277 0635830e9a76c967d467e49
ca87161d181 1 110 193 93 108 0 0 113 106 279 84 32 278 c1283ac2fe610d89ce37e281e
68865c581 1 106 194 93 102 0 0 110 98 280 84 32 279 bf22db3eea572e7d2253703a75ba
430d81 1 98 195 93 97 0 0 106 94 281 84 32 280 af9126866a54b2c8a989c9cb149059db8
4 32 281 32f09046cd9df3a2aa986e8bf1e5ec8e84 32 258 450975b803b955606a899e2b2c9c5
c2a84 32 99 c0140a6d6c1fc710e4268c905afd0b9f84 32 96 e5b68cef138b13bd48dda0a552e
9aabc19 16 1 0 1 0 8 4 S0 74 4 CI16 index_map_offset0 0 1 dCCZ20 14 5 0 0 282 24
3 216 12 2 0 0 0 0 0 0 0 0 0 0 0 0 0 0 0 81 2 282 161 283 1 0 12 0 0 284 285 81
 1 12 220 286 1 282 2 0 0 287 80 1 286 288 289 9000 0 0 0 0 3 5 0 0 0 FFTFFFFFFF
FFFF1 82 255 1 287 47 79 24 289 UG2/BODY_COLOR_ATTRIBUTE80 2 283 290 291 8004 0
 0 0 0 3 5 0 0 0 FFTFFFFFFFFFFF2 3 83 1 284 7830.64 84 8 285 Kg/Cu M 79 16 291 S
DL/TYSA_DENSITY80 1 11 292 293 8038 0 0 0 0 0 0 0 0 0 TTTTTTTTTTTTTF10 98 255 6
 13 83 79 76 73 68 49 79 14 293 SDL/TYSA_UNAME1 0 
