**ABCDEFGHIJKLMNOPQRSTUVWXYZabcdefghijklmnopqrstuvwxyz**************************
**PARASOLID !"#$%&'()*+,-./:;<=>?@[\]^_`{|}~0123456789**************************
**PART1;
MC=x64/Windows NT;
MC_MODEL=genuineintel family 6 model 14 stepping 10, intel(r) core(tm) i5-8300h cpu @ 2.30ghz;
MC_ID=desktop-goj3fk4;
OS=windows nt (x64);
OS_RELEASE=6.3 windows 10 home single language (build 17763) ;
FRU=mdc_ugii_v7.0_djl_can_vrh;
APPL=unigraphics;
SITE=unknown;
USER=Maktub;
FORMAT=text;
GUISE=transmit;
KEY=Llanta;
FILE=D:\Maktub\Desktop\Llanta.x_t;
DATE=12-feb-2020;
**PART2;
SCH=SCH_2700178_26105;
USFLD_SIZE=0;
**PART3;
**END_OF_HEADER*****************************************************************
T51 : TRANSMIT FILE created by modeller version 270017823 SCH_2700178_26105_1300
6196 0 12 30 CCCCCCCCCCCCCDI5 owner1040 0 CCCCCCCCCA13 boundary_mesh1006 0 A16 i
ndex_map_offset0 0 1 dA9 index_map82 0 A17 node_id_index_map82 0 A20 schema_embe
dding_map82 0 A5 child12 0 A14 lowest_node_id0 0 1 dZ1 63 2 3 0 0 0 0 1e3 1e-8 0
 0 0 1 0 1 1 4 5 6 7 8 9 10 0 0 0 0 0 0 0 81 255 1 2 63 11 1 12 0 0 0 13 70 11 C
I9 list_type0 0 1 uI10 notransmit0 0 1 lCCCDCCDI12 finger_index0 0 1 dI12 finger
_block1012 0 CZ3 0 4 T1 0 0 5 20 1 14 14 13 255 4 4 0 1 0 15 0 0 16 0 54 255 5 2
9 0 17 18 0 0 +0 -433680868994202e-32 0 0 -1 0 .04 .006 0 0 1 31 255 6 30 0 19 2
0 0 0 +-489858719658941e-32 -433680868994202e-32 .04 -1 0 -122464679914735e-30 -
122464679914735e-30 0 1 .006 29 255 7 27 0 21 22 0 0 .00565685424949237 -.038 19
 8 CCCCCCCA5 owner12 0 Z8 2 0 1 16 0 23 V0 16 255 9 11 24 ?25 0 26 27 0 0 1 18 2
55 10 8 0 28 0 29 30 ?1 17 255 28 0 31 32 33 10 34 35 0 36 +18 29 9 0 34 10 37 3
8 ?1 29 30 21 0 10 0 38 0 -.00565685424949238 -.038 29 38 22 0 29 30 22 -4653657
83675994e-32 -.00565685424949238 .038 29 22 25 0 37 38 7 -465365783675994e-32 .0
0565685424949237 .038 18 37 12 0 39 29 21 22 ?1 17 39 0 31 33 40 37 41 42 0 43 -
18 21 14 0 40 37 0 7 ?1 17 40 0 31 39 25 21 43 26 0 41 -15 255 31 6 0 28 15 0 17
 25 0 31 40 32 37 33 9 0 44 +17 43 0 45 46 41 37 40 26 0 25 +16 26 13 47 ?43 9 4
2 48 0 0 1 17 41 0 45 43 44 21 39 42 0 0 +15 45 17 0 41 17 0 17 44 0 45 41 34 37
 46 19 0 0 -16 42 15 49 ?41 26 19 20 0 0 1 81 1 49 50 50 42 0 0 47 51 52 16 19 1
8 51 ?46 42 53 6 0 0 1 31 20 28 0 42 48 6 0 -0 .00565685424949237 0 0 -1 0 0 0 -
1 .038 31 48 26 0 26 27 20 0 -0 .00565685424949237 0 0 -1 0 0 0 -1 .038 31 27 24
 0 9 54 48 0 +-440872847693047e-32 -433680868994202e-32 .036 -1 0 -1224646799147
35e-30 -122464679914735e-30 0 1 .006 31 54 23 0 53 55 27 0 -0 -.0056568542494923
8 0 0 -1 0 0 0 -1 .038 16 53 10 56 ?32 19 35 54 0 0 1 31 55 20 0 35 0 54 0 -0 -.
00565685424949238 0 0 -1 0 0 0 -1 .038 16 35 7 57 ?28 53 0 55 0 0 1 81 1 57 53 5
0 35 0 0 56 58 59 80 255 1 50 60 61 9000 1 1 1 1 1 1 1 1 0 FFFFTFTFFFFFFF3 81 1
 56 52 50 53 0 0 51 57 62 81 1 58 54 50 15 0 63 57 64 65 84 255 32 59 53997d02be
6bba729116d48bf96daccd14 255 15 5 63 ?17 0 31 4 18 +0 0 17 0 23 81 1 63 60 66 15
 58 0 0 67 68 81 1 64 55 50 17 0 67 58 0 69 84 32 65 2e3f3946197d5a4fc03fb31158b
bc36314 17 16 67 ?0 15 45 4 5 +0 0 0 15 23 81 1 67 61 66 17 64 0 63 0 70 84 32 6
9 3b9360bea0b986fda50d818cbff87d7780 1 66 0 71 8001 0 0 0 0 3 5 0 0 0 FFFFTFTFFF
FFFF2 83 255 3 70 .2 .2 .2 79 255 15 71 SDL/TYSA_COLOUR13 23 3 0 0 0 0 0 0 8 15
 83 3 68 .2 .2 .2 54 18 19 0 15 0 5 0 +0 -433680868994202e-32 0 0 -1 0 .036 .006
 0 0 1 81 1 51 51 50 19 0 0 49 56 72 84 32 62 61ea9c21e012fba597d1e25ac328ec8a84
 32 72 05223a8bce67ecaf1451fd0474b2c8b479 15 61 UGS/ObjectState17 32 0 31 25 28
 29 36 53 0 33 +17 36 0 45 34 46 10 32 53 0 0 -17 33 0 31 28 39 29 25 9 0 46 -17
 46 0 45 36 43 29 44 19 0 0 +17 34 0 45 44 36 29 28 35 0 32 -81 1 47 49 50 26 0
 0 24 49 73 84 32 52 eb29a9edd5aa93f19daee84708d0679981 1 24 48 50 9 0 0 0 47 74
 84 32 73 e7a48e6d1c935b3a4c3c5c4c0ef0cdd584 32 74 056feca289c92c586b70441f830b9
fa419 16 1 0 1 0 8 4 S0 74 4 CI16 index_map_offset0 0 1 dCCZ20 14 5 0 0 75 64 67
 12 2 0 0 0 0 0 0 0 0 0 0 0 0 0 0 0 81 2 75 44 76 1 0 12 0 0 77 78 81 1 12 62 79
 1 75 2 0 0 80 80 1 79 81 82 9000 0 0 0 0 3 5 0 0 0 FFTFFFFFFFFFFF1 82 255 1 80
 173 79 24 82 UG2/BODY_COLOR_ATTRIBUTE80 2 76 83 84 8004 0 0 0 0 3 5 0 0 0 FFTFF
FFFFFFFFF2 3 83 1 77 7830.64 84 8 78 Kg/Cu M 79 16 84 SDL/TYSA_DENSITY80 1 11 85
 86 8038 0 0 0 0 0 0 0 0 0 TTTTTTTTTTTTTF10 98 255 6 13 83 79 76 73 68 49 79 14
 86 SDL/TYSA_UNAME1 0 
