**ABCDEFGHIJKLMNOPQRSTUVWXYZabcdefghijklmnopqrstuvwxyz**************************
**PARASOLID !"#$%&'()*+,-./:;<=>?@[\]^_`{|}~0123456789**************************
**PART1;
MC=x64/Windows NT;
MC_MODEL=genuineintel family 6 model 14 stepping 10, intel(r) core(tm) i5-8300h cpu @ 2.30ghz;
MC_ID=desktop-goj3fk4;
OS=windows nt (x64);
OS_RELEASE=6.3 windows 10 home single language (build 17763) ;
FRU=mdc_ugii_v7.0_djl_can_vrh;
APPL=unigraphics;
SITE=unknown;
USER=Maktub;
FORMAT=text;
GUISE=transmit;
KEY=Salida;
FILE=D:\Maktub\Desktop\Salida.x_t;
DATE=12-feb-2020;
**PART2;
SCH=SCH_2700178_26105;
USFLD_SIZE=0;
**PART3;
**END_OF_HEADER*****************************************************************
T51 : TRANSMIT FILE created by modeller version 270017823 SCH_2700178_26105_1300
6196 0 12 30 CCCCCCCCCCCCCDI5 owner1040 0 CCCCCCCCCA13 boundary_mesh1006 0 A16 i
ndex_map_offset0 0 1 dA9 index_map82 0 A17 node_id_index_map82 0 A20 schema_embe
dding_map82 0 A5 child12 0 A14 lowest_node_id0 0 1 dZ1 159 2 3 0 0 0 0 1e3 1e-8
 0 0 0 1 0 1 1 4 5 6 7 8 9 10 0 0 0 0 0 0 0 81 255 1 2 159 11 1 12 0 0 0 13 70 1
1 CI9 list_type0 0 1 uI10 notransmit0 0 1 lCCCDCCDI12 finger_index0 0 1 dI12 fin
ger_block1012 0 CZ3 0 4 T1 0 0 5 20 1 14 14 13 255 4 4 0 1 0 15 0 0 16 0 54 255
 5 86 0 17 18 0 0 +-445548976415918e-32 .0363818348870978 0 -122464679914735e-30
 1 0 .0116127573202651 .001 0 0 -1 31 255 6 87 0 19 20 0 0 +-587764237231294e-32
 .0363818348870978 -.0116127573202651 -1 -122464679914735e-30 122464679914735e-3
0 -122464679914735e-30 0 -1 .001 29 255 7 83 0 21 22 0 -595036986689109e-32 .037
3205080756888 -.0112679491924311 19 8 CCCCCCCA5 owner12 0 Z8 2 0 1 16 0 23 V0 16
 255 9 17 24 ?25 0 26 27 0 0 1 18 255 10 8 0 28 0 29 30 ?1 17 255 28 0 31 32 32
 10 33 34 0 35 -18 29 9 0 33 10 36 37 ?1 29 30 52 0 10 0 37 -.003 -3673940397442
06e-33 0 29 37 53 0 29 30 38 .003 0 -367394039744205e-33 29 38 57 0 36 37 39 -.0
03 .02 0 18 36 14 0 40 29 41 38 ?1 29 39 58 0 41 38 42 .003 .02 -367394039744205
e-33 18 41 15 0 43 36 44 39 ?1 29 42 63 0 45 39 46 .0121339745962155 .0358205080
756888 0 18 45 21 0 47 44 48 42 ?1 29 46 64 0 44 42 49 -587273037089148e-32 .035
8205080756888 -.0121339745962155 18 44 22 0 50 41 45 46 ?1 29 49 69 0 48 46 51 -
.001 .02 0 18 48 28 0 52 45 53 49 ?1 29 51 70 0 53 49 54 .001 .02 -1224646799147
35e-33 18 53 29 0 55 48 56 51 ?1 29 54 73 0 56 51 57 .0107467319164807 .03688183
48870978 -131609508428127e-32 18 56 32 0 58 53 59 54 ?1 29 57 75 0 59 54 60 -583
281718839782e-32 .0368818348870978 -.0107467319164807 18 59 34 0 61 56 62 57 ?1
 29 60 77 0 62 57 22 -.0107467319164807 .0368818348870978 0 18 62 36 0 63 59 64
 60 ?1 29 22 82 0 64 60 7 -.0112679491924311 .0373205080756888 0 18 64 43 0 65 6
2 21 22 ?1 17 65 0 66 67 68 64 69 70 0 71 -18 21 44 0 69 64 0 7 ?1 17 69 0 72 73
 71 21 65 70 0 67 +15 255 72 48 0 74 17 0 17 73 0 72 58 69 59 75 19 0 0 -17 71 0
 72 69 75 64 67 76 0 0 +16 70 42 77 ?69 76 0 78 0 0 1 17 67 0 66 79 65 21 71 76
 0 68 -15 66 41 0 65 80 0 17 79 0 66 81 67 44 68 82 0 0 +16 76 45 83 ?71 19 70 8
4 0 0 1 17 68 0 66 65 50 21 79 82 0 75 -17 50 0 66 68 81 44 47 85 0 86 -16 82 46
 87 ?79 88 19 20 0 0 1 17 75 0 72 71 61 21 73 19 0 0 +17 61 0 72 75 74 59 63 89
 0 90 -16 19 49 91 ?75 82 76 6 0 0 1 81 1 91 137 92 19 0 0 87 83 93 80 255 1 92
 94 95 9000 1 1 1 1 1 1 1 1 0 FFFFTFTFFFFFFF3 81 1 87 136 92 82 0 0 96 91 97 81
 1 83 138 92 76 0 0 91 77 98 84 255 32 93 0d6f6f577f8f68aa4433b1165cfd0b2d81 1 7
7 139 92 70 0 0 83 99 100 84 32 98 dc936def8d120204e0a81e673312000881 1 99 140 9
2 15 0 101 77 102 103 84 32 100 53395db852e620d8d6a457b4a134e06214 255 15 5 101
 ?104 0 31 4 105 +0 0 104 0 23 81 1 101 151 106 15 99 0 0 107 108 81 1 102 141 9
2 104 0 107 99 109 110 84 32 103 8c7080142f0481af8371cdf593fd8b6c14 104 11 107 ?
111 15 112 4 113 +0 0 111 15 23 81 1 107 152 106 104 102 0 101 114 115 81 1 109
 142 92 111 0 114 102 116 117 84 32 110 1dbb7f4d0414a590f951d58b182efb2e14 111 1
8 114 ?118 104 119 4 120 +0 0 118 104 23 81 1 114 153 106 111 109 0 107 121 122
 81 1 116 143 92 118 0 121 109 123 124 84 32 117 bc42b9aae48cb3c74505c7a9cf39bd5
214 118 25 121 ?125 111 126 4 127 -0 0 125 111 23 81 1 121 154 106 118 116 0 114
 128 129 81 1 123 144 92 125 0 128 116 130 131 84 32 124 3b71c6e66e60f0074990a4a
0b6fe64b814 125 38 128 ?80 118 132 4 133 +0 0 80 118 23 81 1 128 155 106 125 123
 0 121 134 135 81 1 130 145 92 80 0 134 123 136 137 84 32 131 9d9fd21cd8faaf258e
d215bf41cfc82214 80 40 134 ?17 125 66 4 18 +0 0 17 125 23 81 1 134 156 106 80 13
0 0 128 138 139 81 1 136 146 92 17 0 138 130 0 140 84 32 137 eea7c188005d0ca35b5
9031b92f96d7d14 17 47 138 ?0 80 72 4 5 +0 0 0 80 23 81 1 138 157 106 17 136 0 13
4 0 141 84 32 140 a0bbc3e67700e3e906015aea596ae97a80 1 106 0 142 8001 0 0 0 0 3
 5 0 0 0 FFFFTFTFFFFFFF2 83 255 3 141 .8 .8 .2 79 255 15 142 SDL/TYSA_COLOUR13 2
3 3 0 0 0 0 0 0 8 15 83 3 139 .8 .8 .2 54 18 80 0 80 133 5 0 +-444797939582979e-
32 .0363205080756888 0 -122464679914735e-30 1 0 .0112679491924311 .001 0 0 -1 50
 255 133 79 0 125 127 18 0 +-.001 .02 0 -122464679914735e-30 1 0 0 0 -1 52 255 1
27 67 0 118 120 133 0 +-244929359829471e-32 .02 0 -122464679914735e-30 1 0 .001
 .5 .86602540378444 1 122464679914735e-30 0 52 120 61 0 111 113 127 0 +-45704440
7574452e-32 .0373205080756888 0 -122464679914735e-30 1 0 .013 .5 .86602540378444
 1 122464679914735e-30 0 51 255 113 55 0 104 105 120 0 +-489858719658941e-32 .04
 0 -122464679914735e-30 1 0 .003 1 122464679914735e-30 0 50 105 50 0 15 0 113 0
 +0 0 0 122464679914735e-30 -1 0 0 0 1 83 3 135 .8 .8 .2 15 132 39 0 143 125 0 1
7 143 0 132 144 144 53 52 145 0 146 +17 144 0 132 143 143 48 55 88 0 0 +17 52 0
 126 55 146 48 143 145 0 144 -16 145 27 147 ?143 148 88 149 0 0 1 17 146 0 126 5
2 150 53 151 152 0 0 -15 126 26 0 52 118 0 17 150 0 126 146 63 56 74 148 0 0 +17
 151 0 126 90 55 56 146 152 0 150 +16 152 31 153 ?151 154 155 156 0 0 1 81 1 153
 130 92 152 0 0 157 158 159 16 154 13 157 ?43 160 152 161 0 0 1 16 155 33 158 ?9
0 152 89 162 0 0 1 30 255 156 72 0 152 163 162 0 +.001 .02 -122464679914735e-33
 .5 .86602540378444 -612323399573674e-31 31 163 71 0 88 149 156 0 +-244929359829
471e-32 .02 0 -122464679914735e-30 1 0 -1 -122464679914735e-30 0 .001 31 162 74
 0 155 156 164 0 +-451672210411655e-32 .0368818348870978 0 -122464679914735e-30
 1 0 -1 -122464679914735e-30 0 .0107467319164807 31 164 76 0 89 162 165 0 +-4516
72210411655e-32 .0368818348870978 0 -122464679914735e-30 1 0 -1 -122464679914735
e-30 0 .0107467319164807 16 89 35 166 ?63 155 148 164 0 0 1 31 165 78 0 148 164
 78 0 +-451672210411655e-32 .0368818348870978 0 -122464679914735e-30 1 0 -1 -122
464679914735e-30 0 .0107467319164807 16 148 37 167 ?150 89 145 165 0 0 1 31 78 8
1 0 70 165 84 0 +-457044407574452e-32 .0373205080756888 0 -122464679914735e-30 1
 0 -1 -122464679914735e-30 0 .0112679491924311 31 84 84 0 76 78 20 0 +-457044407
574452e-32 .0373205080756888 0 -122464679914735e-30 1 0 -1 -122464679914735e-30
 0 .0112679491924311 31 20 85 0 82 84 6 0 +-582790518697636e-32 .036320508075688
8 -.0112679491924311 -1 -122464679914735e-30 122464679914735e-30 -12246467991473
5e-30 0 -1 .001 81 1 167 133 92 148 0 0 166 147 168 81 1 166 132 92 89 0 0 158 1
67 169 81 1 147 134 92 145 0 0 167 96 170 84 32 168 e6e2d433a0a4d2d2965077772653
4c8081 1 96 135 92 88 0 0 147 87 171 84 32 170 524f4f18bd1990770182de6c4ed94b811
6 88 30 96 ?144 145 82 163 0 0 1 84 32 171 4cf97206662b28ce411ff090d2360b5e81 1
 158 131 92 155 0 0 153 166 172 84 32 169 d5046e0ec4ac693c70c130eef6734c5884 32
 172 9409b44ecbb789a5df313fb6b8fb20b217 63 0 126 150 90 62 61 89 0 74 +17 90 0 1
26 63 151 59 58 155 0 73 +17 74 0 72 61 58 62 150 148 0 0 -17 58 0 72 74 73 56 9
0 155 0 151 -31 149 68 0 145 173 163 0 +-244929359829471e-32 .02 0 -122464679914
735e-30 1 0 -1 -122464679914735e-30 0 .001 30 173 66 0 174 175 149 0 +.013 .0373
205080756888 -159204083889155e-32 -.5 -.86602540378444 612323399573674e-31 16 17
4 24 176 ?177 85 160 173 0 0 1 31 175 65 0 85 178 173 0 +-438674705587242e-32 .0
358205080756888 0 122464679914735e-30 -1 0 1 122464679914735e-30 0 .012133974596
2155 16 85 23 179 ?47 180 174 175 0 0 1 31 178 62 0 180 27 175 0 +-4386747055872
42e-32 .0358205080756888 0 122464679914735e-30 -1 0 1 122464679914735e-30 0 .012
1339745962155 16 180 20 181 ?86 34 85 178 0 0 1 30 27 60 0 9 182 178 0 +.003 .04
 -367394039744205e-33 122464679914735e-30 -1 0 31 182 59 0 160 161 27 0 +-244929
359829471e-32 .02 0 -122464679914735e-30 1 0 -1 -122464679914735e-30 0 .003 16 1
60 16 183 ?184 174 154 182 0 0 1 31 161 56 0 154 185 182 0 +-244929359829471e-32
 .02 0 -122464679914735e-30 1 0 -1 -122464679914735e-30 0 .003 31 185 54 0 26 18
6 161 0 +0 0 0 -122464679914735e-30 1 0 -1 -122464679914735e-30 0 .003 16 26 10
 187 ?35 9 34 185 0 0 1 31 186 51 0 34 0 185 0 +0 0 0 -122464679914735e-30 1 0 -
1 -122464679914735e-30 0 .003 16 34 7 188 ?33 26 180 186 0 0 1 81 1 188 124 92 3
4 0 0 187 181 189 17 33 0 112 190 35 29 28 34 0 32 +15 112 12 0 40 104 0 17 190
 0 112 40 33 41 25 9 0 177 -17 35 0 112 33 25 10 32 26 0 0 +17 32 0 31 28 28 29
 35 26 0 25 -15 31 6 0 28 15 0 17 25 0 112 35 191 29 190 9 0 0 +17 191 0 112 25
 40 41 184 160 0 190 -17 40 0 112 191 190 36 43 154 0 184 -17 184 0 119 43 177 3
6 191 160 0 0 +15 119 19 0 86 111 0 17 43 0 119 192 184 41 40 154 0 191 +17 177
 0 119 184 47 41 192 174 0 0 +17 47 0 119 177 86 45 50 85 0 81 +17 192 0 119 86
 43 45 177 174 0 0 -17 86 0 119 47 192 44 81 180 0 79 +17 81 0 66 50 79 45 86 18
0 0 192 -81 1 187 123 92 26 0 0 24 188 193 81 1 181 125 92 180 0 0 188 179 194 8
4 32 189 e814198d2eaaefaea24d34bc5e19fa0081 1 179 126 92 85 0 0 181 176 195 84 3
2 194 525202c6630d2363d57bd22a927606cb81 1 176 127 92 174 0 0 179 183 196 84 32
 195 954e45046bbad4eafc09d31b89ce828081 1 183 128 92 160 0 0 176 157 197 84 32 1
96 971712d3f59eee332c33a5dbda47bf8781 1 157 129 92 154 0 0 183 153 198 84 32 197
 2c3587bf9a691b0b1c2efec0dc4ebb2384 32 198 2423c64765e9c88a89b73c2e4100a11b81 1
 24 122 92 9 0 0 0 187 199 84 32 193 48d05e669f76c22604b867ab778b46bc84 32 199 8
c42b5f4c182b1016ed02f71d236209f84 32 159 350eeee789aa3e34929d3970e5c9a9fd17 55 0
 126 151 52 53 144 88 0 143 -83 3 129 .8 .8 .2 83 3 122 .8 .8 .2 83 3 115 .8 .8
 .2 83 3 108 .8 .8 .2 84 32 97 bed8cdcaab8f84fd172e82e19719a9fb79 15 95 UGS/Obje
ctState19 16 1 0 1 0 8 4 S0 74 4 CI16 index_map_offset0 0 1 dCCZ20 14 5 0 0 200
 136 138 12 2 0 0 0 0 0 0 0 0 0 0 0 0 0 0 0 81 2 200 115 201 1 0 12 0 0 202 203
 81 1 12 158 204 1 200 2 0 0 205 80 1 204 206 207 9000 0 0 0 0 3 5 0 0 0 FFTFFFF
FFFFFFF1 82 255 1 205 47 79 24 207 UG2/BODY_COLOR_ATTRIBUTE80 2 201 208 209 8004
 0 0 0 0 3 5 0 0 0 FFTFFFFFFFFFFF2 3 83 1 202 7830.64 84 8 203 Kg/Cu M 79 16 209
 SDL/TYSA_DENSITY80 1 11 210 211 8038 0 0 0 0 0 0 0 0 0 TTTTTTTTTTTTTF10 98 255
 6 13 83 79 76 73 68 49 79 14 211 SDL/TYSA_UNAME1 0 
